<svg xmlns="http://www.w3.org/2000/svg" width="319.135" height="298.421" viewBox="0 0 319.135 298.421"><defs><style>.a{fill:#3c2d2c;}</style></defs><g transform="translate(44.192 61.867)"><g transform="translate(0)"><path class="a" d="M243.131,317.983l-49.5,49.5,49.5,49.5,49.5-49.5-49.5-49.5m0-30.035,79.537,79.537-79.537,79.537-79.537-79.537,79.537-79.537Z" transform="translate(-163.594 -287.948)"/></g><rect class="a" width="112.482" height="21.239" transform="translate(79.538 159.073)"/><rect class="a" width="21.238" height="112.482" transform="matrix(-0.375, -0.927, 0.927, -0.375, 83.516, 168.92)"/><path class="a" d="M151.238,374.465a56.243,56.243,0,0,0,104.158,0Z" transform="translate(-67.538 -172.916)"/></g><path class="a" d="M321.465,323.258H197.736a61.865,61.865,0,1,1,123.729,0Zm-82.624-23.592a9.364,9.364,0,1,0-9.365,9.365A9.364,9.364,0,0,0,238.842,299.666Z" transform="translate(-197.736 -261.391)"/><path class="a" d="M252.569,285.044a34.531,34.531,0,0,0-16.64,4.2l-.752.408-.783.347-68,30.052L234.387,350.1l.785.347.752.41a34.547,34.547,0,0,0,16.645,4.2,35,35,0,1,0,0-70.006m0-21.239A56.242,56.242,0,1,1,225.8,369.522L113.856,320.048,225.807,270.57a55.98,55.98,0,0,1,26.762-6.765Z" transform="translate(10.325 -258.181)"/></svg>