<svg xmlns="http://www.w3.org/2000/svg" width="206.757" height="402.365" viewBox="0 0 206.757 402.365"><defs><style>.a{fill:#3d9ee2;}</style></defs><g transform="translate(0)"><g transform="translate(73.612)"><path class="a" d="M1968.378,1653.421a41.1,41.1,0,0,1,43.457-19.745l-38.828,67.253a41.1,41.1,0,0,1-4.628-47.508m-11.491-6.634a54.3,54.3,0,0,0,19.875,74.173l54.3-94.047a54.3,54.3,0,0,0-74.173,19.873Z" transform="translate(-1949.604 -1619.629)"/></g><g transform="translate(98.161 42.515)"><path class="a" d="M2021.809,1663.907a41.1,41.1,0,0,1,38.828,27.762h-77.657a41.1,41.1,0,0,1,38.83-27.762m0-13.267a54.3,54.3,0,0,0-54.3,54.3h108.6a54.3,54.3,0,0,0-54.3-54.3Z" transform="translate(-1967.511 -1650.64)"/></g><g transform="translate(100.77 85.011)"><path class="a" d="M2032.1,1715.428a41.1,41.1,0,0,1-4.63,47.507l-38.828-67.254a41.1,41.1,0,0,1,43.458,19.746m11.49-6.634a54.3,54.3,0,0,0-74.172-19.874l54.3,94.046a54.3,54.3,0,0,0,19.875-74.172Z" transform="translate(-1969.414 -1681.637)"/></g><g transform="translate(51.688 92.295)"><path class="a" d="M1996.3,1754.488a41.1,41.1,0,0,1-43.457,19.745l38.829-67.253a41.1,41.1,0,0,1,4.628,47.508m11.49,6.634a54.3,54.3,0,0,0-19.874-74.172l-54.3,94.045a54.3,54.3,0,0,0,74.172-19.874Z" transform="translate(-1933.613 -1686.95)"/></g><g transform="translate(0 96.812)"><path class="a" d="M1950.208,1731.275a41.1,41.1,0,0,1-38.829-27.762h77.657a41.1,41.1,0,0,1-38.828,27.762m0,13.268a54.3,54.3,0,0,0,54.3-54.3H1895.911a54.3,54.3,0,0,0,54.3,54.3Z" transform="translate(-1895.911 -1690.245)"/></g><g transform="translate(24.531 7.284)"><path class="a" d="M1932.578,1692.48a41.1,41.1,0,0,1,4.628-47.506l38.829,67.253a41.1,41.1,0,0,1-43.457-19.747m-11.49,6.635a54.3,54.3,0,0,0,74.172,19.875l-54.3-94.047a54.3,54.3,0,0,0-19.874,74.172Z" transform="translate(-1913.804 -1624.942)"/></g></g><rect class="a" width="12.393" height="222.278" transform="translate(100.762 180.087)"/></svg>