<?xml version="1.0" encoding="utf-8"?>
<!-- Generator: Adobe Illustrator 25.2.0, SVG Export Plug-In . SVG Version: 6.00 Build 0)  -->
<svg version="1.1" id="Layer_1" xmlns="http://www.w3.org/2000/svg" xmlns:xlink="http://www.w3.org/1999/xlink" x="0px" y="0px"
	 viewBox="0 0 211.2 211.2" style="enable-background:new 0 0 211.2 211.2;" xml:space="preserve">
<style type="text/css">
	.st0{fill:#FF6933;}
	.st1{fill:#A9D6E6;}
</style>
<g id="flower" transform="translate(0)">
	<path class="st0" d="M120.3,70.8L103.1,0L89.6,3.4l15.6,64.2C110.4,67.6,115.6,68.7,120.3,70.8z"/>
	<path class="st0" d="M135.1,82.3l17.4-71.4L139,7.5l-15.8,64.7C127.8,74.7,131.9,78.1,135.1,82.3z"/>
	<path class="st0" d="M101.7,67.7L54.3,13.6l-10.4,9.3L87,72.1C91.6,69.7,96.6,68.2,101.7,67.7z"/>
	<path class="st0" d="M143.3,105.2c0.1,4.1-0.5,8.2-1.7,12.2L210.4,91l-4.9-13.1l-62.5,24C143.1,103,143.2,104.1,143.3,105.2z"/>
	<path class="st0" d="M142.6,99.2l48.6-55.5l-10.4-9.3l-44,50.3C139.7,89.1,141.7,94,142.6,99.2z"/>
	<path class="st0" d="M83.9,74.1L17.4,48.5l-4.9,13.1L73.2,85C76,80.6,79.7,76.9,83.9,74.1z"/>
	<path class="st0" d="M106,144.8c-2,0-3.9-0.1-5.9-0.3l33.9,65.4l12.3-6.5l-31.1-59.9C112.2,144.2,109.1,144.7,106,144.8z"/>
	<path class="st0" d="M117.7,142.6l60.5,42.2l7.9-11.6l-55.3-38.5C127,138.2,122.6,140.9,117.7,142.6z"/>
	<path class="st0" d="M132.6,133l73.2,9l1.7-13.9l-66.6-8.2C139,124.7,136.2,129.2,132.6,133z"/>
	<path class="st0" d="M71.3,88.2L0.8,96.8l1.7,13.9l64.6-7.9C67.5,97.7,68.9,92.7,71.3,88.2z"/>
	<path class="st0" d="M83.5,138v73.2h13.9V144C92.4,142.9,87.7,140.9,83.5,138z"/>
	<path class="st0" d="M71.5,124.4l-33.3,64.3l12.3,6.5l30.7-59.1C77.1,132.9,73.9,128.9,71.5,124.4z"/>
	<path class="st0" d="M66.9,107.1c0-0.2,0-0.4,0-0.6l-58.7,41l7.9,11.6L70,121.5C68.1,116.9,67.1,112,66.9,107.1z"/>
	<ellipse class="st1" cx="105" cy="106.2" rx="38.1" ry="38.6"/>
</g>
</svg>
