<?xml version="1.0" encoding="utf-8"?>
<!-- Generator: Adobe Illustrator 25.2.0, SVG Export Plug-In . SVG Version: 6.00 Build 0)  -->
<svg version="1.1" id="Layer_1" xmlns="http://www.w3.org/2000/svg" xmlns:xlink="http://www.w3.org/1999/xlink" x="0px" y="0px"
	 viewBox="0 0 237.9 237.9" style="enable-background:new 0 0 237.9 237.9;" xml:space="preserve">
<style type="text/css">
	.st0{fill:#FFA7B2;}
	.st1{fill:#A9D6E6;}
</style>
<g id="flower">
	<g transform="translate(0 -70)">
		<g transform="translate(0 121.313)">
			<path class="st0" d="M125.2,92.3l-24.4-6.9L93,83.2l0,0L51.2,71.4l-0.9-0.2c-18.1-4.8-36.6,5.9-41.4,24
				c-4.8,17.9,5.8,36.4,23.7,41.3c8.6,2.4,17.8,1.2,25.5-3.2l0.9-0.5L119.4,98l0,0l8.5-4.9L125.2,92.3z M51.8,120.4l-0.8,0.5
				c-4.5,2.5-9.7,3.1-14.6,1.8c-10.3-2.9-16.4-13.6-13.5-24c2.8-10.2,13.4-16.3,23.7-13.6l0.8,0.2l43.9,12.4L51.8,120.4z"/>
		</g>
		<g transform="translate(7.453 36.132)">
			<g transform="translate(0)">
				<path class="st0" d="M93.3,170.6L87.1,146l-2-7.9l-10.7-42l-0.2-0.8c-4.8-18.1-23.3-28.9-41.4-24.1S4,94.4,8.7,112.5l0,0
					c2.3,8.6,7.8,16,15.5,20.5l0.9,0.5l60.5,34.9l0,0l8.4,4.9L93.3,170.6z M32.3,121l-0.8-0.5c-4.4-2.6-7.6-6.8-8.9-11.8
					c-2.7-10.4,3.5-21,13.9-23.7c10.3-2.7,20.9,3.4,23.7,13.8l0.2,0.8l11.2,44.2L32.3,121z"/>
			</g>
		</g>
		<g transform="translate(84.959)">
			<path class="st0" d="M65.4,80c-13.2-13.2-34.5-13.3-47.8-0.2c-6.3,6.3-9.9,14.8-10,23.7v80.6l2-1.9l18.2-17.7l5.8-5.7l31.1-30.3
				l0.6-0.6C78.6,114.7,78.6,93.2,65.4,80z M55.2,117.6l-0.6,0.6L22,150v-46.4c0.1-5.1,2.1-10,5.8-13.5l0,0c7.7-7.5,20-7.4,27.5,0.2
				C62.8,97.9,62.7,110,55.2,117.6z"/>
		</g>
		<g transform="translate(102.45 49.044)">
			<path class="st0" d="M102.9,71.2c-8.6-2.3-17.8-1.2-25.5,3.2l-0.9,0.5l-60.4,34.9l-8.5,4.9l2.7,0.8l24.4,6.9l0,0l7.8,2.2l0,0
				l41.8,11.8l0.8,0.2c18.1,4.8,36.6-5.9,41.4-24C131.4,94.6,120.8,76.2,102.9,71.2z M112.8,109c-2.8,10.3-13.5,16.5-23.8,13.7
				l-0.8-0.2l-43.9-12.4l39.4-22.7l0.8-0.5c4.5-2.5,9.7-3.1,14.6-1.8C109.5,87.9,115.6,98.6,112.8,109z"/>
		</g>
		<g transform="translate(128.856 98.653)">
			<path class="st0" d="M92.9,130.8c-2.3-8.6-7.8-16-15.5-20.5l-0.9-0.5L16.1,74.9l0,0L7.6,70l0.7,2.7l0,0l6.2,24.6l2,7.8l10.7,42.1
				l0.2,0.8c4.9,18.1,23.4,28.8,41.5,23.9C86.8,167.2,97.6,148.8,92.9,130.8z M65,158.2c-10.3,2.7-20.9-3.4-23.7-13.7l-0.2-0.8
				L29.9,99.5l39.4,22.7l0.8,0.5c4.4,2.6,7.6,6.8,8.9,11.8l0,0C81.7,144.9,75.5,155.5,65,158.2z"/>
		</g>
		<g transform="translate(70.051 123.997)">
			<path class="st0" d="M73.3,71.9L55.2,89.6l-5.8,5.6l0,0l-31.1,30.3l-0.6,0.6C4.5,139.3,4.5,160.8,17.8,174
				c11.8,11.8,30.2,13,43.4,3.7c1.5-1,2.9-2.2,4.2-3.5l0,0c6.3-6.3,9.9-14.8,10-23.7V70L73.3,71.9z M60.9,150.5
				c-0.1,5.1-2.1,10-5.8,13.5c-7.6,7.6-19.9,7.6-27.5,0s-7.6-19.9,0-27.5l0.6-0.6l32.7-31.8C60.9,104.1,60.9,150.5,60.9,150.5z"/>
		</g>
		<g transform="translate(0 121.313)">
			<path class="st0" d="M125.2,92.3l-24.4-6.9L93,83.2l0,0L51.2,71.4l-0.9-0.2c-18.1-4.8-36.6,5.9-41.4,24
				c-4.8,17.9,5.8,36.4,23.7,41.3c8.6,2.4,17.8,1.2,25.5-3.2l0.9-0.5L119.4,98l0,0l8.5-4.9L125.2,92.3z M51.8,120.4l-0.8,0.5
				c-4.5,2.5-9.7,3.1-14.6,1.8c-10.3-2.9-16.4-13.6-13.5-24c2.8-10.2,13.4-16.3,23.7-13.6l0.8,0.2l43.9,12.4L51.8,120.4z"/>
		</g>
		<g transform="translate(7.453 36.132)">
			<g transform="translate(0)">
				<path class="st0" d="M93.3,170.6L87.1,146l-2-7.9l-10.7-42l-0.2-0.8c-4.8-18.1-23.3-28.9-41.4-24.1S4,94.4,8.7,112.5l0,0
					c2.3,8.6,7.8,16,15.5,20.5l0.9,0.5l60.5,34.9l0,0l8.4,4.9L93.3,170.6z M32.3,121l-0.8-0.5c-4.4-2.6-7.6-6.8-8.9-11.8
					c-2.7-10.4,3.5-21,13.9-23.7c10.3-2.7,20.9,3.4,23.7,13.8l0.2,0.8l11.2,44.2L32.3,121z"/>
			</g>
		</g>
	</g>
	<path class="st1" d="M140.2,47.6l-0.6,0.6L106.9,80V33.6c0.1-5.1,2.1-10,5.8-13.5l0,0c7.7-7.5,20-7.4,27.5,0.2S147.7,40,140.2,47.6
		z"/>
	<polygon class="st1" points="143.4,125.9 125.2,143.6 100.8,136.8 94.6,112.2 112.7,94.5 137.1,101.3 137.1,101.3 	"/>
	<path class="st1" d="M215.3,88c-2.8,10.3-13.5,16.5-23.8,13.7l-0.8-0.2l-43.9-12.4l39.4-22.7l0.8-0.5c4.5-2.5,9.7-3.1,14.6-1.8
		C211.9,66.9,218.1,77.6,215.3,88z"/>
	<path class="st1" d="M193.9,186.9c-10.3,2.7-20.9-3.4-23.7-13.7l-0.2-0.8l-11.2-44.2l39.4,22.7l0.8,0.5c4.4,2.6,7.6,6.8,8.9,11.8
		l0,0C210.5,173.5,204.3,184.2,193.9,186.9z"/>
	<path class="st1" d="M131,158.1v46.4c-0.1,5.1-2.1,10-5.8,13.5c-7.6,7.6-19.9,7.6-27.5,0s-7.6-19.9,0-27.5l0.6-0.6L131,158.1z"/>
	<path class="st1" d="M91.1,149l-39.4,22.7l-0.8,0.5c-4.5,2.5-9.7,3.1-14.6,1.8c-10.3-2.9-16.4-13.6-13.5-24
		c2.8-10.2,13.4-16.3,23.7-13.6l0.8,0.2L91.1,149z"/>
	<path class="st1" d="M79.1,109.9L39.8,87.2L39,86.7c-4.4-2.6-7.6-6.8-8.9-11.8c-2.7-10.4,3.5-21,13.9-23.7
		c10.3-2.7,20.9,3.4,23.7,13.8l0.2,0.8L79.1,109.9z"/>
</g>
</svg>
