<svg xmlns="http://www.w3.org/2000/svg" width="185.578" height="301.474" viewBox="0 0 185.578 301.474"><defs><style>.a{fill:#f1d99d;}</style></defs><g transform="translate(-37.15)"><g transform="translate(37.15)"><g transform="translate(0 101.078)"><path class="a" d="M1390.484,1784.376a16.215,16.215,0,0,1,8.454-31.309l.646.183,36.543,10.313-32.811,18.941-.652.379a16.164,16.164,0,0,1-12.18,1.492m-3.147,11.575a28.162,28.162,0,0,0,21.274-2.649l.732-.426,57.4-33.137-63.9-18.032-.7-.2a28.21,28.21,0,0,0-14.8,54.444Z" transform="translate(-1366.528 -1740.512)"/></g><g transform="translate(6.21 30.106)"><path class="a" d="M1384.5,1710.729a16.215,16.215,0,0,1,31.341-8.333l.164.651,9.341,36.8-32.81-18.944-.654-.376a16.156,16.156,0,0,1-7.383-9.8m-11.6,3.062a28.162,28.162,0,0,0,12.931,17.1l.736.422,57.4,33.141-16.334-64.356-.178-.708a28.21,28.21,0,0,0-54.552,14.4Z" transform="translate(-1371.964 -1678.381)"/></g><g transform="translate(70.788)"><path class="a" d="M1445.291,1668.726a16.215,16.215,0,0,1,22.887,22.976l-.482.468-27.2,26.491v-37.886l0-.754a16.164,16.164,0,0,1,4.8-11.295m-8.45-8.513a28.162,28.162,0,0,0-8.342,19.75l0,.847,0,66.277,47.566-46.323.524-.508a28.21,28.21,0,0,0-39.748-40.042Z" transform="translate(-1428.498 -1652.025)"/></g><g transform="translate(85.363 40.864)"><path class="a" d="M1517.516,1700.369a16.215,16.215,0,0,1-8.454,31.309l-.646-.183-36.543-10.312,32.811-18.941.652-.379a16.158,16.158,0,0,1,12.18-1.493m3.147-11.575a28.169,28.169,0,0,0-21.274,2.65l-.732.426-57.4,33.137,63.9,18.032.7.2a28.21,28.21,0,0,0,14.8-54.444Z" transform="translate(-1441.257 -1687.799)"/></g><g transform="translate(107.363 82.198)"><path class="a" d="M1519.983,1777.708a16.215,16.215,0,0,1-31.341,8.333l-.164-.652-9.341-36.8,32.81,18.944.653.376a16.157,16.157,0,0,1,7.383,9.8m11.6-3.062a28.165,28.165,0,0,0-12.931-17.1l-.736-.421-57.4-33.141,16.334,64.357.178.708a28.21,28.21,0,0,0,54.551-14.4Z" transform="translate(-1460.517 -1723.984)"/></g><g transform="translate(58.367 103.315)"><path class="a" d="M1457.254,1820.831a16.215,16.215,0,0,1-22.887-22.976l.482-.469,27.2-26.491v37.886l0,.755a16.159,16.159,0,0,1-4.8,11.294m8.451,8.514a28.161,28.161,0,0,0,8.342-19.749l0-.848,0-66.278-47.566,46.324-.524.51a28.21,28.21,0,0,0,39.748,40.042Z" transform="translate(-1417.624 -1742.47)"/></g><g transform="translate(0 101.078)"><path class="a" d="M1390.484,1784.376a16.215,16.215,0,0,1,8.454-31.309l.646.183,36.543,10.313-32.811,18.941-.652.379a16.164,16.164,0,0,1-12.18,1.492m-3.147,11.575a28.162,28.162,0,0,0,21.274-2.649l.732-.426,57.4-33.137-63.9-18.032-.7-.2a28.21,28.21,0,0,0-14.8,54.444Z" transform="translate(-1366.528 -1740.512)"/></g><g transform="translate(6.21 30.106)"><path class="a" d="M1384.5,1710.729a16.215,16.215,0,0,1,31.341-8.333l.164.651,9.341,36.8-32.81-18.944-.654-.376a16.156,16.156,0,0,1-7.383-9.8m-11.6,3.062a28.162,28.162,0,0,0,12.931,17.1l.736.422,57.4,33.141-16.334-64.356-.178-.708a28.21,28.21,0,0,0-54.552,14.4Z" transform="translate(-1371.964 -1678.381)"/></g></g><rect class="a" width="14.396" height="187.098" transform="translate(147.56 114.376)"/></g></svg>