<?xml version="1.0" encoding="utf-8"?>
<!-- Generator: Adobe Illustrator 25.2.0, SVG Export Plug-In . SVG Version: 6.00 Build 0)  -->
<svg version="1.1" id="Layer_1" xmlns="http://www.w3.org/2000/svg" xmlns:xlink="http://www.w3.org/1999/xlink" x="0px" y="0px"
	 viewBox="0 0 212.4 212.4" style="enable-background:new 0 0 212.4 212.4;" xml:space="preserve">
<style type="text/css">
	.st0{fill:#61B980;}
	.st1{fill:#A9D6E6;}
</style>
<g id="flower">
	<g transform="translate(0)">
		<g transform="translate(59.146)">
			<path class="st0" d="M40.4,0L13.1,47.3L10.9,51l6.5,3.7l0,0l0,0l44.5,25.8l14.9-25.7l4.3-7.5l10.3-17.8L40.4,0z M57.4,63.6
				L27.7,46.5l17.2-29.7L74.5,34L57.4,63.6z"/>
		</g>
		<g transform="translate(125.008 47.275)">
			<g transform="translate(0)">
				<path class="st0" d="M10.9,0v58.9h58.9V0H10.9z M57.5,46.6H23.2V12.3h34.3V46.6z"/>
			</g>
		</g>
		<g transform="translate(110.161 102.444)">
			<path class="st0" d="M64.1,3.7L61.9,0l-6.5,3.7L10.9,29.5l14.8,25.7l4.3,7.5l10.3,17.8l51-29.4L64.1,3.7z M27.7,34l29.7-17.1
				l17.1,29.7l-29.6,17L27.7,34z"/>
		</g>
		<g transform="translate(51.015 131.897)">
			<path class="st0" d="M84.9,25.7L40.4,0L25.5,25.7l-4.3,7.5L10.9,51l41.7,24.1l9.3,5.4l0,0l3.1-5.4l24.2-41.9l2.2-3.7L84.9,25.7z
				 M57.4,63.6L27.7,46.5l17.2-29.7L74.5,34L57.4,63.6z"/>
		</g>
		<g transform="translate(6.715 106.183)">
			<g transform="translate(0)">
				<path class="st0" d="M10.9,0v58.9h58.9V0H10.9z M57.5,46.6H23.2V12.3h34.3V46.6z"/>
			</g>
		</g>
		<g transform="translate(0 29.453)">
			<path class="st0" d="M76.5,25.3L76.5,25.3L76.5,25.3l-4.3-7.5L61.9,0l-51,29.5l27.3,47.3l2.2,3.7l6.5-3.7L91.4,51L76.5,25.3z
				 M44.9,63.6L27.7,34l29.7-17.1l17.1,29.7L44.9,63.6z"/>
		</g>
		<g transform="translate(59.146)">
			<path class="st0" d="M40.4,0L13.1,47.3L10.9,51l6.5,3.7l0,0l0,0l44.5,25.8l14.9-25.7l4.3-7.5l10.3-17.8L40.4,0z M57.4,63.6
				L27.7,46.5l17.2-29.7L74.5,34L57.4,63.6z"/>
		</g>
		<g transform="translate(125.008 47.275)">
			<g transform="translate(0)">
				<path class="st0" d="M10.9,0v58.9h58.9V0H10.9z M57.5,46.6H23.2V12.3h34.3V46.6z"/>
			</g>
		</g>
	</g>
	<rect x="29.9" y="118.5" class="st1" width="34.3" height="34.3"/>
	<polygon class="st1" points="121.1,131.9 135.9,157.6 91.4,131.9 76.5,157.6 76.5,106.2 46.8,106.2 91.4,80.5 76.5,54.8 
		121.1,80.5 135.9,54.7 135.9,106.2 165.6,106.2 	"/>
	<polygon class="st1" points="125.6,165.9 108.4,195.5 78.7,178.4 95.9,148.7 	"/>
	
		<rect x="144.2" y="125.6" transform="matrix(0.8661 -0.4999 0.4999 0.8661 -49.755 99.7881)" class="st1" width="34.3" height="34.3"/>
	<rect x="148.2" y="59.6" class="st1" width="34.3" height="34.3"/>
	<polygon class="st1" points="133.7,34 116.6,63.6 86.9,46.5 104,16.8 	"/>
	<polygon class="st1" points="74.5,76 44.9,93.1 27.7,63.4 57.4,46.3 	"/>
</g>
</svg>
