<svg xmlns="http://www.w3.org/2000/svg" width="190.629" height="446.542" viewBox="0 0 190.629 446.542"><defs><style>.a{fill:#61b980;}</style></defs><g transform="translate(0)"><g transform="translate(59.146)"><path class="a" d="M1758.238,1654.124l29.673,17.132-17.131,29.673-29.674-17.132,17.132-29.673m-4.509-16.831-29.454,51.014,51.015,29.454,29.454-51.015-51.015-29.452Z" transform="translate(-1724.275 -1637.293)"/></g><g transform="translate(125.008 47.275)"><g transform="translate(0)"><path class="a" d="M1818.9,1684.1v34.263h-34.263V1684.1H1818.9m12.321-12.322h-58.906v58.908h58.906v-58.908Z" transform="translate(-1772.315 -1671.776)"/></g></g><g transform="translate(110.161 102.444)"><path class="a" d="M1825.122,1758.522l-29.673,17.131-17.132-29.673,29.673-17.132,17.131,29.673m16.831,4.509-29.453-51.014-51.015,29.453,29.454,51.015,51.014-29.454Z" transform="translate(-1761.486 -1712.017)"/></g><g transform="translate(51.015 131.897)"><path class="a" d="M1764.848,1797.137,1735.175,1780l17.131-29.673,29.674,17.133-17.132,29.673m4.51,16.831,29.452-51.015L1747.8,1733.5l-29.454,51.015,51.015,29.454Z" transform="translate(-1718.344 -1733.5)"/></g><g transform="translate(6.715 106.183)"><g transform="translate(0)"><path class="a" d="M1698.353,1761.329v-34.265h34.263v34.265h-34.263m-12.323,12.321h58.907v-58.906h-58.907v58.906Z" transform="translate(-1686.031 -1714.744)"/></g></g><g transform="translate(0 29.453)"><path class="a" d="M1697.964,1692.74l29.673-17.133,17.133,29.673-29.674,17.133-17.132-29.673m-16.831-4.51,29.454,51.015,51.015-29.454-29.454-51.015-51.015,29.454Z" transform="translate(-1681.133 -1658.776)"/></g><g transform="translate(59.146)"><path class="a" d="M1758.238,1654.124l29.673,17.132-17.131,29.673-29.674-17.132,17.132-29.673m-4.509-16.831-29.454,51.014,51.015,29.454,29.454-51.015-51.015-29.452Z" transform="translate(-1724.275 -1637.293)"/></g><g transform="translate(125.008 47.275)"><g transform="translate(0)"><path class="a" d="M1818.9,1684.1v34.263h-34.263V1684.1H1818.9m12.321-12.322h-58.906v58.908h58.906v-58.908Z" transform="translate(-1772.315 -1671.776)"/></g></g></g><rect class="a" width="12.393" height="249.286" transform="translate(92.753 197.256)"/></svg>