<?xml version="1.0" encoding="utf-8"?>
<!-- Generator: Adobe Illustrator 25.2.0, SVG Export Plug-In . SVG Version: 6.00 Build 0)  -->
<svg version="1.1" id="Layer_1" xmlns="http://www.w3.org/2000/svg" xmlns:xlink="http://www.w3.org/1999/xlink" x="0px" y="0px"
	 viewBox="0 0 198.4 198.4" style="enable-background:new 0 0 198.4 198.4;" xml:space="preserve">
<style type="text/css">
	.st0{fill:#F1D99D;}
	.st1{fill:#A9D6E6;}
</style>
<g id="flower">
	<g transform="translate(37.15)">
		<g transform="translate(0 101.078)">
			<path class="st0" d="M67.2,18.6l-20.3-5.7L40.4,11l0,0L10,2.5L5.5,1.2L4.9,1c-15-4-30.5,4.9-34.6,19.9c-4,15,4.8,30.4,19.8,34.5
				c7.2,1.9,14.8,1,21.3-2.7l0.7-0.4l30.6-17.6l19.7-11.4l0,0l7-4.1L67.2,18.6z M6,42l-0.6,0.4C1.7,44.5-2.7,45-6.8,43.9
				c-8.6-2.4-13.8-11.3-11.4-19.9C-15.9,15.3-7,10.2,1.7,12.6l0.7,0.2l7.7,2.2l28.8,8.1L18.6,34.7L6,42z"/>
		</g>
		<g transform="translate(6.21 30.106)">
			<path class="st0" d="M40.7,83.8l-5.2-20.5l-1.7-6.5l-8.6-34.1l-0.3-1L24.7,21C20.8,5.9,5.3-3-9.7,0.9c-15.1,4-24,19.4-20.1,34.5
				l0,0c1.9,7.2,6.5,13.3,12.9,17.1l0.7,0.4l20,11.5L34.2,82l0,0l7.1,4.1L40.7,83.8z M3.8,50.6l-14-8.1l-0.7-0.4
				c-3.7-2.2-6.3-5.7-7.4-9.8l0,0c-2.3-8.7,2.9-17.5,11.6-19.8c8.2-2.2,16.6,2.4,19.4,10.2c0.2,0.4,0.3,0.8,0.4,1.3l0.2,0.7
				l9.3,36.8L3.8,50.6z"/>
		</g>
		<g transform="translate(70.788)">
			<path class="st0" d="M17.5,8.3c-11-11-28.8-11.1-39.9-0.1c-5.3,5.2-8.3,12.3-8.4,19.8v67.1l1.7-1.6l15.2-14.8l4.8-4.7l21.7-21.1
				l4.2-4.1l0.5-0.5C28.4,37.2,28.5,19.4,17.5,8.3z M8.9,39.7l-0.5,0.5l-13,12.7l-14.1,13.8V28c0.1-4.2,1.8-8.3,4.8-11.3
				c6.3-6.3,16.6-6.3,22.9,0C15.3,23.1,15.3,33.4,8.9,39.7z"/>
		</g>
		<g transform="translate(85.363 40.864)">
			<path class="st0" d="M48.6,1c-7.1-2-14.8-1-21.2,2.6L26.7,4l-13.8,8l-36.6,21.1l-7.1,4.1l2.2,0.6l20.3,5.7l6.4,1.8l0,0l0,0
				L33,55.1l0.7,0.2c4.6,1.2,9.3,1.3,13.7,0.2c10-2.1,18.2-9.6,21-20C72.4,20.5,63.6,5.1,48.6,1z M56.9,32.5
				c-1.4,5-4.9,8.9-9.4,10.7c-3.2,1.4-6.9,1.7-10.5,0.7l-0.6-0.2L-0.1,33.4l32.8-18.9l0.7-0.4c2.4-1.4,5.2-2.1,7.9-2.1
				c1.4,0,2.9,0.2,4.3,0.6c0.7,0.2,1.4,0.4,2,0.7C54.9,16.4,59.1,24.5,56.9,32.5z"/>
		</g>
		<g transform="translate(107.363 82.198)">
			<path class="st0" d="M40.3,50.7c-1.9-7.2-6.5-13.4-12.9-17.1l-0.7-0.4l-1.1-0.6L-23.7,4.1l0,0l0,0l-7-4l0.6,2.2l5.2,20.5l1.7,6.5
				l0.7,2.9l5.4,21.4l2.7,10.8l0.2,0.7c0.3,1,0.6,1.9,0.9,2.9c5.1,13.2,19.5,20.8,33.6,17C35.3,81,44.2,65.7,40.3,50.7z M17.1,73.5
				C8.5,75.8-0.3,70.7-2.6,62.1l-0.2-0.7l-2-7.8l-7.4-29l32.8,19l0.7,0.4c1.6,1,3,2.2,4.2,3.6c1.5,1.8,2.6,3.9,3.2,6.2
				C31,62.4,25.8,71.3,17.1,73.5z"/>
		</g>
		<g transform="translate(58.367 103.315)">
			<path class="st0" d="M24,1.6L8.9,16.4l-4.8,4.7l0,0L-7.6,32.5l-14.2,13.8l-0.5,0.5c-11.1,11-11.1,28.8-0.2,39.9
				c11,11.1,28.8,11.1,39.9,0.2c1.5-1.5,2.8-3.2,4-5c2.8-4.4,4.3-9.5,4.4-14.8V0L24,1.6z M13.7,67.1c0,4.2-1.8,8.3-4.8,11.3
				c-6.3,6.3-16.6,6.3-22.9,0s-6.3-16.6,0-22.9l0.5-0.5l23-22.4l4.2-4.1V67.1z"/>
		</g>
		<g transform="translate(0 101.078)">
			<path class="st0" d="M67.2,18.6l-20.3-5.7L40.4,11l0,0L10,2.5L5.5,1.2L4.9,1c-15-4-30.5,4.9-34.6,19.9c-4,15,4.8,30.4,19.8,34.5
				c7.2,1.9,14.8,1,21.3-2.7l0.7-0.4l30.6-17.6l19.7-11.4l0,0l7-4.1L67.2,18.6z M6,42l-0.6,0.4C1.7,44.5-2.7,45-6.8,43.9
				c-8.6-2.4-13.8-11.3-11.4-19.9C-15.9,15.3-7,10.2,1.7,12.6l0.7,0.2l7.7,2.2l28.8,8.1L18.6,34.7L6,42z"/>
		</g>
		<g transform="translate(6.21 30.106)">
			<path class="st0" d="M40.7,83.8l-5.2-20.5l-1.7-6.5l-8.6-34.1l-0.3-1L24.7,21C20.8,5.9,5.3-3-9.7,0.9c-15.1,4-24,19.4-20.1,34.5
				l0,0c1.9,7.2,6.5,13.3,12.9,17.1l0.7,0.4l20,11.5L34.2,82l0,0l7.1,4.1L40.7,83.8z M3.8,50.6l-14-8.1l-0.7-0.4
				c-3.7-2.2-6.3-5.7-7.4-9.8l0,0c-2.3-8.7,2.9-17.5,11.6-19.8c8.2-2.2,16.6,2.4,19.4,10.2c0.2,0.4,0.3,0.8,0.4,1.3l0.2,0.7
				l9.3,36.8L3.8,50.6z"/>
		</g>
	</g>
	<path class="st1" d="M66,91.6l-32.8-19l-0.7-0.4c-3.7-2.2-6.3-5.7-7.4-9.8l0,0c-2.3-8.7,2.9-17.5,11.6-19.8
		c8.6-2.3,17.5,2.9,19.8,11.5l0.2,0.7L66,91.6z"/>
	<path class="st1" d="M76,124.1L43.2,143l-0.6,0.4c-3.7,2.1-8.1,2.6-12.2,1.5c-8.7-2.3-13.8-11.2-11.4-19.9
		c2.3-8.7,11.2-13.8,19.9-11.4l0.7,0.2L76,124.1z"/>
	<path class="st1" d="M109.2,131.7v38.6c0,4.2-1.8,8.3-4.8,11.3c-6.3,6.3-16.6,6.3-22.9,0s-6.3-16.6,0-22.9l0.5-0.5L109.2,131.7z"/>
	<path class="st1" d="M161.7,155.7c-8.6,2.3-17.5-2.9-19.8-11.5l-0.2-0.7l-9.3-36.8l32.8,19l0.7,0.4c3.6,2.2,6.3,5.7,7.4,9.8
		C175.5,144.6,170.3,153.5,161.7,155.7z"/>
	<path class="st1" d="M179.4,73.3c-2.3,8.6-11.2,13.8-19.9,11.4l-0.6-0.2l-36.5-10.3l32.8-18.9l0.7-0.4c3.7-2.1,8.1-2.6,12.2-1.5
		C176.7,55.8,181.8,64.7,179.4,73.3z"/>
	<path class="st1" d="M116.9,39.7l-0.5,0.5L89.2,66.6V28c0.1-4.2,1.8-8.3,4.8-11.3c6.3-6.3,16.6-6.3,22.9,0
		C123.2,23.1,123.2,33.4,116.9,39.7z"/>
	<polygon class="st1" points="119.5,104.9 104.4,119.7 84,113.9 78.8,93.5 94,78.7 114.3,84.4 	"/>
</g>
</svg>
