<svg xmlns="http://www.w3.org/2000/svg" width="222.728" height="750.306" viewBox="0 0 222.728 750.306"><defs><style>.a{fill:#ffa7b2;}</style></defs><g transform="translate(0 70)"><g transform="translate(0 -70)"><g transform="translate(0 121.313)"><path class="a" d="M1788.36,1601.613a19.462,19.462,0,0,1,10.147-37.577l.776.221,43.858,12.376-39.381,22.735-.783.455a19.4,19.4,0,0,1-14.617,1.791m-3.778,13.892a33.807,33.807,0,0,0,25.534-3.179l.879-.512,68.89-39.77-76.692-21.642-.844-.24a33.858,33.858,0,0,0-17.766,65.343Z" transform="translate(-1759.608 -1548.968)"/></g><g transform="translate(7.453 36.132)"><g transform="translate(0)"><path class="a" d="M1780.093,1525.661a19.461,19.461,0,0,1,37.615-10l.2.781,11.21,44.171-39.378-22.738-.786-.45a19.388,19.388,0,0,1-8.859-11.765m-13.919,3.675a33.8,33.8,0,0,0,15.52,20.522l.883.507,68.887,39.775-19.6-77.239-.214-.85a33.857,33.857,0,0,0-65.472,17.285Z" transform="translate(-1765.044 -1486.837)"/></g></g><g transform="translate(84.959)"><path class="a" d="M1841.733,1480.524A19.461,19.461,0,0,1,1869.2,1508.1l-.578.562-32.648,31.794,0-45.471,0-.9a19.4,19.4,0,0,1,5.758-13.556m-10.142-10.216a33.8,33.8,0,0,0-10.012,23.7l0,1.019,0,79.545,57.089-55.6.63-.61a33.858,33.858,0,0,0-47.706-48.058Z" transform="translate(-1821.578 -1460.481)"/></g><g transform="translate(102.45 49.044)"><path class="a" d="M1925.862,1511.341a19.461,19.461,0,0,1-10.147,37.576l-.775-.219-43.859-12.377,39.38-22.733.783-.455a19.39,19.39,0,0,1,14.619-1.792m3.777-13.892a33.8,33.8,0,0,0-25.533,3.181l-.879.511-68.891,39.771,76.693,21.642.843.238a33.858,33.858,0,0,0,17.766-65.343Z" transform="translate(-1834.336 -1496.255)"/></g><g transform="translate(128.856 98.653)"><path class="a" d="M1924.967,1596.919a19.461,19.461,0,0,1-37.615,10l-.2-.783-11.21-44.171,39.377,22.738.786.451a19.391,19.391,0,0,1,8.86,11.764m13.919-3.676a33.8,33.8,0,0,0-15.521-20.522l-.881-.506L1853.6,1532.44l19.6,77.239.214.85a33.858,33.858,0,0,0,65.472-17.285Z" transform="translate(-1853.597 -1532.44)"/></g><g transform="translate(70.051 123.997)"><path class="a" d="M1858.267,1644.974a19.461,19.461,0,0,1-27.47-27.575l.58-.562,32.647-31.794v45.471l0,.906a19.394,19.394,0,0,1-5.758,13.554m10.143,10.218a33.8,33.8,0,0,0,10.012-23.7l0-1.018,0-79.546-57.09,55.6-.628.612a33.858,33.858,0,0,0,47.705,48.058Z" transform="translate(-1810.703 -1550.926)"/></g><g transform="translate(0 121.313)"><path class="a" d="M1788.36,1601.613a19.462,19.462,0,0,1,10.147-37.577l.776.221,43.858,12.376-39.381,22.735-.783.455a19.4,19.4,0,0,1-14.617,1.791m-3.778,13.892a33.807,33.807,0,0,0,25.534-3.179l.879-.512,68.89-39.77-76.692-21.642-.844-.24a33.858,33.858,0,0,0-17.766,65.343Z" transform="translate(-1759.608 -1548.968)"/></g><g transform="translate(7.453 36.132)"><g transform="translate(0)"><path class="a" d="M1780.093,1525.661a19.461,19.461,0,0,1,37.615-10l.2.781,11.21,44.171-39.378-22.738-.786-.45a19.388,19.388,0,0,1-8.859-11.765m-13.919,3.675a33.8,33.8,0,0,0,15.52,20.522l.883.507,68.887,39.775-19.6-77.239-.214-.85a33.857,33.857,0,0,0-65.472,17.285Z" transform="translate(-1765.044 -1486.837)"/></g></g></g><rect class="a" width="14.396" height="601.327" transform="translate(123.56 78.979)"/></g></svg>