<svg xmlns="http://www.w3.org/2000/svg" width="209.648" height="654.214" viewBox="0 0 209.648 654.214"><defs><style>.a{fill:#ff6933;}</style></defs><rect class="a" width="13.876" height="497.199" transform="translate(82.717 157.015)"/><g transform="translate(0)"><path class="a" d="M2096.968,1489.5l-17.241-70.76-13.474,3.359,15.645,64.211A37.622,37.622,0,0,1,2096.968,1489.5Z" transform="translate(-1977.451 -1418.742)"/><path class="a" d="M2102.631,1498.984l17.4-71.4-13.474-3.359-15.764,64.692A38.473,38.473,0,0,1,2102.631,1498.984Z" transform="translate(-1968.348 -1416.709)"/><path class="a" d="M2090.738,1482.778l-47.4-54.118-10.388,9.307,43.12,49.233A37.621,37.621,0,0,1,2090.738,1482.778Z" transform="translate(-1989.804 -1415.063)"/><path class="a" d="M2105.835,1502.906a38.967,38.967,0,0,1-1.652,12.193l68.844-26.41-4.921-13.125-62.506,23.978C2105.724,1500.651,2105.808,1501.771,2105.835,1502.906Z" transform="translate(-1963.38 -1397.663)"/><path class="a" d="M2106.519,1508.629l48.589-55.476-10.388-9.307-44.033,50.275A38.616,38.616,0,0,1,2106.519,1508.629Z" transform="translate(-1964.678 -1409.43)"/><path class="a" d="M2081.428,1479.66l-66.49-25.507-4.922,13.124,60.7,23.287A38.549,38.549,0,0,1,2081.428,1479.66Z" transform="translate(-1998.313 -1405.606)"/><path class="a" d="M2079.808,1524.709a38.083,38.083,0,0,1-5.866-.312l33.914,65.362,12.288-6.523-31.084-59.907A37.82,37.82,0,0,1,2079.808,1524.709Z" transform="translate(-1974.599 -1379.943)"/><path class="a" d="M2086.756,1524.9l60.452,42.208,7.883-11.552-55.243-38.572A38,38,0,0,1,2086.756,1524.9Z" transform="translate(-1969.845 -1382.296)"/><path class="a" d="M2097.6,1519.279l73.162,8.985,1.672-13.936-66.61-8.181A38.7,38.7,0,0,1,2097.6,1519.279Z" transform="translate(-1965.823 -1386.317)"/><path class="a" d="M2072,1483.065l-70.521,8.662,1.673,13.934,64.6-7.934A38.642,38.642,0,0,1,2072,1483.065Z" transform="translate(-2001.48 -1394.88)"/><path class="a" d="M2061.814,1519.405v73.215h13.878v-67.242A37.758,37.758,0,0,1,2061.814,1519.405Z" transform="translate(-1979.098 -1381.399)"/><path class="a" d="M2062.051,1509.5l-33.349,64.277,12.286,6.523,30.654-59.079A38.65,38.65,0,0,1,2062.051,1509.5Z" transform="translate(-1991.381 -1385.073)"/><path class="a" d="M2065.6,1497.024c0-.21,0-.416,0-.626l-58.67,40.964,7.884,11.552,53.861-37.606A38.86,38.86,0,0,1,2065.6,1497.024Z" transform="translate(-1999.459 -1389.934)"/></g></svg>