<?xml version="1.0" encoding="utf-8"?>
<!-- Generator: Adobe Illustrator 25.2.0, SVG Export Plug-In . SVG Version: 6.00 Build 0)  -->
<svg version="1.1" id="Layer_1" xmlns="http://www.w3.org/2000/svg" xmlns:xlink="http://www.w3.org/1999/xlink" x="0px" y="0px"
	 viewBox="0 0 206.8 206.8" style="enable-background:new 0 0 206.8 206.8;" xml:space="preserve">
<style type="text/css">
	.st0{fill:#3D9EE2;}
	.st1{fill:#A9D6E6;}
</style>
<g id="flower">
	<g transform="translate(0)">
		<g transform="translate(73.612)">
			<path class="st0" d="M7.3,33.8c-3.5,6.1-5.7,12.6-6.7,19.1c-2.8,18.9,4.5,38.3,19.9,50.5c2.1,1.7,4.3,3.2,6.7,4.5l2.6-4.5l0,0
				l0,0l2.6-4.5l2-3.5l24.5-42.5l22.5-39C55.5-1.1,22.3,7.8,7.3,33.8z M23.4,87.9C11.9,74.7,10,55.6,18.8,40.4S45,17.3,62.2,20.6
				L23.4,87.9z"/>
		</g>
		<g transform="translate(98.161 42.515)">
			<path class="st0" d="M54.3,6.6c-7,0-13.8,1.3-19.9,3.8c-17.8,7-30.9,23.1-33.8,42.5l0,0c-0.4,2.6-0.6,5.3-0.6,8l0,0h108.6
				C108.6,30.9,84.3,6.6,54.3,6.6z M15.5,47.6C21.2,31,36.8,19.9,54.3,19.8c17.5,0,33.1,11.2,38.8,27.8H15.5z"/>
		</g>
		<g transform="translate(100.77 85.011)">
			<path class="st0" d="M74.2,33.8c-3.5-6.1-8-11.2-13.2-15.3C46,6.5,25.5,3.1,7.2,10.4c-2.4,1-4.8,2.1-7.2,3.5l2.6,4.5l0,0l0,0
				l2.6,4.5l2,3.5l24.5,42.5l22.5,39C80.3,92.9,89.2,59.7,74.2,33.8z M58.1,87.9L19.2,20.6c17.2-3.4,34.7,4.6,43.5,19.8
				C71.4,55.6,69.6,74.7,58.1,87.9z"/>
		</g>
		<g transform="translate(51.688 92.295)">
			<path class="st0" d="M60.9,11.1c-2.1-1.7-4.3-3.2-6.6-4.5l-2.6,4.5l0,0l0,0l-2.6,4.5l-2,3.5L22.5,61.6L0,100.6
				c15.6,9,33.8,9.4,49.1,2.6c4.4-1.9,8.6-4.5,12.4-7.6c5-4,9.3-9.1,12.7-14.9l0,0c3.5-6.1,5.7-12.6,6.7-19.1
				C83.7,42.8,76.3,23.3,60.9,11.1z M62.7,74.1c-8.8,15.2-26.2,23.1-43.5,19.8l38.9-67.3C69.6,39.9,71.4,58.9,62.7,74.1z"/>
		</g>
		<g transform="translate(0 96.812)">
			<path class="st0" d="M0,6.6c0,30,24.3,54.3,54.3,54.3c7,0,13.8-1.3,19.9-3.8C92,50.1,105.1,34,108,14.6l0,0
				c0.4-2.6,0.6-5.3,0.6-8l0,0H0z M54.3,47.6c-17.5,0-33.1-11.2-38.8-27.8h77.7C87.4,36.5,71.8,47.6,54.3,47.6z"/>
		</g>
		<g transform="translate(24.531 7.284)">
			<path class="st0" d="M78.9,96.1L78.9,96.1L78.9,96.1l-2.7-4.5l-2-3.5L49.7,45.6l-22.5-39c-26,15-34.9,48.2-19.9,74.2l0,0
				c3.5,6.1,8,11.2,13.2,15.3c14.9,11.9,35.5,15.2,53.7,8c2.5-1,4.9-2.1,7.2-3.5L78.9,96.1z M18.8,74.1c-8.8-15.2-6.9-34.2,4.6-47.5
				l38.8,67.2C45,97.2,27.6,89.3,18.8,74.1z"/>
		</g>
	</g>
	<path class="st1" d="M86.8,101.2c-17.3,3.3-34.7-4.6-43.5-19.8s-6.9-34.3,4.6-47.5L86.8,101.2z"/>
	<path class="st1" d="M93.1,116.7c-5.7,16.6-21.3,27.7-38.8,27.8c-17.5,0-33.1-11.2-38.8-27.8C15.5,116.7,93.1,116.7,93.1,116.7z"/>
	<path class="st1" d="M114.4,166.4c-8.8,15.2-26.2,23.1-43.5,19.8l38.8-67.2C121.3,132.1,123.1,151.2,114.4,166.4z"/>
	<path class="st1" d="M158.8,172.9L120,105.6c17.2-3.4,34.7,4.6,43.5,19.8C172.2,140.6,170.3,159.7,158.8,172.9z"/>
	<path class="st1" d="M191.3,90.1h-77.7c5.7-16.6,21.3-27.7,38.8-27.8C170,62.4,185.6,73.6,191.3,90.1z"/>
	<path class="st1" d="M135.8,20.6L97,87.9c-11.5-13.2-13.4-32.3-4.6-47.5S118.6,17.3,135.8,20.6z"/>
</g>
</svg>
