<svg id="dt_ps_iconfeature1_" xmlns="http://www.w3.org/2000/svg" width="61.895" height="48" viewBox="0 0 61.895 48">
  <ellipse id="Ellipse_5" data-name="Ellipse 5" cx="0.949" cy="0.949" rx="0.949" ry="0.949" transform="translate(9.173 22.557)" fill="#323232"/>
  <path id="Path_111" data-name="Path 111" d="M3.311,50.1A2.357,2.357,0,0,1,1,47.691V23.385A2.348,2.348,0,0,1,3.288,21H18.933a2.357,2.357,0,0,1,2.31,2.408V47.715A2.348,2.348,0,0,1,18.955,50.1Zm15.4-2.367ZM3.53,47.712Zm0-24.181V47.569H18.713V23.53Zm15.182-.146ZM3.53,23.363Z" transform="translate(-1 -2.099)" fill="#323232"/>
  <path id="Path_112" data-name="Path 112" d="M60.405,41.428H24.472a1.265,1.265,0,0,1,0-2.53H59.838V8.53H5.526V19.917a1.263,1.263,0,1,1-2.526,0V7.962A1.963,1.963,0,0,1,4.959,6H60.408a1.965,1.965,0,0,1,1.956,1.962v31.5A1.963,1.963,0,0,1,60.405,41.428Z" transform="translate(-0.469 -6)" fill="#323232"/>
  <path id="Path_113" data-name="Path 113" d="M38.421,46.335H19.938a.949.949,0,0,1-.949-.949V42.677a.949.949,0,0,1,.753-.929l4-.845a2.352,2.352,0,0,0,1.854-2.287V36.145a.949.949,0,1,1,1.9,0v2.472A4.26,4.26,0,0,1,24.13,42.76l-3.244.686v.991H37.472v-1l-3.243-.686a4.264,4.264,0,0,1-3.359-4.128V36.145a.949.949,0,1,1,1.9,0v2.472a2.354,2.354,0,0,0,1.855,2.276l4,.844a.949.949,0,0,1,.752.929v2.72a.949.949,0,0,1-.949.949Z" transform="translate(3.717 1.665)" fill="#323232"/>
  <path id="Path_114" data-name="Path 114" d="M20.173,13.629c0-.092.2-.159.311-.159.892-.044,2.2-.068,3.573-.068,3.841,0,5.337,2.1,5.337,4.787,0,3.51-2.553,5.015-5.686,5.015-.526,0-.708-.023-1.074-.023v5.314c0,.113-.047.159-.162.159H20.335c-.115,0-.162-.047-.162-.159Zm2.461,7.338c.319.023.571.023,1.12.023,1.623,0,3.147-.569,3.147-2.757,0-1.756-1.089-2.644-2.94-2.644-.549,0-1.074.023-1.326.044Zm11.924-1.645c-1.1,0-1.464.547-1.464,1,0,.506.253.844,1.716,1.6,2.17,1.048,2.856,2.051,2.856,3.532,0,2.213-1.689,3.4-3.976,3.4a6.073,6.073,0,0,1-2.838-.593c-.092-.047-.115-.113-.115-.228V26c0-.137.068-.183.162-.115a5.143,5.143,0,0,0,2.783.821c1.1,0,1.556-.457,1.556-1.072,0-.506-.321-.935-1.716-1.661-1.966-.936-2.783-1.9-2.783-3.488,0-1.779,1.392-3.26,3.817-3.26a6.444,6.444,0,0,1,2.486.387.3.3,0,0,1,.137.277v1.891c0,.115-.068.186-.206.137a4.976,4.976,0,0,0-2.414-.591Z" transform="translate(4.031 -4.059)" fill="#323232" fill-rule="evenodd"/>
  <path id="Path_115" data-name="Path 115" d="M4.83,28.634c0-.055.115-.094.177-.094.532-.027,1.3-.041,2.111-.041,2.269,0,3.155,1.242,3.155,2.83,0,2.074-1.508,2.965-3.36,2.965-.31,0-.419-.012-.635-.012v3.137c0,.067-.027.094-.1.094H4.919c-.067,0-.1-.027-.1-.094Zm1.455,4.338c.188.012.337.012.662.012.96,0,1.859-.337,1.859-1.629,0-1.038-.644-1.563-1.739-1.563-.325,0-.635.012-.784.027ZM13.332,32c-.649,0-.864.323-.864.593s.149.5,1.013.944c1.283.619,1.687,1.212,1.687,2.088,0,1.308-1,2.008-2.349,2.008a3.587,3.587,0,0,1-1.677-.355c-.055-.027-.067-.067-.067-.135v-1.2c0-.082.041-.108.1-.067a3.039,3.039,0,0,0,1.648.486c.649,0,.919-.27.919-.633,0-.3-.19-.552-1.013-.981-1.162-.554-1.646-1.12-1.646-2.062a2.008,2.008,0,0,1,2.074-1.941q.091,0,.181.014a3.807,3.807,0,0,1,1.469.229.177.177,0,0,1,.082.163v1.118c0,.067-.041.11-.122.082A2.94,2.94,0,0,0,13.332,32Z" transform="translate(0.014 -0.09)" fill="#323232" fill-rule="evenodd"/>
</svg>
