<svg xmlns="http://www.w3.org/2000/svg" width="56.477" height="50.551" viewBox="0 0 56.477 50.551">
  <g id="Group_159002" data-name="Group 159002" transform="translate(-274.579 -392.564)">
    <path id="Path_7642" data-name="Path 7642" d="M318.738,430.137h-5.607a.287.287,0,0,1-.287-.287v-2.9a.289.289,0,0,1,.287-.289h5.421c7.245,0,11.307-5.654,8.167-12.185a7.431,7.431,0,0,0-6.79-4.314h-1.923l.193-1.913a11.158,11.158,0,0,0-21.838-4.11l-.421,1.535-1.565-.283a8.263,8.263,0,0,0-9.735,8.121c0,.217.009.433.024.645l.143,1.871h-1.876a4.853,4.853,0,0,0-4.858,4.788,5.553,5.553,0,0,0,5.616,5.8l7.791.009a.287.287,0,0,1,.287.287l0,2.9a.289.289,0,0,1-.289.289l-8.1-.009a8.814,8.814,0,0,1-8.8-8.8,8.439,8.439,0,0,1,6.416-8.527.268.268,0,0,0,.21-.24,11.821,11.821,0,0,1,12.086-10.74.27.27,0,0,0,.261-.169,14.648,14.648,0,0,1,28.174,4.981.271.271,0,0,0,.226.259,11.154,11.154,0,0,1,9.066,10.443A12.074,12.074,0,0,1,318.738,430.137Z" transform="translate(0 0)" fill="#323232"/>
    <path id="Path_7643" data-name="Path 7643" d="M293.565,402.341a.257.257,0,0,0-.414,0l-5.52,6.708a1.093,1.093,0,0,0-.247.706.937.937,0,0,0,.833,1.015h3.37v23.94a1.168,1.168,0,0,0,1.05,1.259h1.443a1.169,1.169,0,0,0,1.052-1.259v-23.94h3.361a.937.937,0,0,0,.841-1.008v-.007a1.1,1.1,0,0,0-.249-.706Z" transform="translate(9.459 7.145)" fill="#323232"/>
  </g>
</svg>
