<svg xmlns="http://www.w3.org/2000/svg" width="50.187" height="48.025" viewBox="0 0 50.187 48.025">
  <g id="Group_159000" data-name="Group 159000" transform="translate(-158 -340.378)">
    <g id="be_appicon_RGB_rev" transform="translate(158 340.378)">
      <g id="Group_2" data-name="Group 2">
        <path id="Path_1" data-name="Path 1" d="M0,0V48.025H50.187V0ZM2.091,2.052H48.1v43.92H2.091Z" fill="#323232" fill-rule="evenodd"/>
      </g>
      <path id="Path_2" data-name="Path 2" d="M26.132,42.962V35.9H28.42a7.378,7.378,0,0,1,2.032.27,3.2,3.2,0,0,1,2.514,3.261c0,2.569-2.15,3.583-4.87,3.583C27.338,43.012,26.752,43,26.132,42.962Zm0-10.29V26.79c.551-.034,1.323-.07,2.15-.07,2.445,0,3.857,1.048,3.857,3.143a3.665,3.665,0,0,1-1.309,2.976,16.719,16.719,0,0,0-2.617-.169H26.132Zm-3.7-8.79v21.97a.259.259,0,0,0,.241.27c1.1.034,3.1.068,5.372.068,5.3.034,8.782-2.569,8.782-6.827a5.65,5.65,0,0,0-3.168-5.374,5.669,5.669,0,0,0,2.135-4.631c0-2.2-1.137-5.847-7.507-5.847-2.1,0-4.718.068-5.682.1C22.462,23.645,22.428,23.712,22.428,23.881ZM47.083,35.744h-4.2c.207-1.825,1.068-3.548,3.065-3.548,2.17,0,2.721,2.028,2.721,3.143,0,.1-.035.236-.035.371A11.5,11.5,0,0,1,47.083,35.744Zm-4.236,2.817h5.441a28.983,28.983,0,0,0,3.478-.146.293.293,0,0,0,.275-.27,9.967,9.967,0,0,0,.172-2.163c0-3.042-1.584-6.794-6.13-6.794-4.477,0-7.025,3.954-7.025,8.788,0,4.461,2.066,8.45,7.576,8.45a9.389,9.389,0,0,0,4.18-.777.44.44,0,0,0,.207-.406V42.674c0-.169-.1-.2-.241-.135a8.176,8.176,0,0,1-3.388.652C44.224,43.191,42.881,41.332,42.847,38.561Z" transform="translate(-11.809 -12.585)" fill="#323232" fill-rule="evenodd"/>
    </g>
  </g>
</svg>
