<?xml version="1.0" standalone="no"?>
<!DOCTYPE svg PUBLIC "-//W3C//DTD SVG 1.1//EN" "http://www.w3.org/Graphics/SVG/1.1/DTD/svg11.dtd" >
<svg xmlns="http://www.w3.org/2000/svg" xmlns:xlink="http://www.w3.org/1999/xlink" version="1.1">
<metadata>
Created by FontForge 20190801 at Thu Oct 27 12:07:20 2016
 By Jimmy Wärting
Copyright 2009 Adobe Systems Incorporated. All rights reserved.
</metadata>
<defs>
<font id="AdobeCleanSerif-Black" horiz-adv-x="400" >
  <font-face 
    font-family="Adobe Clean Serif"
    font-weight="900"
    font-stretch="normal"
    units-per-em="1000"
    panose-1="2 10 8 3 5 5 6 2 8 4"
    ascent="682"
    descent="-318"
    x-height="461"
    cap-height="648"
    bbox="-182 -279 1212 975"
    underline-thickness="50"
    underline-position="-100"
    stemh="53"
    stemv="143"
    unicode-range="U+0020-FB04"
  />
<missing-glyph horiz-adv-x="500" 
d="M0 0v700h500v-700h-500zM80 50h340l-170 255zM279 350l171 -255v510zM50 605v-510l170 255zM80 650l170 -255l170 255h-340z" />
    <glyph glyph-name="f_b" unicode="fb" horiz-adv-x="877" 
d="M524 398v-342c14 -8 35 -13 56 -13c58 0 117 55 117 188c0 106 -34 176 -120 176c-21 0 -41 -4 -53 -9zM381 16v606c-24 35 -55 46 -82 46c-52 0 -75 -45 -75 -127c0 -13 0 -72 1 -80h95v-53c-22 -3 -64 -8 -95 -8v-337c16 -3 56 -7 72 -10v-53h-270v53c21 5 44 8 55 10
v337c-18 1 -57 6 -69 8v53h69c1 91 32 142 56 172c50 61 117 86 191 86c41 0 77 -6 102 -14l99 14l-7 -58v-220c58 26 102 32 125 32c111 0 199 -92 199 -217c0 -182 -161 -268 -282 -268c-66 0 -144 16 -184 28z" />
    <glyph glyph-name="f_f" unicode="ff" horiz-adv-x="632" 
d="M534 461h89v-53c-21 -2 -57 -5 -88 -5v-341c18 -2 49 -6 73 -9v-53h-271v53c28 5 42 8 54 9v341h-166v-341c18 -2 41 -6 60 -9v-53h-258v53c28 5 42 8 55 9v341c-26 1 -53 3 -65 5v53h65v3c0 58 19 115 43 150c36 55 107 105 203 105c17 0 50 -1 66 -6v-100h-84
c-6 5 -17 32 -26 48c-51 2 -62 -52 -62 -99c0 -36 2 -82 2 -101h167c1 63 18 125 61 175c41 50 108 83 186 83c28 0 62 -3 79 -9v-102h-85c-6 9 -21 34 -29 55c-32 1 -71 -18 -71 -105c0 -65 2 -83 2 -97z" />
    <glyph glyph-name="f_h" unicode="fh" horiz-adv-x="890" 
d="M297 0h-270v53c21 5 44 8 55 10v337c-18 1 -57 6 -69 8v53h69c0 89 34 144 58 174c50 60 118 84 191 84c43 0 77 -7 101 -15l98 15l-6 -58v-242c59 41 103 54 140 54c108 0 148 -83 148 -168v-244c16 -2 36 -5 50 -8v-53h-243v53c17 3 36 7 50 9v254c0 38 -17 80 -77 80
c-23 0 -50 -9 -68 -20v-316c11 -1 31 -4 48 -7v-53h-241v53c18 3 33 6 50 9v560c-24 35 -53 46 -82 46c-52 0 -76 -47 -75 -127l1 -80h95v-53c-22 -3 -64 -8 -95 -8v-337c16 -3 56 -7 72 -10v-53z" />
    <glyph glyph-name="f_i" unicode="fi" horiz-adv-x="598" 
d="M225 461h177c57 0 111 2 123 3v-404c14 -1 30 -5 45 -8v-52h-243v53c19 3 45 6 54 8v342h-156v-340c15 -2 37 -6 57 -10v-53h-255v53c26 5 41 8 55 10v340c-22 1 -53 3 -65 4v54h65c0 52 18 118 60 168c43 50 106 90 218 90c67 0 116 -14 137 -21v-109h-99
c-5 9 -21 50 -29 73c-4 2 -15 8 -43 8c-51 0 -101 -48 -101 -163v-46z" />
    <glyph glyph-name="f_j" unicode="fj" horiz-adv-x="594" 
d="M225 461h177c57 1 111 2 123 3v-392c0 -100 -71 -217 -171 -311l-42 30c64 95 69 137 69 212v400h-156v-340c15 -2 37 -6 57 -10v-53h-255v53c26 5 41 8 55 10v340c-22 1 -53 3 -65 4v54h65c0 61 15 118 58 168c42 50 105 90 216 90c70 0 115 -14 137 -21v-109h-93
c-7 9 -21 50 -30 73c-4 2 -17 8 -45 8c-40 0 -100 -33 -100 -148v-61z" />
    <glyph glyph-name="f_k" unicode="fk" horiz-adv-x="844" 
d="M832 461v-53c-17 -4 -42 -7 -58 -8c-45 -43 -85 -79 -125 -111c49 -81 129 -186 159 -217c6 -7 13 -10 24 -13c8 -2 16 -3 36 -6v-53h-118c-48 0 -70 17 -92 46c-28 35 -76 110 -110 171l-24 -15v-142c18 -2 41 -5 56 -8v-52h-249v53c15 3 35 6 50 7v562
c-24 35 -53 46 -82 46c-52 0 -76 -50 -75 -119l1 -88h95v-53c-22 -3 -64 -8 -95 -8v-337c16 -3 56 -7 72 -10v-53h-270v53c21 5 44 8 55 10v337c-18 1 -57 6 -69 8v53h69c2 95 34 144 58 174c50 60 118 84 192 84c42 0 76 -7 100 -15l98 15l-6 -58v-411
c55 35 144 116 173 150c-29 3 -58 5 -77 8v53h212z" />
    <glyph glyph-name="f_l" unicode="fl" horiz-adv-x="600" 
d="M297 0h-270v53c21 5 44 8 55 10v337c-18 1 -53 6 -65 8v53h65c2 95 34 144 58 174c50 60 115 84 188 84c49 0 78 -7 104 -15l98 15l-6 -58v-601c20 -2 35 -5 49 -8v-52h-242v53c14 2 33 6 50 8v561c-24 35 -53 46 -82 46c-52 0 -76 -51 -75 -121l1 -86h88v-53
c-21 -3 -57 -8 -88 -8v-337c16 -3 56 -7 72 -10v-53z" />
    <glyph glyph-name="f_t" unicode="ft" horiz-adv-x="643" 
d="M224 461h162c10 31 41 92 64 129h93c-7 -35 -15 -114 -15 -129h107v-53c-21 -3 -80 -8 -110 -8v-300c0 -24 10 -44 53 -44c16 0 32 4 52 12v-48c-44 -25 -81 -32 -116 -32c-82 0 -133 36 -133 141v274h-156v-341c18 -2 49 -6 74 -9v-53h-272v53c28 5 42 8 55 9v338
c-17 1 -57 5 -69 8v53h69v6c0 65 19 122 44 157c36 52 95 95 182 95c28 0 52 -3 68 -9v-97h-76c-6 5 -22 36 -30 53h-4c-26 0 -47 -23 -47 -73c0 -35 5 -113 5 -132z" />
    <glyph glyph-name="f_f_b" unicode="ffb" horiz-adv-x="1178" 
d="M824 398v-342c15 -8 36 -13 57 -13c58 0 117 55 117 188c0 106 -35 176 -120 176c-21 0 -41 -4 -54 -9zM224 461h157c0 58 16 104 37 138c-20 39 -51 63 -90 63c-65 0 -104 -57 -104 -150v-51zM824 661v-220c58 26 101 32 124 32c112 0 200 -92 200 -217
c0 -182 -161 -268 -282 -268c-67 0 -144 16 -185 28v607c-11 27 -39 46 -75 46c-58 0 -82 -48 -82 -132v-76h92v-53c-21 -2 -60 -5 -91 -5v-341c18 -2 51 -6 71 -9v-53h-272v53c28 5 45 8 57 9v341h-156v-341c18 -2 44 -6 60 -9v-53h-258v53c28 5 42 8 55 9v341
c-26 1 -57 3 -69 5v53h69c3 77 25 123 54 159c34 42 101 90 204 90c87 0 130 -17 153 -33c39 27 86 42 139 42c47 0 77 -5 102 -13l96 13z" />
    <glyph glyph-name="f_f_h" unicode="ffh" horiz-adv-x="1190" 
d="M224 461h157c0 58 16 104 37 138c-20 39 -51 63 -90 63c-65 0 -104 -57 -104 -150v-51zM1113 305v-244c16 -2 35 -5 50 -8v-53h-243v53c17 3 35 7 50 9v254c0 38 -17 80 -77 80c-23 0 -51 -9 -69 -20v-316c12 -1 31 -4 49 -7v-53h-242v53c18 3 34 6 50 9v561
c-11 27 -39 46 -75 46c-58 0 -82 -48 -82 -132v-76h92v-53c-21 -2 -60 -5 -91 -5v-341c18 -2 51 -6 71 -9v-53h-272v53c28 5 45 8 57 9v341h-156v-341c18 -2 44 -6 60 -9v-53h-258v53c28 5 42 8 55 9v341c-26 1 -57 3 -69 5v53h69c3 77 25 123 54 159c34 42 101 90 204 90
c87 0 130 -17 153 -33c39 27 86 42 139 42c47 0 77 -5 102 -13l96 13l-6 -58v-242c59 41 103 54 141 54c108 0 148 -83 148 -168z" />
    <glyph glyph-name="f_f_i" unicode="ffi" horiz-adv-x="902" 
d="M224 461h157c0 50 10 97 37 140c-20 37 -51 61 -90 61c-64 0 -104 -57 -104 -150v-51zM825 464v-404c14 -1 31 -5 47 -8v-52h-245v53c19 4 45 7 55 9v341h-157v-341c18 -2 39 -6 58 -9v-53h-259v53c28 5 45 8 57 9v341h-156v-341c18 -2 44 -6 60 -9v-53h-258v53
c28 5 42 8 55 9v341c-26 1 -57 3 -69 5v53h69c3 77 26 122 55 158c34 42 101 91 204 91c85 0 129 -16 151 -33c39 25 91 42 163 42c76 0 113 -14 137 -21v-109h-93c-7 9 -21 48 -30 71c-4 2 -18 10 -46 10c-39 0 -99 -33 -99 -148v-61h179c57 0 111 2 122 3z" />
    <glyph glyph-name="f_f_j" unicode="ffj" horiz-adv-x="895" 
d="M224 461h157c0 49 10 95 35 137c-19 39 -48 64 -96 64c-65 0 -96 -56 -96 -149v-52zM525 461h178c57 1 111 2 122 3v-394c0 -123 -76 -226 -186 -308l-39 36c78 79 83 131 82 205v400h-158v-341c19 -2 40 -6 58 -9v-53h-258v53c28 5 45 8 57 9v341h-157v-341
c19 -2 45 -6 61 -9v-53h-258v53c28 5 42 8 54 9v341c-25 1 -52 3 -64 5v53h65c4 77 28 123 57 160c33 42 101 89 203 89c79 0 127 -17 150 -33c39 25 91 42 163 42c76 0 113 -14 137 -21v-109h-93c-7 9 -21 48 -30 71c-4 2 -18 10 -46 10c-39 0 -98 -33 -98 -148v-61z" />
    <glyph glyph-name="f_f_k" unicode="ffk" horiz-adv-x="1145" 
d="M224 461h157c0 58 16 104 37 138c-20 39 -51 63 -90 63c-65 0 -104 -57 -104 -150v-51zM1132 461v-53c-16 -4 -41 -7 -57 -8c-45 -43 -86 -80 -126 -112c50 -80 130 -185 160 -216c6 -7 13 -10 24 -13c8 -2 16 -3 35 -6v-53h-117c-48 0 -70 17 -93 46
c-27 34 -75 110 -109 170c-9 -5 -17 -10 -25 -15v-141c19 -2 41 -5 56 -8v-52h-249v53c16 3 36 6 50 7v563c-11 27 -39 46 -75 46c-58 0 -82 -48 -82 -132v-76h92v-53c-21 -2 -60 -5 -91 -5v-341c18 -2 51 -6 71 -9v-53h-272v53c28 5 45 8 57 9v341h-156v-341
c18 -2 44 -6 60 -9v-53h-258v53c28 5 42 8 55 9v341c-26 1 -57 3 -69 5v53h69c3 77 25 123 54 159c34 42 101 90 204 90c87 0 130 -17 153 -33c39 27 86 42 139 42c47 0 77 -5 102 -13l96 13l-6 -58v-410c56 36 145 115 174 149c-29 3 -59 5 -77 8v53h211z" />
    <glyph glyph-name="f_f_l" unicode="ffl" horiz-adv-x="901" 
d="M224 461h157c0 58 16 104 37 138c-20 39 -51 63 -90 63c-65 0 -104 -57 -104 -150v-51zM824 661v-601c19 -2 35 -5 50 -8v-52h-243v53c16 3 36 6 50 7v563c-11 27 -39 46 -75 46c-58 0 -82 -48 -82 -132v-76h92v-53c-21 -2 -60 -5 -91 -5v-341c18 -2 51 -6 71 -9v-53
h-272v53c28 5 45 8 57 9v341h-156v-341c18 -2 44 -6 60 -9v-53h-258v53c28 5 42 8 55 9v341c-26 1 -57 3 -69 5v53h69c3 77 25 123 54 159c34 42 101 90 204 90c87 0 130 -17 153 -33c39 27 86 42 139 42c47 0 77 -5 102 -13l96 13z" />
    <glyph glyph-name="f_f_t" unicode="fft" horiz-adv-x="955" 
d="M534 461h162c7 22 44 95 64 129h93c-7 -35 -15 -114 -15 -129h108v-53c-19 -2 -72 -5 -111 -5v-303c0 -24 10 -44 53 -44c17 0 32 4 53 12v-48c-45 -25 -82 -32 -117 -32c-82 0 -132 36 -132 142v273h-157v-341c18 -2 49 -6 73 -9v-53h-271v53c20 4 42 8 54 9v341h-166
v-341c18 -2 45 -6 60 -9v-53h-258v53c28 5 42 8 55 9v341c-26 1 -53 3 -65 5v53l65 1c0 58 19 117 43 152c36 55 107 105 203 105c17 0 50 -1 66 -6v-100h-84c-6 5 -17 32 -26 48c-51 2 -62 -52 -62 -99c0 -36 2 -82 2 -101h167v3c0 58 19 115 43 150c37 55 108 105 204 105
c17 0 50 -1 66 -6v-100h-84c-6 5 -17 32 -26 48c-51 2 -62 -52 -62 -99c0 -36 2 -82 2 -101z" />
    <glyph glyph-name="gamma_gamma" unicode="&#x3b3;&#x3b3;" horiz-adv-x="991" 
d="M-15 385v44c40 24 86 44 139 44c66 0 88 -41 114 -104c44 -110 66 -235 71 -282c25 65 53 130 99 232c43 97 94 154 165 154c73 0 102 -44 129 -119c42 -111 75 -227 81 -273c47 88 69 176 69 237c0 35 -10 84 -21 131c32 15 103 25 117 24c13 0 15 -35 15 -56
c0 -131 -126 -317 -157 -392c-6 -12 -6 -19 -6 -28c1 -50 8 -196 11 -230h-162c8 31 26 151 42 219c2 12 4 29 3 33c-10 50 -51 163 -122 290c-20 35 -36 54 -55 54c-17 0 -32 -21 -56 -64c-35 -66 -93 -182 -130 -274c-6 -12 -6 -19 -6 -28c1 -50 12 -196 15 -230h-161
c8 31 35 151 51 219c2 12 4 29 3 33c-10 53 -65 193 -152 321c-26 40 -51 48 -70 48c-7 0 -16 -2 -26 -3z" />
    <glyph glyph-name="lambda_lambda" unicode="&#x3bb;&#x3bb;" horiz-adv-x="958" 
d="M166 0h-158c24 51 138 332 191 434c17 37 36 53 40 60c-17 44 -58 117 -137 117c-38 0 -74 -12 -102 -26v44c21 37 71 90 134 90c73 0 105 -54 156 -190c54 -138 151 -399 178 -456c44 99 126 278 168 361c18 36 37 52 41 59c-13 36 -58 118 -137 118
c-39 0 -78 -9 -106 -19v44c21 33 78 83 140 83c50 0 100 -38 154 -190c55 -155 138 -393 162 -441c11 -23 31 -28 46 -28c18 0 33 2 41 3v-40c-16 -19 -50 -38 -88 -35c-50 0 -70 40 -83 81c-20 65 -70 239 -79 269c-34 -96 -105 -254 -137 -338h-182
c-20 65 -107 313 -116 344c-34 -96 -99 -272 -126 -344z" />
    <glyph glyph-name=".notdef" horiz-adv-x="500" 
d="M0 0v700h500v-700h-500zM80 50h340l-170 255zM279 350l171 -255v510zM50 605v-510l170 255zM80 650l170 -255l170 255h-340z" />
    <glyph glyph-name="space" unicode=" " horiz-adv-x="241" 
 />
    <glyph glyph-name="exclam" unicode="!" horiz-adv-x="371" 
d="M250 244h-71c-19 90 -60 296 -61 334v70c17 5 58 7 96 7c35 0 74 -2 95 -7l-1 -72c0 -33 -39 -243 -58 -332zM214 -12c-40 0 -94 28 -94 90c0 50 38 94 95 94s92 -44 92 -94c0 -62 -53 -90 -93 -90z" />
    <glyph glyph-name="quotedbl" unicode="&#x22;" horiz-adv-x="496" 
d="M174 392h-67l-38 308h146zM385 392h-66l-38 308h146z" />
    <glyph glyph-name="numbersign" unicode="#" horiz-adv-x="520" 
d="M453 274l-25 -105h-94l-33 -142h-63l34 142h-105l-35 -142h-64l36 142h-91l28 105h91l26 106h-98l26 105h95l31 128h62l-32 -128h104l31 128h61l-30 -128h93l-27 -105h-89l-25 -106h93zM322 380h-104l-24 -106h103z" />
    <glyph glyph-name="dollar" unicode="$" horiz-adv-x="529" 
d="M280 230l-14 -181c50 7 90 36 90 86c0 37 -10 66 -76 95zM243 402l13 180c-56 -8 -87 -43 -87 -89c0 -32 10 -62 74 -91zM306 582l-15 -198c154 -51 198 -114 198 -200c0 -110 -95 -178 -227 -184l-7 -93h-50l7 94c-64 6 -124 25 -155 33c-4 20 -14 101 -18 127h72
c6 -8 37 -68 52 -98c10 -7 29 -11 53 -14l15 199c-147 53 -182 119 -182 199c0 83 56 169 211 179l6 85h50l-6 -84c57 -3 124 -14 148 -17v-123h-63c-5 5 -27 54 -37 82c-11 6 -26 11 -52 13z" />
    <glyph glyph-name="percent" unicode="%" horiz-adv-x="830" 
d="M656 618l-443 -651l-40 30l445 651zM213 634c82 0 154 -59 154 -173c0 -105 -67 -174 -159 -174c-109 0 -163 76 -163 169c0 101 57 178 168 178zM207 598c-49 0 -56 -67 -56 -140c0 -85 18 -135 58 -135c35 0 53 38 53 134c0 103 -21 141 -55 141zM630 336
c82 0 155 -53 155 -173c0 -104 -67 -175 -160 -175c-107 0 -163 77 -163 170c0 95 57 178 168 178zM622 299c-47 0 -54 -66 -54 -139c0 -85 18 -134 58 -134c36 0 53 36 53 134c0 102 -22 139 -57 139z" />
    <glyph glyph-name="ampersand" unicode="&#x26;" horiz-adv-x="812" 
d="M329 402c54 40 65 86 65 122c0 57 -30 91 -69 91s-66 -30 -66 -77c0 -42 24 -85 70 -136zM226 304c-21 -22 -34 -50 -34 -98c0 -86 56 -139 126 -139c27 0 66 5 97 26c-61 59 -158 166 -189 211zM512 394h220v-50c-26 -6 -52 -9 -77 -13c-36 -68 -81 -139 -104 -168
c69 -67 109 -89 145 -89c20 0 38 4 55 8v-46c-41 -30 -109 -49 -149 -49c-62 0 -104 27 -152 68c-50 -44 -112 -68 -181 -68c-135 0 -214 83 -214 183c0 91 55 123 142 175c-36 51 -54 96 -54 147c0 81 59 166 186 166c110 0 169 -65 169 -137c0 -76 -46 -106 -143 -156
c34 -42 114 -124 161 -165c25 37 57 100 67 133c-15 3 -46 4 -71 10v51z" />
    <glyph glyph-name="quoteright" unicode="&#x2019;" horiz-adv-x="293" 
d="M124 399l-70 -14l-6 8c36 52 62 134 62 185c0 48 -4 66 -10 95l124 36c4 -18 6 -43 6 -54c0 -116 -59 -212 -106 -256z" />
    <glyph glyph-name="parenleft" unicode="(" horiz-adv-x="436" 
d="M345 764l30 -35c-108 -127 -141 -279 -141 -437c0 -156 26 -311 141 -437l-30 -38c-168 108 -252 273 -252 475c0 186 93 351 252 472z" />
    <glyph glyph-name="parenright" unicode=")" horiz-adv-x="436" 
d="M61 726l30 38c167 -108 251 -273 251 -475c0 -186 -93 -351 -251 -472l-30 35c108 127 140 279 140 437c0 163 -25 311 -140 437z" />
    <glyph glyph-name="asterisk" unicode="*" horiz-adv-x="424" 
d="M126 635l78 -124c6 39 12 117 14 147l91 -27c-18 -29 -51 -88 -70 -130l122 73l24 -93l-135 -7l119 -72l-68 -78l-74 125l-6 -144l-100 29l73 124l-124 -73l-29 101l140 1l-122 69z" />
    <glyph glyph-name="plus" unicode="+" horiz-adv-x="654" 
d="M287 310v220h84v-220h213v-84h-213v-226h-84v226h-216v84h216z" />
    <glyph glyph-name="comma" unicode="," horiz-adv-x="270" 
d="M93 -170l-82 -12l-7 9c48 74 70 146 70 204c0 54 -4 71 -11 105l146 43c4 -21 7 -49 7 -62c0 -131 -78 -239 -123 -287z" />
    <glyph glyph-name="hyphen" unicode="-" horiz-adv-x="348" 
d="M49 193v97h250v-97h-250z" />
    <glyph glyph-name="period" unicode="." horiz-adv-x="279" 
d="M138 -12c-41 0 -87 27 -87 91c0 52 34 95 88 94s89 -43 89 -93c0 -65 -44 -92 -90 -92z" />
    <glyph glyph-name="slash" unicode="/" horiz-adv-x="483" 
d="M422 661l-263 -711h-98l264 711h97z" />
    <glyph glyph-name="zero" unicode="0" horiz-adv-x="539" 
d="M278 634c145 0 232 -134 232 -317c0 -217 -109 -327 -244 -327c-142 0 -237 116 -237 319c0 185 82 325 249 325zM269 590c-57 0 -89 -85 -89 -276c0 -159 27 -278 90 -278c64 0 87 91 87 275c0 173 -24 279 -88 279z" />
    <glyph glyph-name="one" unicode="1" horiz-adv-x="539" 
d="M469 0h-382v49c25 3 87 8 120 11v465c-30 -4 -74 -6 -106 -7v53c67 11 156 39 195 59h59v-569c21 -3 75 -6 114 -12v-49z" />
    <glyph glyph-name="two" unicode="2" horiz-adv-x="539" 
d="M480 0h-442v63c45 32 115 84 176 148c85 87 96 164 96 228c0 87 -32 137 -103 137c-14 0 -27 -1 -38 -5c-10 -32 -30 -94 -34 -97h-84v121c54 17 122 39 200 39c140 0 223 -76 223 -184c0 -90 -45 -155 -152 -234c-59 -45 -121 -88 -148 -106c49 2 152 4 250 4
c8 9 30 43 43 65l54 1z" />
    <glyph glyph-name="three" unicode="3" horiz-adv-x="539" 
d="M57 483v117c70 20 130 34 197 34c132 0 210 -56 210 -147c0 -88 -74 -128 -150 -144v-5c90 -14 183 -51 183 -158c0 -120 -117 -192 -272 -192c-63 0 -132 16 -170 29l-9 113h87c5 -6 29 -57 44 -87c10 -4 25 -6 41 -6c63 0 119 49 119 132s-40 130 -132 130h-39v63h44
c82 0 105 54 105 106c0 62 -26 114 -106 114c-20 0 -30 -3 -38 -6c-10 -32 -30 -83 -35 -93h-79z" />
    <glyph glyph-name="four" unicode="4" horiz-adv-x="539" 
d="M90 229h200c0 144 0 219 3 274c-40 -48 -163 -219 -203 -274zM425 0h-135v153h-272v62c27 43 298 393 316 415h91v-401h100v-76h-100v-153z" />
    <glyph glyph-name="five" unicode="5" horiz-adv-x="539" 
d="M223 37c58 0 117 41 117 115c0 71 -44 119 -142 144c-58 15 -102 22 -137 26v40l78 262h333l-36 -124h-276l-28 -92c42 -6 108 -13 178 -30c109 -26 180 -79 180 -182c0 -136 -135 -208 -264 -208c-59 0 -131 13 -170 28l-10 113h88c3 -2 32 -62 44 -87
c14 -6 27 -5 45 -5z" />
    <glyph glyph-name="six" unicode="6" horiz-adv-x="539" 
d="M466 633l3 -51c-151 -27 -248 -104 -275 -218c46 21 91 33 128 33c101 0 187 -68 187 -189c0 -128 -99 -220 -241 -220c-131 0 -238 90 -238 259c0 223 194 376 436 386zM260 334c-22 0 -52 -5 -73 -16c-2 -21 -5 -44 -5 -73c0 -135 36 -210 94 -210c57 0 82 61 82 150
c0 102 -39 149 -98 149z" />
    <glyph glyph-name="seven" unicode="7" horiz-adv-x="539" 
d="M120 500c-8 -16 -21 -38 -33 -58h-56l32 182h424v-56c-6 -19 -12 -43 -35 -95c-60 -127 -172 -337 -242 -473h-99c71 106 216 357 290 500h-281z" />
    <glyph glyph-name="eight" unicode="8" horiz-adv-x="539" 
d="M205 274c-31 -27 -49 -67 -49 -115c0 -70 44 -124 111 -124c65 0 97 40 97 87c0 46 -23 88 -159 152zM42 151c0 55 32 100 124 145c-83 52 -101 107 -101 163c0 91 78 175 210 175c131 0 193 -74 193 -153c0 -62 -39 -102 -109 -135c105 -59 135 -110 135 -181
c0 -87 -78 -177 -231 -177c-161 0 -221 90 -221 163zM182 503c0 -48 24 -82 140 -137c30 30 42 68 42 111c0 66 -34 110 -97 110c-53 0 -85 -37 -85 -84z" />
    <glyph glyph-name="nine" unicode="9" horiz-adv-x="539" 
d="M90 -12l-9 46c158 32 240 136 262 222c-37 -20 -81 -27 -112 -27c-89 0 -199 60 -199 196c0 108 86 209 239 209c139 0 237 -92 237 -258c0 -219 -192 -379 -418 -388zM292 293c19 0 43 3 59 11c2 18 6 49 6 90c0 126 -32 196 -94 196c-48 0 -81 -46 -81 -148
c0 -92 42 -149 110 -149z" />
    <glyph glyph-name="colon" unicode=":" horiz-adv-x="334" 
d="M167 -12c-48 0 -94 29 -94 90c0 51 38 93 95 93c58 0 94 -43 94 -93c0 -62 -53 -90 -95 -90zM167 281c-44 0 -94 28 -94 90c0 53 38 94 95 94c58 0 94 -44 94 -93c0 -64 -49 -91 -95 -91z" />
    <glyph glyph-name="semicolon" unicode=";" horiz-adv-x="334" 
d="M167 281c-44 0 -94 28 -94 90c0 53 38 94 95 94c58 0 94 -44 94 -93c0 -64 -49 -91 -95 -91zM123 -188l-82 -12l-7 9c48 74 71 146 71 204c0 53 -5 71 -12 105l146 42c4 -20 7 -49 7 -61c0 -132 -77 -240 -123 -287z" />
    <glyph glyph-name="less" unicode="&#x3c;" horiz-adv-x="555" 
d="M487 96v-97l-419 216v79l419 216v-95l-326 -157z" />
    <glyph glyph-name="equal" unicode="=" horiz-adv-x="622" 
d="M555 113h-487v79h487v-79zM555 318h-487v79h487v-79z" />
    <glyph glyph-name="greater" unicode="&#x3e;" horiz-adv-x="555" 
d="M68 414v96l419 -216v-79l-419 -216v96l325 157z" />
    <glyph glyph-name="question" unicode="?" horiz-adv-x="510" 
d="M263 -12c-39 0 -86 23 -86 87c0 50 39 89 88 89c52 0 87 -38 87 -88c0 -61 -44 -88 -89 -88zM74 504v113c41 17 118 39 185 39c128 0 202 -69 202 -160c0 -48 -17 -84 -48 -114c-33 -33 -89 -69 -132 -103c-1 -7 5 -42 7 -50h-68c-24 31 -43 78 -43 98c0 14 9 32 78 100
c26 26 51 53 51 94c0 55 -34 84 -79 84c-9 0 -23 -2 -35 -6c-10 -32 -30 -92 -34 -95h-84z" />
    <glyph glyph-name="at" unicode="@" horiz-adv-x="927" 
d="M662 429l-65 -360c82 23 168 93 168 259c0 143 -77 257 -268 257c-189 0 -318 -157 -318 -375c0 -161 55 -272 186 -357l-21 -40c-79 20 -272 150 -272 388c0 274 210 434 433 434c224 0 349 -137 349 -313c0 -185 -149 -312 -361 -312c-161 0 -215 86 -215 180
c0 140 111 251 280 251c46 0 96 -7 104 -12zM481 61l61 336c-88 2 -147 -103 -147 -217c0 -98 54 -119 79 -119h7z" />
    <glyph glyph-name="A" unicode="A" horiz-adv-x="647" 
d="M191 282h170l-85 244zM215 0h-234v53c28 4 57 8 68 10c27 64 143 382 188 509c7 17 13 36 8 76h140c14 -45 163 -451 217 -587c18 -1 38 -5 64 -8v-53h-306v52c16 3 51 8 77 9l-59 164h-204l-54 -163c31 -2 68 -6 95 -10v-52z" />
    <glyph glyph-name="B" unicode="B" horiz-adv-x="656" 
d="M261 57h68c79 0 121 55 121 130c0 90 -50 130 -136 130h-53v-260zM261 591v-216h91c16 0 30 -1 44 -2c25 23 33 68 33 102c0 81 -49 116 -121 116h-47zM29 648h296c68 0 125 -8 158 -21c61 -24 97 -70 97 -130c0 -70 -54 -116 -108 -136c11 -2 21 -6 31 -9
c78 -30 117 -86 117 -150c0 -127 -115 -202 -298 -202h-293v53c26 4 62 8 78 9v523c-12 2 -51 5 -78 10v53z" />
    <glyph glyph-name="C" unicode="C" horiz-adv-x="668" 
d="M577 -1c-32 -4 -101 -11 -152 -11c-206 0 -375 106 -375 340c0 187 131 329 378 329c84 0 156 -8 192 -10v-141h-71c-6 8 -26 47 -45 90c-13 6 -40 10 -73 10c-109 0 -211 -65 -211 -265c0 -206 111 -291 227 -291c16 0 42 2 48 4c21 30 50 71 55 75h81
c-11 -30 -44 -109 -54 -130z" />
    <glyph glyph-name="D" unicode="D" horiz-adv-x="741" 
d="M331 591h-68v-534h72c95 0 188 81 188 272c0 196 -93 262 -192 262zM29 648h327c207 0 336 -116 336 -305c0 -238 -193 -343 -365 -343h-298v53c24 4 63 8 78 10v522c-17 2 -52 6 -78 10v53z" />
    <glyph glyph-name="E" unicode="E" horiz-adv-x="629" 
d="M562 648v-141h-70c-4 3 -27 47 -44 84h-185v-229h140c5 23 17 67 23 85h53v-231h-53c-7 20 -17 58 -23 87h-140v-246h214c17 30 59 91 66 97h70l-38 -154h-546v53c27 3 54 8 78 10v522c-16 2 -51 5 -78 10v53h533z" />
    <glyph glyph-name="F" unicode="F" horiz-adv-x="596" 
d="M568 648v-141h-70c-6 5 -22 36 -44 84h-191v-241h154c5 27 17 69 23 84h53v-231h-53c-7 20 -17 58 -23 87h-154v-227c22 -1 58 -5 97 -10v-53h-331v53c27 3 54 7 78 9v524c-16 1 -51 4 -78 9v53h539z" />
    <glyph glyph-name="G" unicode="G" horiz-adv-x="726" 
d="M524 597c-10 4 -47 11 -87 11c-93 0 -217 -54 -217 -270c0 -207 102 -299 211 -299c14 0 39 2 51 5v211c-25 2 -74 8 -92 11v53h301v-52c-16 -3 -38 -6 -53 -7v-195c0 -8 2 -22 8 -50c-77 -12 -148 -27 -234 -27c-194 0 -363 104 -363 341c0 193 147 329 394 329
c97 0 152 -8 197 -11v-141h-71c-6 5 -25 45 -45 91z" />
    <glyph glyph-name="H" unicode="H" horiz-adv-x="767" 
d="M323 0h-294v53c29 4 58 8 79 9v523c-16 2 -33 3 -79 10v53h294v-52c-21 -5 -39 -9 -60 -10v-213h240v213c-12 3 -38 6 -61 10v52h295v-53c-23 -4 -50 -8 -78 -9v-524c27 -3 51 -5 78 -9v-53h-296v53c20 4 46 7 62 9v251h-240v-251c14 -2 38 -5 60 -10v-52z" />
    <glyph glyph-name="I" unicode="I" horiz-adv-x="365" 
d="M337 0h-312v53c25 4 55 8 78 9v523c-20 2 -50 6 -78 10v53h312v-53c-24 -4 -58 -8 -78 -10v-523c20 -2 53 -5 78 -9v-53z" />
    <glyph glyph-name="J" unicode="J" horiz-adv-x="369" 
d="M34 648h312v-53c-21 -4 -60 -8 -73 -9v-452c0 -48 -10 -95 -30 -137c-40 -82 -121 -167 -199 -209l-29 42c93 86 102 150 102 242v514c-30 3 -55 6 -83 10v52z" />
    <glyph glyph-name="K" unicode="K" horiz-adv-x="699" 
d="M341 0h-312v53c36 5 60 8 78 10v523c-21 1 -52 5 -78 9v53h312v-53c-26 -3 -52 -8 -78 -10v-251c71 53 206 187 258 251c-24 3 -66 8 -91 10v53h254v-53c-22 -1 -63 -8 -82 -10c-47 -46 -149 -148 -188 -186c37 -62 172 -259 217 -312c14 -16 27 -25 44 -28
c6 -2 28 -5 43 -6v-53h-157c-51 0 -68 13 -91 42c-36 45 -131 207 -165 267l-42 -31v-216c17 -2 50 -6 78 -9v-53z" />
    <glyph glyph-name="L" unicode="L" horiz-adv-x="607" 
d="M549 0h-520v53c27 3 54 7 78 9v523c-16 2 -51 6 -78 10v53h329v-53c-39 -5 -73 -8 -95 -10v-528h186c18 29 68 102 75 107h73z" />
    <glyph glyph-name="M" unicode="M" horiz-adv-x="902" 
d="M272 0h-247v53c23 3 63 8 76 10l14 522c-18 2 -50 5 -82 10v53h235c15 -37 173 -387 192 -429c32 79 163 374 183 429h230v-53c-3 -1 -50 -7 -80 -11l-1 -522c24 -3 50 -6 79 -11v-51h-316v53c37 5 69 8 81 10c4 158 9 354 12 470c-27 -72 -196 -481 -217 -533h-52
c-22 55 -192 468 -214 530l2 -467c34 -2 80 -7 105 -10v-53z" />
    <glyph glyph-name="N" unicode="N" horiz-adv-x="734" 
d="M276 0h-248v53c24 3 58 8 77 10c1 138 2 409 4 523c-15 3 -55 6 -79 9v53h219c174 -256 303 -433 318 -460h2c-1 109 2 300 -2 398c-17 1 -67 5 -99 9v53h245v-53c-17 -3 -58 -8 -75 -9c0 -59 -1 -266 -2 -398c0 -66 1 -171 3 -188h-120c-234 355 -329 492 -346 523h-1
c2 -89 1 -401 4 -461c24 -2 63 -5 100 -10v-52z" />
    <glyph glyph-name="O" unicode="O" horiz-adv-x="762" 
d="M383 -12c-209 0 -334 144 -334 336c0 189 124 334 338 334c205 0 326 -140 326 -330c0 -186 -119 -340 -330 -340zM392 36c87 0 149 74 149 277c0 212 -78 297 -170 297c-84 0 -150 -64 -150 -266s75 -308 171 -308z" />
    <glyph glyph-name="P" unicode="P" horiz-adv-x="637" 
d="M355 0h-326v53c29 5 64 8 78 9v523c-26 3 -48 6 -78 10v53h289c82 0 134 -8 169 -23c67 -30 110 -84 110 -166c0 -158 -150 -214 -290 -215h-44v-182c28 -1 70 -6 92 -9v-53zM263 302h41c72 0 134 40 134 147c0 97 -37 142 -125 142h-50v-289z" />
    <glyph glyph-name="Q" unicode="Q" horiz-adv-x="762" 
d="M803 -129l-8 -50c-60 -5 -176 -1 -226 18c-40 14 -100 67 -175 139c-4 3 -10 11 -20 11c-209 7 -325 147 -325 335c0 204 140 334 335 334c208 0 329 -137 329 -333c0 -156 -81 -253 -168 -292c66 -71 128 -127 163 -144c12 -6 26 -12 95 -18zM392 36
c86 0 149 67 149 276c0 218 -81 298 -171 298c-82 0 -149 -65 -149 -272c0 -212 84 -302 171 -302z" />
    <glyph glyph-name="R" unicode="R" horiz-adv-x="676" 
d="M263 334h89c26 0 34 4 45 13c28 25 46 65 46 112c0 98 -52 132 -120 132h-60v-257zM341 0h-312v53c30 4 61 7 78 9v522c-22 3 -49 7 -78 11v53h305c57 0 114 -4 149 -16c68 -23 116 -74 116 -153c0 -100 -76 -147 -129 -168c42 -75 121 -202 153 -235
c12 -12 20 -16 30 -18c10 -3 27 -4 36 -5v-53h-113c-63 0 -90 7 -122 53c-31 46 -77 134 -119 212c-4 8 -7 11 -14 11h-58v-214c16 -1 55 -5 78 -9v-53z" />
    <glyph glyph-name="S" unicode="S" horiz-adv-x="560" 
d="M60 17l-10 137h72c7 -8 36 -67 53 -104c12 -6 40 -12 73 -12c76 0 119 40 119 94c0 50 -25 82 -140 131c-137 59 -169 133 -169 210c0 94 70 185 251 185c71 0 123 -9 169 -11v-140h-68c-6 4 -29 50 -48 91c-16 8 -41 11 -59 11c-75 0 -111 -36 -111 -86
c0 -44 21 -81 121 -122c156 -65 202 -122 202 -213c0 -129 -117 -200 -270 -200c-89 0 -137 16 -185 29z" />
    <glyph glyph-name="T" unicode="T" horiz-adv-x="643" 
d="M23 498v150h596v-150h-64c-6 8 -29 54 -48 92h-113v-528c28 -1 68 -7 92 -10v-52h-336v53c34 3 60 7 88 9v528h-104c-20 -43 -41 -89 -46 -92h-65z" />
    <glyph glyph-name="U" unicode="U" horiz-adv-x="717" 
d="M625 586v-366c0 -56 -12 -99 -35 -135c-38 -57 -115 -97 -224 -97c-135 0 -211 50 -246 109c-20 35 -26 76 -27 121v368c-25 2 -49 6 -68 9v53h308v-52c-26 -6 -64 -9 -84 -11v-392c1 -65 36 -134 148 -134c102 0 150 73 150 135v392c-23 2 -69 7 -89 10v52h235v-53
c-32 -5 -54 -8 -68 -9z" />
    <glyph glyph-name="V" unicode="V" horiz-adv-x="625" 
d="M346 -6h-82c-29 87 -191 513 -221 591c-20 4 -49 5 -70 10v53h308v-53c-21 -3 -60 -8 -75 -9c26 -82 138 -372 152 -419c46 127 134 353 154 419c-19 2 -74 6 -100 9v53h240v-53c-23 -4 -57 -7 -71 -9c-36 -88 -214 -530 -235 -592z" />
    <glyph glyph-name="W" unicode="W" horiz-adv-x="920" 
d="M314 -6h-86c-28 99 -149 489 -182 592c-11 1 -50 6 -73 9v53h319v-53c-22 -3 -61 -8 -85 -9c22 -81 94 -335 107 -400c28 93 116 374 140 462h79c17 -65 131 -385 157 -469c18 69 99 338 114 407c-21 2 -86 6 -104 9v53h247v-53c-28 -4 -54 -7 -75 -9
c-28 -85 -153 -489 -184 -592h-88c-15 52 -121 358 -149 448z" />
    <glyph glyph-name="X" unicode="X" horiz-adv-x="604" 
d="M213 0h-242v53c18 1 55 6 83 9c42 55 143 196 176 248c-33 60 -123 209 -162 276c-18 1 -48 5 -75 9v53h295v-53c-22 -3 -35 -5 -48 -7c14 -31 86 -148 105 -182c27 36 100 147 117 180c-12 0 -58 5 -81 9v53h234v-53c-22 -3 -61 -8 -81 -9c-36 -50 -125 -179 -159 -229
c47 -81 133 -223 176 -295c17 -1 58 -7 83 -10v-52h-317v53c17 2 41 6 56 9c-18 33 -92 160 -113 196c-20 -28 -113 -167 -130 -196c24 -2 66 -6 83 -10v-52z" />
    <glyph glyph-name="Y" unicode="Y" horiz-adv-x="579" 
d="M462 0h-341v53c32 4 70 7 92 10v183c0 17 -2 26 -10 43c-44 89 -143 263 -164 297c-15 2 -34 4 -68 9v53h307v-53c-21 -2 -52 -8 -65 -9c20 -45 108 -208 129 -245c26 49 103 194 124 245c-24 3 -65 5 -88 9v53h233v-53c-25 -4 -53 -7 -71 -9
c-31 -57 -133 -240 -163 -302c-7 -14 -9 -20 -9 -39v-182c21 -2 67 -6 94 -11v-52z" />
    <glyph glyph-name="Z" unicode="Z" horiz-adv-x="596" 
d="M547 0h-528v50l366 541h-230c-20 -43 -42 -85 -47 -92h-66v149h517v-53l-360 -538h250c17 28 60 93 67 99h69z" />
    <glyph glyph-name="bracketleft" unicode="[" horiz-adv-x="414" 
d="M96 -71v723c0 20 -1 58 -2 79h258v-60c-42 -5 -113 -4 -144 -7v-747c26 -1 115 -6 144 -10v-59h-258c2 14 2 65 2 81z" />
    <glyph glyph-name="backslash" unicode="\" horiz-adv-x="483" 
d="M324 -50l-263 720h95l266 -720h-98z" />
    <glyph glyph-name="bracketright" unicode="]" horiz-adv-x="414" 
d="M317 651v-723c0 -20 2 -58 3 -79h-258v60c41 5 113 4 144 7v747c-27 1 -115 6 -144 10v59h258c-2 -14 -3 -65 -3 -81z" />
    <glyph glyph-name="asciicircum" unicode="^" horiz-adv-x="547" 
d="M139 263h-95l168 371h113l180 -371h-100c-51 108 -118 260 -138 306c-15 -48 -80 -198 -128 -306z" />
    <glyph glyph-name="underscore" unicode="_" horiz-adv-x="503" 
d="M0 -126h503v-50h-503v50z" />
    <glyph glyph-name="quoteleft" unicode="&#x2018;" horiz-adv-x="293" 
d="M181 695l71 14l6 -8c-36 -52 -62 -134 -62 -185c0 -47 4 -66 10 -96l-124 -35c-4 18 -6 43 -6 54c0 115 59 212 105 256z" />
    <glyph glyph-name="a" unicode="a" horiz-adv-x="509" 
d="M292 230h-11c-71 0 -109 -29 -109 -82c0 -54 32 -80 79 -80c15 0 27 2 43 9c-1 6 -2 12 -2 19v134zM431 334v-259c0 -5 12 -17 34 -17c8 0 11 0 19 1v-48c-21 -12 -53 -19 -88 -19c-27 0 -68 10 -89 47c-66 -41 -114 -51 -140 -51c-61 0 -135 54 -135 138
c0 124 141 149 255 149h6v67c0 40 -16 80 -80 80c-10 0 -18 -1 -25 -3c-8 -27 -24 -73 -29 -83h-90v101c63 18 135 36 191 36c127 0 171 -67 171 -139z" />
    <glyph glyph-name="b" unicode="b" horiz-adv-x="565" 
d="M212 403v-348c14 -8 35 -12 57 -12c63 0 116 62 116 188c0 106 -39 178 -130 178c-11 0 -30 -2 -43 -6zM11 663v46h15c90 0 163 2 192 6c-3 -20 -6 -42 -6 -62v-208c60 22 94 28 117 28c111 0 206 -91 206 -218c0 -181 -155 -267 -283 -267c-66 0 -141 16 -183 27v624
c-11 7 -39 19 -58 24z" />
    <glyph glyph-name="c" unicode="c" horiz-adv-x="470" 
d="M310 473c58 0 93 -8 126 -14v-109h-80c-9 11 -24 44 -35 74c-3 1 -7 2 -19 2c-49 0 -121 -43 -121 -177c0 -125 71 -188 148 -188c32 0 60 1 107 23v-47c-52 -41 -116 -49 -159 -49c-131 0 -247 85 -247 242c0 142 119 243 280 243z" />
    <glyph glyph-name="d" unicode="d" horiz-adv-x="575" 
d="M354 75v330c-16 12 -31 16 -62 16c-54 0 -113 -54 -113 -170c0 -126 57 -186 127 -186c15 0 31 1 48 10zM497 647v-568c8 -3 32 -6 54 -8v-52c-28 -3 -143 -21 -187 -31c-4 17 -7 36 -7 48c-62 -36 -107 -47 -131 -47c-88 0 -196 83 -196 234c0 142 122 251 280 251
c24 0 31 -2 44 -3v168c-12 6 -47 19 -67 24v46h62c95 0 131 1 154 4c-2 -20 -6 -49 -6 -66z" />
    <glyph glyph-name="e" unicode="e" horiz-adv-x="496" 
d="M440 91v-49c-65 -48 -133 -54 -177 -54c-144 0 -234 102 -234 240c1 124 86 245 238 245s198 -107 198 -193c0 -9 0 -19 -2 -32c-18 -5 -53 -7 -160 -7h-125c-2 -133 70 -180 144 -180c38 0 74 6 118 30zM179 290h89c24 0 49 0 58 1c1 12 1 21 1 25c0 55 -14 111 -66 111
c-45 0 -75 -48 -82 -137z" />
    <glyph glyph-name="f" unicode="f" horiz-adv-x="322" 
d="M299 0h-272v53c28 5 42 8 55 9v338c-17 1 -57 5 -69 8v53h69c0 63 17 125 60 175c41 50 108 83 186 83c28 0 63 -3 79 -9v-102h-85c-6 9 -21 34 -29 55h-2c-31 1 -69 -18 -69 -105c0 -65 2 -83 2 -97h97v-53c-21 -3 -72 -7 -96 -8v-338c18 -2 49 -6 74 -9v-53z" />
    <glyph glyph-name="g" unicode="g" horiz-adv-x="507" 
d="M237 203c42 0 57 48 57 112c0 63 -16 115 -64 115c-43 0 -60 -47 -60 -109c0 -64 19 -118 67 -118zM172 -22c-10 1 -20 3 -29 6c-17 -28 -22 -50 -22 -66c0 -57 52 -110 146 -110c91 0 123 46 123 92c0 40 -32 61 -81 66c-38 4 -93 6 -137 12zM509 461l-7 -74
c-22 2 -67 4 -89 4c8 -12 19 -40 19 -73c0 -102 -86 -157 -197 -157c-26 0 -51 3 -75 9c-7 -15 -11 -27 -11 -33c0 -28 34 -37 48 -37c71 -7 126 -7 176 -13c43 -5 127 -37 127 -129c0 -117 -121 -201 -264 -201c-160 0 -226 82 -226 137c0 21 37 61 95 107
c-33 21 -49 53 -49 85c0 14 30 55 64 97c-50 23 -86 66 -86 133c0 69 54 157 200 157c61 0 102 -15 127 -24c6 -3 12 -4 16 -4c32 5 100 14 132 16z" />
    <glyph glyph-name="h" unicode="h" horiz-adv-x="585" 
d="M268 0h-241v53c17 3 33 6 49 9v577c-12 8 -44 20 -57 24v46h46c76 0 129 2 160 4c-3 -17 -6 -51 -6 -65v-223c58 38 104 48 141 48c106 0 148 -83 148 -168v-244c16 -2 35 -5 50 -8v-53h-243v53c17 3 35 7 50 9v248c0 46 -22 86 -82 86c-23 0 -45 -5 -64 -13v-323
c12 -1 31 -4 49 -7v-53z" />
    <glyph glyph-name="i" unicode="i" horiz-adv-x="301" 
d="M66 606c0 32 25 74 80 74c49 0 77 -34 77 -74c0 -43 -30 -75 -78 -75c-54 0 -79 39 -79 75zM270 0h-243v53c18 3 45 6 55 8v325c-10 8 -35 23 -51 28v47h70c58 1 113 2 124 3v-404c13 -1 29 -5 45 -8v-52z" />
    <glyph glyph-name="j" unicode="j" horiz-adv-x="293" 
d="M28 414v47h66c83 0 118 2 129 3v-394c0 -48 -5 -81 -20 -119c-32 -82 -97 -150 -173 -192l-32 40c77 69 82 100 82 204v383c-13 11 -37 24 -52 28zM62 606c0 32 23 74 79 74c51 0 78 -34 78 -74c0 -43 -29 -75 -78 -75c-56 0 -79 39 -79 75z" />
    <glyph glyph-name="k" unicode="k" horiz-adv-x="540" 
d="M530 461v-53c-17 -4 -44 -7 -60 -8c-45 -43 -86 -80 -126 -112c50 -80 127 -184 157 -216c6 -7 13 -10 24 -13c8 -2 19 -3 39 -6v-53h-121c-48 0 -65 11 -91 45c-29 36 -74 111 -108 172l-24 -15v-142c18 -2 41 -5 56 -8v-52h-249v53c15 3 35 6 50 7v579
c-13 8 -43 19 -58 24v46h29c101 0 149 2 179 4c-3 -18 -7 -53 -7 -66v-397c55 35 144 116 173 150c-29 3 -58 5 -77 8v53h214z" />
    <glyph glyph-name="l" unicode="l" horiz-adv-x="296" 
d="M269 0h-242v53c14 2 33 6 50 8v578c-15 8 -46 20 -58 24v46h47c109 0 146 3 161 4c-3 -22 -7 -52 -7 -61v-592c19 -2 35 -5 49 -8v-52z" />
    <glyph glyph-name="m" unicode="m" horiz-adv-x="874" 
d="M274 0h-247v53c18 3 39 6 55 8v325c-12 10 -38 24 -51 28v47h65c42 0 99 1 120 3c2 -9 4 -33 5 -48c68 47 107 57 150 57c57 0 97 -32 117 -64c83 57 123 64 162 64c105 0 148 -81 148 -165v-247c18 -3 31 -6 49 -9v-52h-242v53c21 4 36 6 50 8v245c0 63 -32 90 -79 90
c-25 0 -49 -6 -74 -21c6 -16 9 -44 9 -80v-234c17 -3 34 -6 47 -9v-52h-240v53c17 4 36 6 50 9v249c0 51 -22 85 -71 85c-28 0 -48 -6 -72 -19v-316c11 -2 31 -5 49 -8v-53z" />
    <glyph glyph-name="n" unicode="n" horiz-adv-x="591" 
d="M274 0h-247v53c18 3 39 6 55 8v325c-10 8 -38 23 -51 28v47h65c42 0 99 1 120 3c2 -6 4 -37 5 -51c57 41 102 60 147 60c101 0 145 -81 145 -162v-250c16 -2 35 -6 50 -8v-53h-243v53c21 4 36 6 50 8v251c0 46 -19 82 -73 82c-24 0 -50 -8 -72 -21v-312
c14 -2 37 -5 49 -8v-53z" />
    <glyph glyph-name="o" unicode="o" horiz-adv-x="560" 
d="M285 473c140 0 245 -96 245 -235c0 -158 -113 -250 -253 -250c-152 0 -247 107 -247 243c0 138 102 242 255 242zM287 34c69 0 86 93 86 190c0 115 -26 202 -97 202c-69 0 -89 -87 -89 -184c0 -98 25 -208 100 -208z" />
    <glyph glyph-name="p" unicode="p" horiz-adv-x="574" 
d="M220 386v-324c19 -13 41 -20 64 -20c48 0 110 49 110 190c0 122 -49 166 -109 166c-18 0 -38 -3 -65 -12zM302 -238h-282v53c20 4 42 7 57 9v563c-11 9 -36 22 -49 26v48h48c41 0 113 0 134 2c2 -10 5 -27 6 -38c59 34 108 48 142 48c100 0 186 -93 186 -219
c0 -181 -161 -266 -263 -266c-23 0 -42 2 -61 5v-169c27 -2 65 -7 82 -10v-52z" />
    <glyph glyph-name="q" unicode="q" horiz-adv-x="566" 
d="M354 59v350c-12 7 -27 12 -56 12c-61 0 -116 -53 -116 -180c0 -130 64 -189 131 -189c17 0 30 3 41 7zM354 -176v191c-63 -26 -98 -27 -117 -27c-80 0 -207 67 -207 235c0 150 127 250 293 250c73 0 152 -17 183 -19c-3 -16 -9 -56 -9 -69v-561c14 -2 42 -6 59 -10v-52
h-279v53c23 3 55 7 77 9z" />
    <glyph glyph-name="r" unicode="r" horiz-adv-x="433" 
d="M312 0h-285v53c16 3 42 6 55 8v325c-12 10 -38 24 -51 28v47h51c41 0 113 1 134 4c2 -20 3 -47 4 -67c47 46 97 75 149 75c22 0 38 -2 49 -7l-15 -142h-54c-12 18 -21 33 -34 39c-9 5 -20 8 -35 8c-19 0 -37 -4 -55 -16v-295c16 -1 62 -3 87 -7v-53z" />
    <glyph glyph-name="s" unicode="s" horiz-adv-x="428" 
d="M369 460v-108h-69c-3 4 -24 39 -38 70c-7 3 -19 5 -30 5c-51 0 -71 -27 -71 -55c0 -27 11 -48 91 -78c119 -46 145 -93 145 -150c0 -105 -101 -156 -209 -156c-54 0 -98 10 -142 20c-2 25 -8 94 -10 117h73c5 -7 28 -57 40 -83c11 -6 28 -8 41 -8c53 0 80 26 80 59
c0 29 -9 49 -85 80c-95 40 -142 80 -142 156c0 54 28 144 194 144c57 0 113 -10 132 -13z" />
    <glyph glyph-name="t" unicode="t" horiz-adv-x="335" 
d="M323 68v-48c-45 -25 -81 -32 -116 -32c-82 0 -133 36 -133 141v271c-16 1 -52 6 -65 8v53h69c11 31 41 92 64 129h93c-7 -35 -15 -114 -15 -129h108v-53c-21 -3 -80 -8 -111 -8v-300c0 -24 10 -44 53 -44c16 0 32 4 53 12z" />
    <glyph glyph-name="u" unicode="u" horiz-adv-x="577" 
d="M554 70v-52c-41 -3 -154 -25 -180 -30c-5 19 -8 41 -11 63c-57 -51 -102 -63 -150 -63c-67 0 -140 39 -140 157v244c-14 11 -35 21 -48 25v47h63c53 0 118 2 131 3c-2 -25 -3 -49 -3 -61v-268c0 -29 22 -65 69 -65c21 0 48 6 72 23v294c-14 9 -46 22 -63 26v48h73
c63 0 121 2 133 3v-386c9 -3 33 -5 54 -8z" />
    <glyph glyph-name="v" unicode="v" horiz-adv-x="488" 
d="M277 -6h-70c-22 66 -134 331 -164 405c-16 2 -34 6 -51 9v53h250v-53c-17 -3 -36 -5 -46 -6c20 -65 78 -204 95 -253c27 71 81 209 92 251c-29 3 -59 5 -78 8v53h196v-53c-17 -4 -36 -7 -52 -8c-33 -78 -150 -349 -172 -406z" />
    <glyph glyph-name="w" unicode="w" horiz-adv-x="743" 
d="M557 -6h-74c-19 58 -92 247 -117 323c-18 -75 -82 -243 -106 -323h-74c-19 66 -112 324 -141 404c-14 1 -30 5 -53 10v53h258v-53c-21 -5 -44 -7 -56 -8c6 -28 55 -168 73 -234c18 63 81 249 93 295h88c21 -61 92 -241 112 -307c14 47 63 189 76 243c-19 2 -61 6 -81 11
v53h201v-53c-17 -4 -45 -8 -56 -10c-22 -66 -109 -302 -143 -404z" />
    <glyph glyph-name="x" unicode="x" horiz-adv-x="460" 
d="M193 0h-207v53c29 4 50 7 64 9c32 36 95 121 120 155c-37 61 -81 137 -110 182c-16 2 -26 4 -58 9v53h247v-53c-12 -2 -29 -5 -38 -5l60 -106c14 18 60 87 69 104c-9 1 -42 3 -63 7v53h191v-53c-20 -3 -52 -8 -63 -10c-31 -38 -74 -98 -108 -144l120 -191
c15 -2 43 -6 62 -10v-53h-251v53c14 2 27 5 40 6l-70 116c-15 -20 -64 -95 -77 -115c20 -2 53 -4 72 -7v-53z" />
    <glyph glyph-name="y" unicode="y" horiz-adv-x="502" 
d="M45 397c-8 1 -30 6 -51 11v53h262v-53c-13 -3 -44 -7 -54 -7c18 -49 88 -217 98 -244c28 64 87 213 95 241c-15 1 -57 6 -84 10v53h208v-53c-19 -5 -43 -8 -56 -9c-33 -81 -94 -217 -169 -390c-23 -52 -69 -172 -99 -253c-27 -2 -102 12 -118 26v11
c46 57 107 140 144 202c2 3 3 7 1 12c-24 55 -145 324 -177 390z" />
    <glyph glyph-name="z" unicode="z" horiz-adv-x="451" 
d="M105 328h-72v133h389v-44c-58 -87 -203 -312 -239 -366l139 1c10 20 37 72 44 84h72c-7 -39 -23 -114 -27 -136h-387v47c70 101 187 279 242 363h-130c-9 -31 -26 -73 -31 -82z" />
    <glyph glyph-name="braceleft" unicode="{" horiz-adv-x="440" 
d="M51 258v73c91 0 106 22 106 90c0 38 -3 98 -3 125c1 124 107 186 225 187v-58c-86 -8 -104 -43 -104 -96c0 -36 6 -93 5 -156c-1 -54 -32 -119 -140 -127c107 -11 140 -64 140 -128c0 -67 -1 -124 -1 -173c0 -44 16 -82 100 -90v-57c-120 0 -225 48 -225 187
c0 42 3 82 3 135c0 60 -18 88 -106 88z" />
    <glyph glyph-name="bar" unicode="|" horiz-adv-x="315" 
d="M102 756h112v-1008h-112v1008z" />
    <glyph glyph-name="braceright" unicode="}" horiz-adv-x="440" 
d="M389 321v-71c-91 0 -106 -27 -106 -92c0 -37 3 -98 2 -124c0 -124 -106 -186 -224 -186v57c87 8 105 53 105 93c0 37 -6 96 -5 158c1 54 31 119 139 128c-107 11 -139 64 -139 128c0 67 1 125 1 173c0 40 -11 81 -101 90v58c120 0 224 -50 224 -188c0 -43 -2 -78 -2 -131
c0 -66 19 -93 106 -93z" />
    <glyph glyph-name="asciitilde" unicode="~" horiz-adv-x="583" 
d="M450 325h81c0 -132 -55 -175 -122 -175c-47 0 -75 14 -125 45c-48 30 -72 48 -99 48c-30 0 -49 -18 -51 -93h-82c0 121 51 175 129 175c55 0 86 -23 128 -47c35 -22 64 -42 92 -42c33 0 49 16 49 89z" />
    <glyph glyph-name="exclamdown" unicode="&#xa1;" horiz-adv-x="371" 
d="M145 217h71c19 -90 60 -296 61 -334v-70c-17 -5 -57 -7 -95 -7c-36 0 -75 2 -95 7v72c0 33 39 243 58 332zM182 473c40 0 94 -28 94 -90c0 -50 -39 -94 -95 -94c-58 0 -93 43 -93 93c0 63 53 91 94 91z" />
    <glyph glyph-name="cent" unicode="&#xa2;" horiz-adv-x="520" 
d="M272 164l26 333c-53 -10 -100 -61 -100 -169c0 -95 27 -144 74 -164zM474 417h-60c-6 7 -18 37 -33 72c-7 4 -17 7 -32 9l-27 -345c6 -1 12 -1 19 -1c39 0 78 9 128 36v-45c-48 -43 -111 -59 -153 -63l-6 -79h-50l6 80c-110 12 -213 87 -213 230c0 136 103 226 249 234
l6 82h51l-6 -82c48 -3 93 -13 121 -18v-110z" />
    <glyph glyph-name="sterling" unicode="&#xa3;" horiz-adv-x="539" 
d="M454 174h51c-6 -23 -29 -126 -41 -174h-439v67c21 11 42 22 60 48c17 27 31 78 31 167v18h-86v53h86v13c0 178 97 268 240 268c54 0 102 -10 119 -17v-121h-72c-6 9 -21 47 -37 90c-5 2 -13 2 -19 2c-35 0 -73 -27 -73 -144v-91h124v-53h-126
c-11 -109 -75 -165 -131 -191h261c19 20 41 50 52 65z" />
    <glyph glyph-name="fraction" unicode="&#x2044;" horiz-adv-x="80" 
d="M266 634l-381 -646h-67l379 646h69z" />
    <glyph glyph-name="yen" unicode="&#xa5;" horiz-adv-x="539" 
d="M341 623h185v-52c-18 -4 -34 -8 -52 -10c-24 -43 -112 -196 -137 -249v-1h104v-49h-104v-51h104v-50h-104v-98c19 -2 56 -6 82 -11v-52h-305v53c33 4 53 7 76 10v98h-102v50h102v51h-102v49h99c-23 52 -107 208 -134 251c-15 1 -36 5 -53 9v52h271v-52
c-21 -3 -42 -8 -54 -9c17 -43 72 -161 91 -201c29 58 85 159 103 201c-27 3 -48 6 -70 9v52z" />
    <glyph glyph-name="florin" unicode="&#x192;" horiz-adv-x="539" 
d="M26 -136c-55 0 -88 19 -99 32c5 22 32 73 59 88c33 -40 60 -64 84 -64c15 1 28 15 44 92l67 320h-82v51h92c22 90 50 145 90 188c51 58 119 83 180 83c29 0 60 -5 70 -12c-3 -34 -23 -82 -48 -103c-21 28 -52 61 -72 61c-16 0 -32 -18 -48 -99l-23 -118h100v-51h-110
c-18 -84 -30 -151 -55 -244c-38 -147 -160 -224 -249 -224z" />
    <glyph glyph-name="section" unicode="&#xa7;" horiz-adv-x="539" 
d="M291 618c-59 0 -77 -32 -77 -57s11 -48 105 -95c126 -62 151 -113 151 -182c0 -72 -39 -114 -80 -140c36 -30 49 -68 49 -104c0 -107 -102 -156 -189 -156c-70 0 -113 14 -155 28v100h75c5 -10 26 -58 36 -79c6 -4 26 -6 38 -6c55 0 90 24 90 62c0 34 -27 60 -134 117
c-82 43 -133 88 -133 166c0 67 38 110 88 142c-36 30 -51 72 -51 103c0 85 62 141 188 141c50 0 108 -9 137 -16v-97h-63c-9 14 -24 50 -29 63c-11 7 -30 10 -46 10zM359 169c11 20 17 38 17 55c0 33 -11 64 -95 114c-38 22 -82 49 -95 54c-17 -13 -28 -41 -28 -61
c0 -33 14 -57 73 -90c55 -31 94 -48 128 -72z" />
    <glyph glyph-name="currency" unicode="&#xa4;" horiz-adv-x="539" 
d="M268 197c61 0 105 40 105 123c0 75 -44 122 -106 122c-66 0 -108 -48 -108 -123c0 -72 45 -122 109 -122zM475 492l-57 -58c22 -33 34 -73 34 -114c0 -42 -13 -82 -35 -115l58 -59l-51 -50l-54 63c-29 -20 -64 -31 -103 -31c-40 0 -76 11 -105 31l-51 -62l-55 51l60 58
c-21 32 -33 71 -33 114c0 41 12 79 33 112l-60 58l55 52l51 -63c29 21 64 33 105 33c40 0 76 -12 104 -31l53 61z" />
    <glyph glyph-name="quotesingle" unicode="'" horiz-adv-x="284" 
d="M174 392h-67l-38 308h146z" />
    <glyph glyph-name="quotedblleft" unicode="&#x201c;" horiz-adv-x="483" 
d="M178 695l71 14l5 -8c-35 -52 -62 -134 -62 -185c0 -47 5 -66 11 -96l-125 -35c-4 18 -6 43 -6 54c0 115 60 212 106 256zM372 695l71 14l6 -8c-36 -52 -62 -134 -62 -185c0 -47 4 -66 10 -96l-124 -35c-4 18 -6 43 -6 54c0 115 59 212 105 256z" />
    <glyph glyph-name="guillemotleft" unicode="&#xab;" horiz-adv-x="622" 
d="M70 231v27c65 55 152 143 205 204l39 -35c-32 -56 -90 -138 -118 -178c36 -55 85 -131 118 -191l-42 -35c-59 68 -141 156 -202 208zM308 231v27c72 61 151 142 206 204l38 -35c-29 -49 -79 -128 -118 -178c36 -51 87 -135 118 -191l-41 -35c-61 68 -144 156 -203 208z
" />
    <glyph glyph-name="guilsinglleft" unicode="&#x2039;" horiz-adv-x="399" 
d="M70 230v28c71 58 167 144 220 203l39 -35c-37 -56 -96 -134 -129 -178c40 -55 90 -131 129 -192l-42 -34c-59 68 -152 156 -217 208z" />
    <glyph glyph-name="guilsinglright" unicode="&#x203a;" horiz-adv-x="399" 
d="M329 253v-28c-71 -58 -167 -144 -220 -203l-39 35c37 56 97 134 130 177c-41 56 -91 132 -130 193l42 34c60 -68 152 -156 217 -208z" />
    <glyph glyph-name="endash" unicode="&#x2013;" horiz-adv-x="546" 
d="M70 202v79h406v-79h-406z" />
    <glyph glyph-name="dagger" unicode="&#x2020;" horiz-adv-x="482" 
d="M182 395v184c33 8 60 9 90 0v-184h136c6 -20 4 -63 -1 -79h-135v-379c-15 -9 -70 -11 -90 0v379h-136c-8 22 -7 59 0 79h136z" />
    <glyph glyph-name="daggerdbl" unicode="&#x2021;" horiz-adv-x="482" 
d="M182 223v123h-136c-8 21 -7 60 0 78h136v155c33 8 60 9 90 0v-155h136c6 -19 4 -62 -1 -78h-135v-123h136c6 -19 4 -62 -1 -78h-135v-208c-15 -9 -70 -11 -90 0v208h-136c-8 21 -7 60 0 78h136z" />
    <glyph glyph-name="periodcentered" unicode="&#xb7;" horiz-adv-x="282" 
d="M140 151c-41 0 -88 26 -88 91c0 52 34 95 89 94c53 -1 89 -43 89 -93c0 -65 -44 -92 -90 -92z" />
    <glyph glyph-name="paragraph" unicode="&#xb6;" horiz-adv-x="572" 
d="M507 651v-56c-35 -4 -80 -13 -106 -15v-533c0 -208 -134 -232 -185 -232c-33 0 -58 6 -80 16c1 22 19 75 32 94c24 -19 69 -44 101 -44c35 0 56 25 56 99v128c-195 38 -273 139 -273 274c0 97 45 183 156 233c51 24 133 36 227 36h72z" />
    <glyph glyph-name="bullet" unicode="&#x2022;" horiz-adv-x="442" 
d="M222 395c81 0 147 -67 147 -155c0 -86 -62 -154 -146 -154c-87 0 -151 68 -151 154c0 88 66 155 150 155z" />
    <glyph glyph-name="quotesinglbase" unicode="&#x201a;" horiz-adv-x="282" 
d="M114 -123l-71 -14l-5 7c35 53 62 135 62 186c0 48 -5 66 -11 95l125 36c4 -18 6 -43 6 -55c0 -115 -60 -211 -106 -255z" />
    <glyph glyph-name="quotedblbase" unicode="&#x201e;" horiz-adv-x="477" 
d="M115 -123l-71 -14l-5 7c35 53 62 135 62 186c0 48 -5 66 -11 95l125 36c4 -18 6 -43 6 -55c0 -115 -60 -211 -106 -255zM312 -123l-71 -14l-6 7c36 53 63 135 63 186c0 48 -5 66 -11 95l125 36c3 -18 5 -43 5 -55c0 -115 -59 -211 -105 -255z" />
    <glyph glyph-name="quotedblright" unicode="&#x201d;" horiz-adv-x="479" 
d="M117 399l-71 -14l-5 8c35 52 62 134 62 185c0 48 -5 66 -11 95l125 36c4 -18 6 -43 6 -54c0 -116 -60 -212 -106 -256zM313 399l-71 -14l-5 8c35 52 62 134 62 185c0 48 -5 66 -11 95l125 36c4 -18 6 -43 6 -54c0 -116 -60 -212 -106 -256z" />
    <glyph glyph-name="guillemotright" unicode="&#xbb;" horiz-adv-x="622" 
d="M552 253v-27c-65 -55 -152 -142 -205 -203l-39 34c33 56 90 139 119 178c-37 56 -86 131 -119 192l42 35c59 -69 141 -156 202 -209zM314 253v-26c-72 -61 -151 -143 -205 -204l-39 34c29 49 79 129 118 178c-36 51 -87 136 -118 192l42 35c60 -69 143 -157 202 -209z
" />
    <glyph glyph-name="ellipsis" unicode="&#x2026;" horiz-adv-x="829" 
d="M690 -12c-41 0 -88 27 -88 91c0 52 34 95 89 94c54 -1 89 -43 89 -93c0 -65 -44 -92 -90 -92zM140 -12c-41 0 -88 27 -88 91c0 52 35 95 89 94s89 -43 89 -93c0 -65 -44 -92 -90 -92zM415 -12c-41 0 -87 27 -87 91c0 52 34 95 88 94s89 -43 89 -93c0 -65 -44 -92 -90 -92
z" />
    <glyph glyph-name="perthousand" unicode="&#x2030;" horiz-adv-x="1203" 
d="M1003 340c82 0 155 -53 155 -176c0 -104 -67 -176 -159 -176c-108 0 -164 77 -164 171c0 97 57 181 168 181zM995 303c-47 0 -54 -67 -54 -141c0 -86 18 -136 59 -136c35 0 52 36 52 135c0 104 -22 142 -57 142zM656 618l-443 -651l-40 30l445 651zM213 634
c82 0 154 -59 154 -173c0 -105 -67 -174 -159 -174c-109 0 -163 76 -163 169c0 101 57 178 168 178zM207 598c-49 0 -56 -67 -56 -140c0 -85 18 -135 58 -135c35 0 53 38 53 134c0 103 -21 141 -55 141zM630 336c82 0 155 -53 155 -173c0 -104 -67 -175 -160 -175
c-107 0 -163 77 -163 170c0 95 57 178 168 178zM622 299c-47 0 -54 -66 -54 -139c0 -85 18 -134 58 -134c36 0 53 36 53 134c0 102 -22 139 -57 139z" />
    <glyph glyph-name="questiondown" unicode="&#xbf;" horiz-adv-x="495" 
d="M233 472c39 0 86 -23 86 -86c0 -50 -39 -89 -88 -89c-52 0 -87 37 -87 88c0 61 44 87 89 87zM422 -43v-113c-41 -17 -118 -40 -185 -40c-128 0 -203 70 -203 161c0 48 18 84 49 114c33 33 89 69 132 103c1 7 -5 42 -7 50h67c24 -31 44 -78 44 -99c0 -13 -9 -31 -78 -99
c-26 -26 -52 -53 -52 -95c0 -54 35 -83 79 -83c10 0 24 2 36 6c10 32 30 92 34 95h84z" />
    <glyph glyph-name="grave" unicode="`" 
d="M248 528h-64l-151 159l4 15h130z" />
    <glyph glyph-name="acute" unicode="&#xb4;" 
d="M219 528h-64l86 174h126l4 -14z" />
    <glyph glyph-name="circumflex" unicode="&#x2c6;" 
d="M343 528h-64l-80 75l-80 -75h-63l104 158h78z" />
    <glyph glyph-name="tilde" unicode="&#x2dc;" 
d="M302 672h54c5 -95 -38 -128 -89 -128c-27 0 -49 10 -74 20c-32 14 -48 18 -63 18c-18 0 -31 -8 -33 -43h-55c-6 93 40 125 91 125c30 0 49 -6 87 -21c14 -6 37 -17 53 -17c15 0 29 7 29 46z" />
    <glyph glyph-name="macron" unicode="&#xaf;" 
d="M62 632h275v-74h-275v74z" />
    <glyph glyph-name="breve" unicode="&#x2d8;" 
d="M303 680h48c-15 -80 -66 -142 -154 -142c-84 0 -138 52 -151 142h52c19 -45 49 -61 99 -61c55 0 84 14 106 61z" />
    <glyph glyph-name="dotaccent" unicode="&#x2d9;" 
d="M118 606c0 32 24 74 80 74c51 0 79 -34 79 -74c0 -43 -30 -75 -80 -75c-55 0 -79 39 -79 75z" />
    <glyph glyph-name="dieresis" unicode="&#xa8;" 
d="M25 606c0 30 22 69 70 69c43 0 67 -32 67 -69c0 -40 -26 -69 -68 -69c-47 0 -69 35 -69 69zM237 606c0 30 21 69 69 69c44 0 67 -32 67 -69c0 -40 -25 -69 -67 -69c-48 0 -69 35 -69 69z" />
    <glyph glyph-name="ring" unicode="&#x2da;" 
d="M199 694c59 0 96 -30 96 -86c0 -54 -42 -85 -96 -85c-58 0 -94 33 -94 85c0 55 36 86 94 86zM198 659c-28 0 -46 -18 -46 -51s21 -50 47 -50c28 0 48 15 48 52c0 30 -21 49 -49 49z" />
    <glyph glyph-name="cedilla" unicode="&#xb8;" 
d="M204 10h47l-45 -43c68 -20 100 -51 100 -97c0 -70 -73 -111 -189 -105v38c42 1 96 12 96 54c0 34 -49 43 -87 50v29z" />
    <glyph glyph-name="hungarumlaut" unicode="&#x2dd;" 
d="M125 527h-56l77 175h113v-17zM304 527h-56l78 175h113v-18z" />
    <glyph glyph-name="ogonek" unicode="&#x2db;" 
d="M223 6h53c-66 -33 -100 -72 -100 -109c0 -34 28 -48 58 -48c20 0 37 2 58 10v-41c-40 -30 -77 -39 -114 -39c-80 0 -114 50 -114 90c0 50 45 102 159 137z" />
    <glyph glyph-name="caron" unicode="&#x2c7;" 
d="M56 693h63l81 -74l80 74h63l-104 -157h-78z" />
    <glyph glyph-name="emdash" unicode="&#x2014;" horiz-adv-x="958" 
d="M70 202v79h818v-79h-818z" />
    <glyph glyph-name="AE" unicode="&#xc6;" horiz-adv-x="924" 
d="M259 338h152l-12 258h-6zM761 58c18 30 59 90 66 96h70l-37 -154h-520v53c27 3 63 7 86 9l-12 218h-185c-34 -69 -79 -150 -113 -218c31 -2 68 -5 98 -9v-53h-248v53c30 4 59 8 71 11c29 45 216 384 292 526c-35 2 -93 7 -113 10v48h642v-141h-71c-4 3 -27 47 -44 84
l-192 -1l13 -251h130c5 20 16 62 23 84h52v-228h-52c-7 24 -17 61 -23 85h-126l13 -222h180z" />
    <glyph glyph-name="ordfeminine" unicode="&#xaa;" horiz-adv-x="366" 
d="M203 339v90h-11c-29 0 -62 -10 -62 -48c0 -28 13 -52 39 -52c10 0 23 2 34 10zM345 322v-42c-16 -4 -36 -8 -69 -8c-38 0 -63 15 -68 37c-42 -27 -66 -37 -96 -37c-45 0 -87 38 -87 94c0 80 88 95 171 96h7v26c0 14 -3 53 -49 53c-10 0 -14 -1 -19 -2
c-7 -21 -16 -46 -22 -56h-64v74c41 16 103 29 138 29c101 0 125 -62 125 -106v-153c9 -4 26 -6 33 -5z" />
    <glyph glyph-name="Lslash" unicode="&#x141;" horiz-adv-x="607" 
d="M524 164h73l-48 -164h-520v53c27 3 54 7 78 9v177l-82 -44v57l82 44v289c-16 2 -51 6 -78 10v53h329v-53c-39 -5 -73 -8 -95 -10v-204l160 86v-58l-160 -86v-266h186c18 29 68 102 75 107z" />
    <glyph glyph-name="Oslash" unicode="&#xd8;" horiz-adv-x="767" 
d="M515 491l-250 -366c31 -59 76 -89 127 -89c87 0 149 74 149 277c0 75 -10 133 -26 178zM244 176l248 363c-32 49 -74 71 -121 71c-84 0 -150 -64 -150 -266c0 -67 8 -123 23 -168zM640 675l-52 -77c81 -58 125 -155 125 -270c0 -186 -119 -340 -330 -340
c-70 0 -131 16 -181 45l-42 -62h-56l60 88c-74 61 -115 155 -115 265c0 189 124 334 338 334c62 0 116 -13 161 -36l36 53h56z" />
    <glyph glyph-name="OE" unicode="&#x152;" horiz-adv-x="1022" 
d="M498 53v541c-17 6 -53 8 -77 8c-90 0 -195 -62 -195 -266c0 -218 98 -289 208 -289c20 0 45 2 64 6zM945 648v-141h-70c-5 3 -27 47 -44 84h-179v-229h134c5 23 16 67 23 85h52v-231h-52c-7 20 -17 58 -23 87h-134v-246l208 1c17 30 58 90 65 96h70l-38 -154h-413
c-36 -3 -101 -5 -145 -5c-214 0 -350 119 -350 328c0 199 146 329 366 329c48 0 88 -2 133 -4h397z" />
    <glyph glyph-name="ordmasculine" unicode="&#xba;" horiz-adv-x="412" 
d="M208 586c95 0 173 -51 173 -156c0 -103 -80 -158 -175 -158c-99 0 -174 57 -174 158c0 92 71 156 176 156zM209 309c46 0 51 59 51 119c0 61 -10 122 -55 122c-44 0 -55 -52 -55 -114s13 -127 59 -127z" />
    <glyph glyph-name="ae" unicode="&#xe6;" horiz-adv-x="754" 
d="M294 234h-15c-81 0 -107 -37 -107 -88c0 -41 30 -77 76 -77c24 0 46 4 77 22c-15 29 -31 82 -31 143zM436 292h89c26 0 51 0 60 1c1 6 2 14 2 22c0 57 -17 112 -69 112c-44 0 -80 -40 -82 -135zM70 437c51 20 129 36 182 36c54 0 103 -11 132 -50c35 30 85 50 141 50
c150 0 199 -100 199 -188c0 -9 0 -21 -2 -35c-18 -5 -54 -7 -160 -7h-128c2 -124 76 -178 146 -178c39 0 75 9 119 31v-51c-64 -47 -130 -57 -175 -57c-78 0 -134 21 -175 67c-88 -58 -133 -67 -169 -67c-98 0 -148 74 -148 142c0 118 120 148 240 148h23v50
c0 38 -10 94 -75 94c-7 0 -27 1 -34 -3c-8 -27 -24 -72 -30 -83h-86v101z" />
    <glyph glyph-name="dotlessi" unicode="&#x131;" horiz-adv-x="301" 
d="M270 0h-243v53c18 3 45 6 55 8v325c-10 8 -35 23 -51 28v47h70c58 1 113 2 124 3v-404c13 -1 29 -5 45 -8v-52z" />
    <glyph glyph-name="lslash" unicode="&#x142;" horiz-adv-x="307" 
d="M299 413l-69 -34v-319c19 -2 35 -5 49 -8v-52h-242v53c14 2 33 6 50 8v247l-58 -29v54l58 29v277c-15 8 -46 20 -58 24v46h47c109 0 146 3 161 4c-3 -22 -7 -52 -7 -61v-218l69 34v-55z" />
    <glyph glyph-name="oslash" unicode="&#xf8;" horiz-adv-x="560" 
d="M371 318l-163 -227c17 -34 42 -57 78 -57c73 0 93 93 93 190c0 35 -3 67 -8 94zM191 144l162 229c-16 33 -41 53 -77 53c-73 0 -95 -87 -95 -184c0 -33 3 -67 10 -98zM490 485l-46 -64c53 -41 86 -106 86 -183c0 -158 -113 -250 -253 -250c-47 0 -88 10 -122 28l-29 -40
h-55l46 64c-56 44 -87 113 -87 191c0 138 102 242 255 242c44 0 85 -10 120 -27l28 39h57z" />
    <glyph glyph-name="oe" unicode="&#x153;" horiz-adv-x="841" 
d="M290 34c64 0 86 82 85 191c0 127 -28 201 -97 201c-67 0 -90 -76 -90 -186c0 -119 27 -206 102 -206zM609 -12c-85 0 -140 35 -164 64c-37 -35 -95 -64 -171 -64c-135 0 -241 82 -241 249c0 135 97 235 253 235c82 0 140 -34 165 -66c25 27 83 67 162 67
c151 0 198 -107 198 -190c0 -9 0 -19 -2 -31c-17 -5 -54 -7 -160 -7h-128c-1 -134 74 -180 146 -180c38 0 75 9 119 31v-51c-65 -47 -131 -57 -177 -57zM522 294h90c26 0 50 0 60 1c2 13 2 11 2 24c0 55 -17 108 -70 108c-44 0 -77 -50 -82 -133z" />
    <glyph glyph-name="germandbls" unicode="&#xdf;" horiz-adv-x="622" 
d="M231 0h-203v53c27 5 44 8 55 10v337c-26 1 -52 6 -64 7v54h62v14c-1 66 19 105 36 134c40 66 121 111 215 111c162 0 213 -99 213 -172c0 -6 0 -13 -1 -20c-91 -43 -112 -83 -112 -109c0 -21 31 -47 61 -74c65 -60 99 -99 99 -169c0 -118 -103 -188 -208 -188
c-57 0 -93 10 -107 16l-10 99l65 -1c7 -8 22 -34 37 -61c8 -3 17 -3 22 -3c44 0 69 34 69 72c0 44 -18 72 -68 116c-65 57 -88 88 -88 131c-1 35 19 90 120 155c1 4 2 11 2 17c0 86 -40 140 -101 140c-58 0 -99 -41 -99 -162v-381c0 -35 -1 -70 5 -126z" />
    <glyph glyph-name="logicalnot" unicode="&#xac;" horiz-adv-x="623" 
d="M467 64v228h-401v78h481v-306h-80z" />
    <glyph glyph-name="uni00B5" unicode="&#xb5;" horiz-adv-x="580" 
d="M69 461h143v-327c0 -44 17 -71 58 -71c49 0 89 42 89 158v240h143v-369c0 -20 8 -36 32 -36c14 0 27 2 37 6v-45c-34 -25 -68 -29 -107 -29c-62 0 -97 39 -102 91c-22 -63 -65 -89 -111 -89c-32 0 -54 12 -69 27c3 -70 13 -201 18 -250h-131v694z" />
    <glyph glyph-name="trademark" unicode="&#x2122;" horiz-adv-x="435" 
d="M145 492h-103v20c10 2 18 4 28 5v111h-21c-2 -9 -7 -16 -10 -27h-27v47h162v-47h-26c-3 8 -8 16 -12 27h-21v-111c6 -1 21 -2 30 -5v-20zM268 492h-80v19c18 4 18 5 26 6c1 15 5 85 6 106c-6 1 -14 2 -28 5v20h81l41 -84l36 84h77v-20c-9 -2 -19 -4 -26 -5
c0 -26 1 -83 2 -107c8 -1 15 -2 25 -5v-19h-97v19c8 3 17 4 25 5c0 20 1 57 0 98c-10 -26 -35 -89 -48 -120h-19c-17 40 -32 79 -49 121c0 -23 -2 -79 -2 -99c6 -1 11 -1 30 -5v-19z" />
    <glyph glyph-name="Eth" unicode="&#xd0;" horiz-adv-x="743" 
d="M263 57h72c95 0 188 81 188 272c0 196 -93 262 -192 262h-68v-220h122v-59h-122v-255zM29 648h327c207 0 336 -116 336 -305c0 -238 -193 -343 -365 -343h-298v53c24 4 63 8 78 10v249h-76v59h76v214c-17 2 -52 6 -78 10v53z" />
    <glyph glyph-name="onehalf" unicode="&#xbd;" horiz-adv-x="873" 
d="M633 634l-381 -646h-67l380 646h68zM286 256h-224v43c14 1 40 4 59 5v249c-19 -2 -34 -2 -54 -3v43c46 8 97 24 121 37h42v-325c12 -1 31 -2 56 -6v-43zM823 69l-19 -91h-284v54c23 15 64 41 103 78c50 46 67 88 67 127c0 54 -25 76 -61 76c-5 0 -14 -1 -18 -3
c-5 -14 -21 -60 -25 -65h-59v85c48 14 94 22 138 22c89 0 138 -46 138 -111c0 -63 -41 -99 -97 -133c-36 -21 -71 -38 -84 -44h123c14 0 53 3 78 5z" />
    <glyph glyph-name="plusminus" unicode="&#xb1;" horiz-adv-x="622" 
d="M272 400v200h80v-200h203v-78h-203v-206h-80v206h-204v78h204zM555 -9h-487v79h487v-79z" />
    <glyph glyph-name="Thorn" unicode="&#xde;" horiz-adv-x="648" 
d="M263 144v-82c14 -2 56 -5 78 -10v-52h-312v53c29 4 58 8 79 9v523c-16 2 -33 3 -79 10v53h313v-52c-25 -5 -58 -9 -79 -10v-79h113c163 0 227 -74 227 -170c0 -134 -113 -193 -279 -193h-61zM263 457v-264h46c75 0 133 38 133 137c0 98 -50 127 -122 127h-57z" />
    <glyph glyph-name="onequarter" unicode="&#xbc;" horiz-adv-x="859" 
d="M664 634l-381 -646h-67l379 646h69zM296 256h-224v43c14 1 40 4 59 5v249c-19 -2 -34 -2 -54 -3v43c46 8 97 24 121 37h42v-325c12 -1 31 -2 56 -6v-43zM543 119h97c0 75 2 110 3 138c-26 -34 -85 -114 -100 -138zM748 -23h-106v92h-156v36c19 32 179 233 191 246h71
v-230h59v-53h-59v-91z" />
    <glyph glyph-name="divide" unicode="&#xf7;" horiz-adv-x="622" 
d="M312 369c-23 0 -58 18 -58 60c0 35 26 61 58 61c33 0 59 -26 59 -60c0 -40 -32 -61 -59 -61zM312 15c-21 0 -58 18 -58 59c0 35 26 62 58 62c33 0 59 -27 59 -61c0 -39 -35 -60 -59 -60zM555 215h-487v79h487v-79z" />
    <glyph glyph-name="brokenbar" unicode="&#xa6;" horiz-adv-x="315" 
d="M102 -179v358h112v-358h-112zM102 691h112v-358h-112v358z" />
    <glyph glyph-name="degree" unicode="&#xb0;" horiz-adv-x="338" 
d="M172 658c60 0 114 -43 114 -119s-60 -119 -118 -119c-61 0 -116 43 -116 119c0 72 58 119 120 119zM168 615c-35 0 -63 -31 -63 -75c0 -47 28 -76 67 -76c31 0 60 28 60 75c0 44 -24 76 -64 76z" />
    <glyph glyph-name="thorn" unicode="&#xfe;" horiz-adv-x="555" 
d="M209 386v-324c19 -13 41 -20 64 -20c48 0 110 49 110 190c0 122 -49 166 -109 166c-18 0 -38 -3 -65 -12zM209 431c56 29 104 42 138 42c99 0 185 -93 185 -219c0 -181 -160 -266 -262 -266c-23 0 -42 2 -61 5v-169c27 -2 65 -7 81 -10v-52h-281v53c20 4 41 7 57 9v823
c-16 3 -32 6 -49 9v53h42c84 0 134 3 153 6c-1 -29 -3 -61 -3 -78v-206z" />
    <glyph glyph-name="threequarters" unicode="&#xbe;" horiz-adv-x="861" 
d="M684 634l-381 -646h-67l379 646h69zM549 120h98c0 75 1 110 3 138c-26 -34 -85 -115 -101 -138zM754 -22h-105v91h-156v37c18 32 179 233 191 246h70v-230h59v-53h-59v-91zM359 367c0 -80 -93 -117 -182 -117c-39 0 -86 10 -109 17l-8 80h61c4 -6 18 -41 29 -59
c4 -1 8 -2 20 -2c43 0 72 34 72 73c0 46 -19 68 -72 68h-34v42h35c44 0 57 19 57 56c0 38 -17 68 -64 68c-5 0 -11 -1 -16 -2c-9 -23 -18 -51 -21 -55h-60v74c49 12 90 20 129 20c96 0 141 -39 141 -85c0 -57 -53 -80 -98 -88c60 -5 120 -29 120 -90z" />
    <glyph glyph-name="registered" unicode="&#xae;" horiz-adv-x="294" 
d="M165 474h-72v13c6 2 14 3 18 4v81c-4 1 -13 2 -18 3v16h69c39 0 50 -15 50 -31s-8 -25 -24 -30c3 -6 17 -30 26 -39l15 -4v-13h-19c-21 0 -28 1 -36 14c-4 8 -13 27 -16 34h-12v-31c5 -1 12 -2 19 -4v-13zM146 576v-39h7c17 0 23 7 23 20c0 14 -9 19 -21 19h-9zM157 658
c73 0 129 -58 129 -128c0 -61 -46 -132 -131 -132c-71 0 -126 59 -126 132c0 66 55 128 128 128zM157 635c-59 1 -100 -44 -100 -105c0 -60 41 -106 100 -106c60 0 101 44 101 106c0 61 -48 105 -101 105z" />
    <glyph glyph-name="minus" unicode="&#x2212;" horiz-adv-x="622" 
d="M555 215h-487v79h487v-79z" />
    <glyph glyph-name="eth" unicode="&#xf0;" horiz-adv-x="558" 
d="M279 36c59 0 87 82 87 218c0 88 -7 122 -16 144c-13 9 -32 14 -55 14c-47 0 -108 -31 -108 -177c0 -113 19 -199 92 -199zM461 678l-103 -55c96 -73 163 -188 163 -342c0 -166 -84 -291 -248 -291c-146 0 -241 82 -241 242c0 135 105 229 254 229c17 0 40 -3 54 -7
c-15 48 -38 89 -69 122l-129 -68l-19 42l112 59c-43 32 -94 53 -150 61l10 48c76 -4 153 -26 221 -66l127 67z" />
    <glyph glyph-name="multiply" unicode="&#xd7;" horiz-adv-x="622" 
d="M255 233l-179 182l54 54l181 -183l181 183l55 -54l-184 -181l184 -181l-55 -55l-184 184l-179 -184l-53 54z" />
    <glyph glyph-name="copyright" unicode="&#xa9;" horiz-adv-x="758" 
d="M380 656c190 0 328 -144 328 -333c0 -191 -146 -332 -328 -332c-192 0 -329 141 -329 332s146 333 329 333zM380 613c-160 0 -280 -117 -280 -289c0 -173 132 -290 280 -290c157 0 276 115 276 290c0 171 -125 289 -276 289zM519 502v-92h-39c-9 23 -23 47 -31 52
c-7 6 -27 9 -41 9c-62 0 -97 -54 -97 -136c0 -107 48 -154 108 -154c13 0 22 1 29 5c12 7 28 29 36 40h40c-5 -13 -18 -55 -23 -66c-25 -10 -60 -17 -92 -17c-108 0 -210 56 -210 184c0 101 68 182 208 182c38 0 84 -7 100 -7h12z" />
    <glyph glyph-name="Aacute" unicode="&#xc1;" horiz-adv-x="647" 
d="M191 282h170l-85 244zM215 0h-234v53c28 4 57 8 68 10c27 64 143 382 188 509c7 17 13 36 8 76h140c14 -45 163 -451 217 -587c18 -1 38 -5 64 -8v-53h-306v52c16 3 51 8 77 9l-59 164h-204l-54 -163c31 -2 68 -6 95 -10v-52zM256 702l101 136h138v-35l-158 -101h-81z
" />
    <glyph glyph-name="Acircumflex" unicode="&#xc2;" horiz-adv-x="647" 
d="M191 282h170l-85 244zM215 0h-234v53c28 4 57 8 68 10c27 64 143 382 188 509c7 17 13 36 8 76h140c14 -45 163 -451 217 -587c18 -1 38 -5 64 -8v-53h-306v52c16 3 51 8 77 9l-59 164h-204l-54 -163c31 -2 68 -6 95 -10v-52zM484 735v-50l-168 64l-165 -64v50l150 100
h37z" />
    <glyph glyph-name="Adieresis" unicode="&#xc4;" horiz-adv-x="647" 
d="M191 282h170l-85 244zM215 0h-234v53c28 4 57 8 68 10c27 64 143 382 188 509c7 17 13 36 8 76h140c14 -45 163 -451 217 -587c18 -1 38 -5 64 -8v-53h-306v52c16 3 51 8 77 9l-59 164h-204l-54 -163c31 -2 68 -6 95 -10v-52zM207 814c31 0 55 -31 55 -61
c0 -42 -29 -60 -58 -60c-24 0 -55 21 -55 58c0 32 21 63 58 63zM428 813c36 0 57 -30 57 -60c0 -31 -25 -60 -58 -60c-30 0 -58 25 -58 59c0 41 33 61 59 61z" />
    <glyph glyph-name="Agrave" unicode="&#xc0;" horiz-adv-x="647" 
d="M191 282h170l-85 244zM215 0h-234v53c28 4 57 8 68 10c27 64 143 382 188 509c7 17 13 36 8 76h140c14 -45 163 -451 217 -587c18 -1 38 -5 64 -8v-53h-306v52c16 3 51 8 77 9l-59 164h-204l-54 -163c31 -2 68 -6 95 -10v-52zM273 833l100 -135h-81l-159 101v34h140z" />
    <glyph glyph-name="Aring" unicode="&#xc5;" horiz-adv-x="647" 
d="M191 282h170l-85 244zM215 0h-234v53c28 4 57 8 68 10c27 64 143 382 188 509c7 17 13 36 8 76h140c14 -45 163 -451 217 -587c18 -1 38 -5 64 -8v-53h-306v52c16 3 51 8 77 9l-59 164h-204l-54 -163c31 -2 68 -6 95 -10v-52zM316 851c59 0 97 -31 97 -86
c0 -54 -43 -85 -97 -85c-58 0 -94 33 -94 85c0 55 36 86 94 86zM315 816c-28 0 -46 -18 -46 -51s21 -50 47 -50c28 0 48 15 48 51c0 31 -21 50 -49 50z" />
    <glyph glyph-name="Atilde" unicode="&#xc3;" horiz-adv-x="647" 
d="M191 282h170l-85 244zM215 0h-234v53c28 4 57 8 68 10c27 64 143 382 188 509c7 17 13 36 8 76h140c14 -45 163 -451 217 -587c18 -1 38 -5 64 -8v-53h-306v52c16 3 51 8 77 9l-59 164h-204l-54 -163c31 -2 68 -6 95 -10v-52zM431 826h57c6 -91 -41 -124 -94 -124
c-29 0 -56 10 -82 20c-34 13 -59 19 -74 19c-20 0 -32 -6 -34 -41h-54c-7 89 40 120 94 120c30 0 57 -7 96 -21c15 -6 44 -17 60 -17s31 5 31 44z" />
    <glyph glyph-name="Ccedilla" unicode="&#xc7;" horiz-adv-x="668" 
d="M550 129h81c-11 -30 -44 -109 -54 -130c-32 -4 -101 -11 -152 -11h-3l-31 -30c68 -19 100 -50 100 -97c0 -69 -73 -110 -189 -104v38c42 1 96 12 96 54c0 34 -48 43 -86 50v29l65 62c-184 16 -327 123 -327 338c0 187 131 329 378 329c84 0 156 -8 192 -10v-141h-71
c-6 8 -26 47 -45 90c-13 6 -40 10 -73 10c-109 0 -211 -65 -211 -265c0 -206 111 -291 227 -291c16 0 42 2 48 4c21 30 50 71 55 75z" />
    <glyph glyph-name="Eacute" unicode="&#xc9;" horiz-adv-x="629" 
d="M562 648v-141h-70c-4 3 -27 47 -44 84h-185v-229h140c5 23 17 67 23 85h53v-231h-53c-7 20 -17 58 -23 87h-140v-246h214c17 30 59 91 66 97h70l-38 -154h-546v53c27 3 54 8 78 10v522c-16 2 -51 5 -78 10v53h533zM251 705l101 135h139v-34l-159 -101h-81z" />
    <glyph glyph-name="Ecircumflex" unicode="&#xca;" horiz-adv-x="629" 
d="M562 648v-141h-70c-4 3 -27 47 -44 84h-185v-229h140c5 23 17 67 23 85h53v-231h-53c-7 20 -17 58 -23 87h-140v-246h214c17 30 59 91 66 97h70l-38 -154h-546v53c27 3 54 8 78 10v522c-16 2 -51 5 -78 10v53h533zM482 752v-50l-168 63l-166 -63v50l150 100h38z" />
    <glyph glyph-name="Edieresis" unicode="&#xcb;" horiz-adv-x="629" 
d="M562 648v-141h-70c-4 3 -27 47 -44 84h-185v-229h140c5 23 17 67 23 85h53v-231h-53c-7 20 -17 58 -23 87h-140v-246h214c17 30 59 91 66 97h70l-38 -154h-546v53c27 3 54 8 78 10v522c-16 2 -51 5 -78 10v53h533zM205 830c31 0 54 -30 54 -61c0 -42 -29 -60 -57 -60
c-24 0 -55 21 -55 58c0 32 20 63 58 63zM426 829c36 0 57 -29 57 -60c0 -30 -25 -60 -58 -60c-30 0 -58 26 -58 59c0 41 33 61 59 61z" />
    <glyph glyph-name="Egrave" unicode="&#xc8;" horiz-adv-x="629" 
d="M562 648v-141h-70c-4 3 -27 47 -44 84h-185v-229h140c5 23 17 67 23 85h53v-231h-53c-7 20 -17 58 -23 87h-140v-246h214c17 30 59 91 66 97h70l-38 -154h-546v53c27 3 54 8 78 10v522c-16 2 -51 5 -78 10v53h533zM290 838l100 -135h-81l-159 101v34h140z" />
    <glyph glyph-name="Iacute" unicode="&#xcd;" horiz-adv-x="365" 
d="M337 0h-312v53c25 4 55 8 78 9v523c-20 2 -50 6 -78 10v53h312v-53c-24 -4 -58 -8 -78 -10v-523c20 -2 53 -5 78 -9v-53zM127 704l101 136h138v-35l-158 -101h-81z" />
    <glyph glyph-name="Icircumflex" unicode="&#xce;" horiz-adv-x="365" 
d="M337 0h-312v53c25 4 55 8 78 9v523c-20 2 -50 6 -78 10v53h312v-53c-24 -4 -58 -8 -78 -10v-523c20 -2 53 -5 78 -9v-53zM352 754v-51l-168 64l-166 -64v51l150 99h37z" />
    <glyph glyph-name="Idieresis" unicode="&#xcf;" horiz-adv-x="365" 
d="M337 0h-312v53c25 4 55 8 78 9v523c-20 2 -50 6 -78 10v53h312v-53c-24 -4 -58 -8 -78 -10v-523c20 -2 53 -5 78 -9v-53zM75 825c31 0 54 -31 54 -61c0 -42 -29 -60 -57 -60c-24 0 -56 21 -56 58c0 32 21 63 59 63zM296 824c36 0 57 -30 57 -60s-25 -60 -58 -60
c-30 0 -58 26 -58 59c0 41 33 61 59 61z" />
    <glyph glyph-name="Igrave" unicode="&#xcc;" horiz-adv-x="365" 
d="M337 0h-312v53c25 4 55 8 78 9v523c-20 2 -50 6 -78 10v53h312v-53c-24 -4 -58 -8 -78 -10v-523c20 -2 53 -5 78 -9v-53zM137 839l100 -136h-81l-159 101v35h140z" />
    <glyph glyph-name="Ntilde" unicode="&#xd1;" horiz-adv-x="734" 
d="M276 0h-248v53c24 3 58 8 77 10c1 138 2 409 4 523c-15 3 -55 6 -79 9v53h219c174 -256 303 -433 318 -460h2c-1 109 2 300 -2 398c-17 1 -67 5 -99 9v53h245v-53c-17 -3 -58 -8 -75 -9c0 -59 -1 -266 -2 -398c0 -66 1 -171 3 -188h-120c-234 355 -329 492 -346 523h-1
c2 -89 1 -401 4 -461c24 -2 63 -5 100 -10v-52zM492 835h56c6 -91 -40 -124 -94 -124c-28 0 -55 10 -81 19c-34 14 -59 19 -74 19c-20 0 -32 -6 -34 -41h-54c-7 89 40 120 93 120c31 0 58 -6 96 -21c16 -6 44 -17 61 -17c15 0 30 6 31 45z" />
    <glyph glyph-name="Oacute" unicode="&#xd3;" horiz-adv-x="762" 
d="M383 -12c-209 0 -334 144 -334 336c0 189 124 334 338 334c205 0 326 -140 326 -330c0 -186 -119 -340 -330 -340zM392 36c87 0 149 74 149 277c0 212 -78 297 -170 297c-84 0 -150 -64 -150 -266s75 -308 171 -308zM309 709l101 136h139v-35l-159 -101h-81z" />
    <glyph glyph-name="Ocircumflex" unicode="&#xd4;" horiz-adv-x="762" 
d="M383 -12c-209 0 -334 144 -334 336c0 189 124 334 338 334c205 0 326 -140 326 -330c0 -186 -119 -340 -330 -340zM392 36c87 0 149 74 149 277c0 212 -78 297 -170 297c-84 0 -150 -64 -150 -266s75 -308 171 -308zM547 759v-51l-167 64l-166 -64v51l150 99h37z" />
    <glyph glyph-name="Odieresis" unicode="&#xd6;" horiz-adv-x="762" 
d="M383 -12c-209 0 -334 144 -334 336c0 189 124 334 338 334c205 0 326 -140 326 -330c0 -186 -119 -340 -330 -340zM392 36c87 0 149 74 149 277c0 212 -78 297 -170 297c-84 0 -150 -64 -150 -266s75 -308 171 -308zM270 830c32 0 55 -30 55 -61c0 -42 -29 -60 -57 -60
c-24 0 -56 21 -56 58c0 32 21 63 58 63zM492 829c36 0 57 -29 57 -60c0 -30 -26 -60 -58 -60c-30 0 -59 26 -59 59c0 41 34 61 60 61z" />
    <glyph glyph-name="Ograve" unicode="&#xd2;" horiz-adv-x="762" 
d="M383 -12c-209 0 -334 144 -334 336c0 189 124 334 338 334c205 0 326 -140 326 -330c0 -186 -119 -340 -330 -340zM392 36c87 0 149 74 149 277c0 212 -78 297 -170 297c-84 0 -150 -64 -150 -266s75 -308 171 -308zM354 846l99 -136h-80l-159 101v35h140z" />
    <glyph glyph-name="Otilde" unicode="&#xd5;" horiz-adv-x="762" 
d="M383 -12c-209 0 -334 144 -334 336c0 189 124 334 338 334c205 0 326 -140 326 -330c0 -186 -119 -340 -330 -340zM392 36c87 0 149 74 149 277c0 212 -78 297 -170 297c-84 0 -150 -64 -150 -266s75 -308 171 -308zM496 842h57c6 -91 -41 -124 -94 -124
c-29 0 -56 10 -82 19c-34 14 -59 20 -74 20c-20 0 -32 -7 -34 -42h-54c-7 89 40 121 94 121c30 0 57 -7 96 -22c15 -6 44 -16 60 -16s31 5 31 44z" />
    <glyph glyph-name="Scaron" unicode="&#x160;" horiz-adv-x="560" 
d="M60 17l-10 137h72c7 -8 36 -67 53 -104c12 -6 40 -12 73 -12c76 0 119 40 119 94c0 50 -25 82 -140 131c-137 59 -169 133 -169 210c0 94 70 185 251 185c71 0 123 -9 169 -11v-140h-68c-6 4 -29 50 -48 91c-16 8 -41 11 -59 11c-75 0 -111 -36 -111 -86
c0 -44 21 -81 121 -122c156 -65 202 -122 202 -213c0 -129 -117 -200 -270 -200c-89 0 -137 16 -185 29zM120 809v50l167 -63l166 63v-50l-150 -100h-37z" />
    <glyph glyph-name="Uacute" unicode="&#xda;" horiz-adv-x="717" 
d="M625 586v-366c0 -56 -12 -99 -35 -135c-38 -57 -115 -97 -224 -97c-135 0 -211 50 -246 109c-20 35 -26 76 -27 121v368c-25 2 -49 6 -68 9v53h308v-52c-26 -6 -64 -9 -84 -11v-392c1 -65 36 -134 148 -134c102 0 150 73 150 135v392c-23 2 -69 7 -89 10v52h235v-53
c-32 -5 -54 -8 -68 -9zM309 704l101 136h139v-35l-159 -101h-81z" />
    <glyph glyph-name="Ucircumflex" unicode="&#xdb;" horiz-adv-x="717" 
d="M625 586v-366c0 -56 -12 -99 -35 -135c-38 -57 -115 -97 -224 -97c-135 0 -211 50 -246 109c-20 35 -26 76 -27 121v368c-25 2 -49 6 -68 9v53h308v-52c-26 -6 -64 -9 -84 -11v-392c1 -65 36 -134 148 -134c102 0 150 73 150 135v392c-23 2 -69 7 -89 10v52h235v-53
c-32 -5 -54 -8 -68 -9zM546 753v-51l-168 64l-165 -64v51l149 99h38z" />
    <glyph glyph-name="Udieresis" unicode="&#xdc;" horiz-adv-x="717" 
d="M625 586v-366c0 -56 -12 -99 -35 -135c-38 -57 -115 -97 -224 -97c-135 0 -211 50 -246 109c-20 35 -26 76 -27 121v368c-25 2 -49 6 -68 9v53h308v-52c-26 -6 -64 -9 -84 -11v-392c1 -65 36 -134 148 -134c102 0 150 73 150 135v392c-23 2 -69 7 -89 10v52h235v-53
c-32 -5 -54 -8 -68 -9zM267 834c32 0 55 -31 55 -61c0 -42 -29 -60 -57 -60c-24 0 -56 21 -56 58c0 31 21 63 58 63zM489 833c36 0 57 -30 57 -60c0 -31 -26 -60 -58 -60c-30 0 -58 25 -58 59c0 41 33 61 59 61z" />
    <glyph glyph-name="Ugrave" unicode="&#xd9;" horiz-adv-x="717" 
d="M625 586v-366c0 -56 -12 -99 -35 -135c-38 -57 -115 -97 -224 -97c-135 0 -211 50 -246 109c-20 35 -26 76 -27 121v368c-25 2 -49 6 -68 9v53h308v-52c-26 -6 -64 -9 -84 -11v-392c1 -65 36 -134 148 -134c102 0 150 73 150 135v392c-23 2 -69 7 -89 10v52h235v-53
c-32 -5 -54 -8 -68 -9zM350 839l99 -135h-80l-159 101v34h140z" />
    <glyph glyph-name="Yacute" unicode="&#xdd;" horiz-adv-x="579" 
d="M462 0h-341v53c32 4 70 7 92 10v183c0 17 -2 26 -10 43c-44 89 -143 263 -164 297c-15 2 -34 4 -68 9v53h307v-53c-21 -2 -52 -8 -65 -9c20 -45 108 -208 129 -245c26 49 103 194 124 245c-24 3 -65 5 -88 9v53h233v-53c-25 -4 -53 -7 -71 -9
c-31 -57 -133 -240 -163 -302c-7 -14 -9 -20 -9 -39v-182c21 -2 67 -6 94 -11v-52zM252 703l101 135h139v-34l-159 -101h-81z" />
    <glyph glyph-name="Ydieresis" unicode="&#x178;" horiz-adv-x="579" 
d="M462 0h-341v53c32 4 70 7 92 10v183c0 17 -2 26 -10 43c-44 89 -143 263 -164 297c-15 2 -34 4 -68 9v53h307v-53c-21 -2 -52 -8 -65 -9c20 -45 108 -208 129 -245c26 49 103 194 124 245c-24 3 -65 5 -88 9v53h233v-53c-25 -4 -53 -7 -71 -9
c-31 -57 -133 -240 -163 -302c-7 -14 -9 -20 -9 -39v-182c21 -2 67 -6 94 -11v-52zM203 830c31 0 54 -30 54 -61c0 -42 -28 -60 -57 -60c-24 0 -55 21 -55 58c0 32 21 63 58 63zM424 829c36 0 57 -30 57 -60s-25 -60 -58 -60c-30 0 -58 26 -58 59c0 41 33 61 59 61z" />
    <glyph glyph-name="Zcaron" unicode="&#x17d;" horiz-adv-x="596" 
d="M547 0h-528v50l366 541h-230c-20 -43 -42 -85 -47 -92h-66v149h517v-53l-360 -538h250c17 28 60 93 67 99h69zM128 808v50l167 -63l166 63v-50l-150 -100h-37z" />
    <glyph glyph-name="aacute" unicode="&#xe1;" horiz-adv-x="509" 
d="M412 688l-152 -160h-64l86 174h127zM292 230h-11c-71 0 -109 -29 -109 -82c0 -54 32 -80 79 -80c15 0 27 2 43 9c-1 6 -2 12 -2 19v134zM431 334v-259c0 -5 12 -17 34 -17c8 0 11 0 19 1v-48c-21 -12 -53 -19 -88 -19c-27 0 -68 10 -89 47c-66 -41 -114 -51 -140 -51
c-61 0 -135 54 -135 138c0 124 141 149 255 149h6v67c0 40 -16 80 -80 80c-10 0 -18 -1 -25 -3c-8 -27 -24 -73 -29 -83h-90v101c63 18 135 36 191 36c127 0 171 -67 171 -139z" />
    <glyph glyph-name="acircumflex" unicode="&#xe2;" horiz-adv-x="509" 
d="M247 603l-80 -75h-63l104 158h79l104 -158h-63zM292 230h-11c-71 0 -109 -29 -109 -82c0 -54 32 -80 79 -80c15 0 27 2 43 9c-1 6 -2 12 -2 19v134zM431 334v-259c0 -5 12 -17 34 -17c8 0 11 0 19 1v-48c-21 -12 -53 -19 -88 -19c-27 0 -68 10 -89 47
c-66 -41 -114 -51 -140 -51c-61 0 -135 54 -135 138c0 124 141 149 255 149h6v67c0 40 -16 80 -80 80c-10 0 -18 -1 -25 -3c-8 -27 -24 -73 -29 -83h-90v101c63 18 135 36 191 36c127 0 171 -67 171 -139z" />
    <glyph glyph-name="adieresis" unicode="&#xe4;" horiz-adv-x="509" 
d="M360 537c-48 0 -68 35 -68 69c0 30 20 69 69 69c44 0 67 -32 67 -69c0 -40 -25 -69 -68 -69zM149 537c-47 0 -69 35 -69 69c0 30 22 69 70 69c43 0 67 -32 67 -69c0 -40 -26 -69 -68 -69zM292 230h-11c-71 0 -109 -29 -109 -82c0 -54 32 -80 79 -80c15 0 27 2 43 9
c-1 6 -2 12 -2 19v134zM431 334v-259c0 -5 12 -17 34 -17c8 0 11 0 19 1v-48c-21 -12 -53 -19 -88 -19c-27 0 -68 10 -89 47c-66 -41 -114 -51 -140 -51c-61 0 -135 54 -135 138c0 124 141 149 255 149h6v67c0 40 -16 80 -80 80c-10 0 -18 -1 -25 -3c-8 -27 -24 -73 -29 -83
h-90v101c63 18 135 36 191 36c127 0 171 -67 171 -139z" />
    <glyph glyph-name="agrave" unicode="&#xe0;" horiz-adv-x="509" 
d="M320 528h-64l-151 159l4 15h130zM292 230h-11c-71 0 -109 -29 -109 -82c0 -54 32 -80 79 -80c15 0 27 2 43 9c-1 6 -2 12 -2 19v134zM431 334v-259c0 -5 12 -17 34 -17c8 0 11 0 19 1v-48c-21 -12 -53 -19 -88 -19c-27 0 -68 10 -89 47c-66 -41 -114 -51 -140 -51
c-61 0 -135 54 -135 138c0 124 141 149 255 149h6v67c0 40 -16 80 -80 80c-10 0 -18 -1 -25 -3c-8 -27 -24 -73 -29 -83h-90v101c63 18 135 36 191 36c127 0 171 -67 171 -139z" />
    <glyph glyph-name="aring" unicode="&#xe5;" horiz-adv-x="509" 
d="M254 659c-28 0 -46 -18 -46 -51s21 -50 47 -50c28 0 48 15 48 52c0 30 -21 49 -49 49zM255 523c-58 0 -94 33 -94 85c0 55 36 86 94 86c59 0 96 -30 96 -86c0 -54 -42 -85 -96 -85zM292 230h-11c-71 0 -109 -29 -109 -82c0 -54 32 -80 79 -80c15 0 27 2 43 9
c-1 6 -2 12 -2 19v134zM431 334v-259c0 -5 12 -17 34 -17c8 0 11 0 19 1v-48c-21 -12 -53 -19 -88 -19c-27 0 -68 10 -89 47c-66 -41 -114 -51 -140 -51c-61 0 -135 54 -135 138c0 124 141 149 255 149h6v67c0 40 -16 80 -80 80c-10 0 -18 -1 -25 -3c-8 -27 -24 -73 -29 -83
h-90v101c63 18 135 36 191 36c127 0 171 -67 171 -139z" />
    <glyph glyph-name="atilde" unicode="&#xe3;" horiz-adv-x="509" 
d="M147 539h-56c-6 93 41 125 92 125c29 0 49 -6 87 -21c14 -6 37 -17 52 -17s30 7 30 46h54c5 -95 -39 -128 -89 -128c-27 0 -49 10 -74 20c-32 14 -48 18 -63 18c-18 0 -31 -8 -33 -43zM292 230h-11c-71 0 -109 -29 -109 -82c0 -54 32 -80 79 -80c15 0 27 2 43 9
c-1 6 -2 12 -2 19v134zM431 334v-259c0 -5 12 -17 34 -17c8 0 11 0 19 1v-48c-21 -12 -53 -19 -88 -19c-27 0 -68 10 -89 47c-66 -41 -114 -51 -140 -51c-61 0 -135 54 -135 138c0 124 141 149 255 149h6v67c0 40 -16 80 -80 80c-10 0 -18 -1 -25 -3c-8 -27 -24 -73 -29 -83
h-90v101c63 18 135 36 191 36c127 0 171 -67 171 -139z" />
    <glyph glyph-name="ccedilla" unicode="&#xe7;" horiz-adv-x="470" 
d="M436 350h-80c-9 11 -24 44 -35 74c-3 1 -7 2 -19 2c-49 0 -121 -43 -121 -177c0 -125 71 -188 148 -188c32 0 60 1 107 23v-47c-43 -34 -94 -45 -134 -48l-30 -29c67 -19 99 -50 99 -97c0 -70 -73 -111 -189 -104v38c42 1 96 12 96 54c0 34 -48 43 -86 50v29l61 59
c-121 10 -223 94 -223 241c0 142 119 243 280 243c58 0 93 -8 126 -14v-109z" />
    <glyph glyph-name="eacute" unicode="&#xe9;" horiz-adv-x="496" 
d="M267 528h-64l86 174h127l3 -14zM440 91v-49c-65 -48 -133 -54 -177 -54c-144 0 -234 102 -234 240c1 124 86 245 238 245s198 -107 198 -193c0 -9 0 -19 -2 -32c-18 -5 -53 -7 -160 -7h-125c-2 -133 70 -180 144 -180c38 0 74 6 118 30zM179 290h89c24 0 49 0 58 1
c1 12 1 21 1 25c0 55 -14 111 -66 111c-45 0 -75 -48 -82 -137z" />
    <glyph glyph-name="ecircumflex" unicode="&#xea;" horiz-adv-x="496" 
d="M440 91v-49c-65 -48 -133 -54 -177 -54c-144 0 -234 102 -234 240c1 124 86 245 238 245s198 -107 198 -193c0 -9 0 -19 -2 -32c-18 -5 -53 -7 -160 -7h-125c-2 -133 70 -180 144 -180c38 0 74 6 118 30zM179 290h89c24 0 49 0 58 1c1 12 1 21 1 25c0 55 -14 111 -66 111
c-45 0 -75 -48 -82 -137zM407 528h-64l-81 75l-80 -75h-63l104 158h79z" />
    <glyph glyph-name="edieresis" unicode="&#xeb;" horiz-adv-x="496" 
d="M86 606c0 30 22 69 70 69c43 0 67 -32 67 -69c0 -40 -26 -69 -68 -69c-47 0 -69 35 -69 69zM298 606c0 30 20 69 69 69c44 0 67 -32 67 -69c0 -40 -25 -69 -68 -69c-48 0 -68 35 -68 69zM440 91v-49c-65 -48 -133 -54 -177 -54c-144 0 -234 102 -234 240
c1 124 86 245 238 245s198 -107 198 -193c0 -9 0 -19 -2 -32c-18 -5 -53 -7 -160 -7h-125c-2 -133 70 -180 144 -180c38 0 74 6 118 30zM179 290h89c24 0 49 0 58 1c1 12 1 21 1 25c0 55 -14 111 -66 111c-45 0 -75 -48 -82 -137z" />
    <glyph glyph-name="egrave" unicode="&#xe8;" horiz-adv-x="496" 
d="M440 91v-49c-65 -48 -133 -54 -177 -54c-144 0 -234 102 -234 240c1 124 86 245 238 245s198 -107 198 -193c0 -9 0 -19 -2 -32c-18 -5 -53 -7 -160 -7h-125c-2 -133 70 -180 144 -180c38 0 74 6 118 30zM179 290h89c24 0 49 0 58 1c1 12 1 21 1 25c0 55 -14 111 -66 111
c-45 0 -75 -48 -82 -137zM324 528h-64l-151 159l4 15h129z" />
    <glyph glyph-name="iacute" unicode="&#xed;" horiz-adv-x="301" 
d="M151 528h-64l86 174h126l3 -14zM270 0h-243v53c18 3 45 6 55 8v325c-10 8 -35 23 -51 28v47h70c58 1 113 2 124 3v-404c13 -1 29 -5 45 -8v-52z" />
    <glyph glyph-name="icircumflex" unicode="&#xee;" horiz-adv-x="301" 
d="M270 0h-243v53c18 3 45 6 55 8v325c-10 8 -35 23 -51 28v47h70c58 1 113 2 124 3v-404c13 -1 29 -5 45 -8v-52zM287 528h-63l-81 75l-80 -75h-63l104 158h79z" />
    <glyph glyph-name="idieresis" unicode="&#xef;" horiz-adv-x="301" 
d="M-25 606c0 30 22 69 70 69c43 0 67 -32 67 -69c0 -40 -26 -69 -68 -69c-47 0 -69 35 -69 69zM187 606c0 30 20 69 69 69c44 0 67 -32 67 -69c0 -40 -25 -69 -68 -69c-48 0 -68 35 -68 69zM270 0h-243v53c18 3 45 6 55 8v325c-10 8 -35 23 -51 28v47h70c58 1 113 2 124 3
v-404c13 -1 29 -5 45 -8v-52z" />
    <glyph glyph-name="igrave" unicode="&#xec;" horiz-adv-x="301" 
d="M270 0h-243v53c18 3 45 6 55 8v325c-10 8 -35 23 -51 28v47h70c58 1 113 2 124 3v-404c13 -1 29 -5 45 -8v-52zM196 528h-64l-152 159l4 15h130z" />
    <glyph glyph-name="ntilde" unicode="&#xf1;" horiz-adv-x="591" 
d="M393 681h54c5 -95 -39 -128 -90 -128c-26 0 -48 10 -73 20c-32 13 -49 18 -63 18c-19 0 -31 -8 -33 -43h-56c-6 93 40 125 91 125c30 0 50 -6 87 -21c15 -6 37 -17 53 -17c15 0 29 7 30 46zM274 0h-247v53c18 3 39 6 55 8v325c-10 8 -38 23 -51 28v47h65c42 0 99 1 120 3
c2 -6 4 -37 5 -51c57 41 102 60 147 60c101 0 145 -81 145 -162v-250c16 -2 35 -6 50 -8v-53h-243v53c21 4 36 6 50 8v251c0 46 -19 82 -73 82c-24 0 -50 -8 -72 -21v-312c14 -2 37 -5 49 -8v-53z" />
    <glyph glyph-name="oacute" unicode="&#xf3;" horiz-adv-x="560" 
d="M285 528h-64l86 174h126l4 -14zM285 473c140 0 245 -96 245 -235c0 -158 -113 -250 -253 -250c-152 0 -247 107 -247 243c0 138 102 242 255 242zM287 34c69 0 86 93 86 190c0 115 -26 202 -97 202c-69 0 -89 -87 -89 -184c0 -98 25 -208 100 -208z" />
    <glyph glyph-name="ocircumflex" unicode="&#xf4;" horiz-adv-x="560" 
d="M285 473c140 0 245 -96 245 -235c0 -158 -113 -250 -253 -250c-152 0 -247 107 -247 243c0 138 102 242 255 242zM287 34c69 0 86 93 86 190c0 115 -26 202 -97 202c-69 0 -89 -87 -89 -184c0 -98 25 -208 100 -208zM423 528h-64l-80 75l-80 -75h-63l104 158h78z" />
    <glyph glyph-name="odieresis" unicode="&#xf6;" horiz-adv-x="560" 
d="M105 606c0 30 22 69 70 69c43 0 67 -32 67 -69c0 -40 -26 -69 -68 -69c-47 0 -69 35 -69 69zM317 606c0 30 21 69 69 69c44 0 67 -32 67 -69c0 -40 -25 -69 -67 -69c-48 0 -69 35 -69 69zM285 473c140 0 245 -96 245 -235c0 -158 -113 -250 -253 -250
c-152 0 -247 107 -247 243c0 138 102 242 255 242zM287 34c69 0 86 93 86 190c0 115 -26 202 -97 202c-69 0 -89 -87 -89 -184c0 -98 25 -208 100 -208z" />
    <glyph glyph-name="ograve" unicode="&#xf2;" horiz-adv-x="560" 
d="M285 473c140 0 245 -96 245 -235c0 -158 -113 -250 -253 -250c-152 0 -247 107 -247 243c0 138 102 242 255 242zM287 34c69 0 86 93 86 190c0 115 -26 202 -97 202c-69 0 -89 -87 -89 -184c0 -98 25 -208 100 -208zM338 528h-64l-152 159l4 15h130z" />
    <glyph glyph-name="otilde" unicode="&#xf5;" horiz-adv-x="560" 
d="M382 672h54c5 -95 -38 -128 -89 -128c-27 0 -49 10 -74 20c-32 14 -48 18 -63 18c-18 0 -31 -8 -33 -43h-55c-7 93 40 125 91 125c30 0 49 -6 87 -21c14 -6 37 -17 53 -17c15 0 29 7 29 46zM285 473c140 0 245 -96 245 -235c0 -158 -113 -250 -253 -250
c-152 0 -247 107 -247 243c0 138 102 242 255 242zM287 34c69 0 86 93 86 190c0 115 -26 202 -97 202c-69 0 -89 -87 -89 -184c0 -98 25 -208 100 -208z" />
    <glyph glyph-name="scaron" unicode="&#x161;" horiz-adv-x="428" 
d="M77 693h64l81 -74l80 74h63l-104 -157h-79zM369 460v-108h-69c-3 4 -24 39 -38 70c-7 3 -19 5 -30 5c-51 0 -71 -27 -71 -55c0 -27 11 -48 91 -78c119 -46 145 -93 145 -150c0 -105 -101 -156 -209 -156c-54 0 -98 10 -142 20c-2 25 -8 94 -10 117h73c5 -7 28 -57 40 -83
c11 -6 28 -8 41 -8c53 0 80 26 80 59c0 29 -9 49 -85 80c-95 40 -142 80 -142 156c0 54 28 144 194 144c57 0 113 -10 132 -13z" />
    <glyph glyph-name="uacute" unicode="&#xfa;" horiz-adv-x="577" 
d="M286 528h-64l86 174h126l3 -14zM554 70v-52c-41 -3 -154 -25 -180 -30c-5 19 -8 41 -11 63c-57 -51 -102 -63 -150 -63c-67 0 -140 39 -140 157v244c-14 11 -35 21 -48 25v47h63c53 0 118 2 131 3c-2 -25 -3 -49 -3 -61v-268c0 -29 22 -65 69 -65c21 0 48 6 72 23v294
c-14 9 -46 22 -63 26v48h73c63 0 121 2 133 3v-386c9 -3 33 -5 54 -8z" />
    <glyph glyph-name="ucircumflex" unicode="&#xfb;" horiz-adv-x="577" 
d="M554 70v-52c-41 -3 -154 -25 -180 -30c-5 19 -8 41 -11 63c-57 -51 -102 -63 -150 -63c-67 0 -140 39 -140 157v244c-14 11 -35 21 -48 25v47h63c53 0 118 2 131 3c-2 -25 -3 -49 -3 -61v-268c0 -29 22 -65 69 -65c21 0 48 6 72 23v294c-14 9 -46 22 -63 26v48h73
c63 0 121 2 133 3v-386c9 -3 33 -5 54 -8zM430 528h-64l-81 75l-80 -75h-63l104 158h79z" />
    <glyph glyph-name="udieresis" unicode="&#xfc;" horiz-adv-x="577" 
d="M101 606c0 30 22 69 70 69c43 0 67 -32 67 -69c0 -40 -26 -69 -68 -69c-47 0 -69 35 -69 69zM313 606c0 30 21 69 69 69c44 0 67 -32 67 -69c0 -40 -25 -69 -67 -69c-48 0 -69 35 -69 69zM554 70v-52c-41 -3 -154 -25 -180 -30c-5 19 -8 41 -11 63
c-57 -51 -102 -63 -150 -63c-67 0 -140 39 -140 157v244c-14 11 -35 21 -48 25v47h63c53 0 118 2 131 3c-2 -25 -3 -49 -3 -61v-268c0 -29 22 -65 69 -65c21 0 48 6 72 23v294c-14 9 -46 22 -63 26v48h73c63 0 121 2 133 3v-386c9 -3 33 -5 54 -8z" />
    <glyph glyph-name="ugrave" unicode="&#xf9;" horiz-adv-x="577" 
d="M554 70v-52c-41 -3 -154 -25 -180 -30c-5 19 -8 41 -11 63c-57 -51 -102 -63 -150 -63c-67 0 -140 39 -140 157v244c-14 11 -35 21 -48 25v47h63c53 0 118 2 131 3c-2 -25 -3 -49 -3 -61v-268c0 -29 22 -65 69 -65c21 0 48 6 72 23v294c-14 9 -46 22 -63 26v48h73
c63 0 121 2 133 3v-386c9 -3 33 -5 54 -8zM327 528h-64l-151 159l4 15h129z" />
    <glyph glyph-name="yacute" unicode="&#xfd;" horiz-adv-x="502" 
d="M285 528h-64l86 174h127l3 -14zM45 397c-8 1 -30 6 -51 11v53h262v-53c-13 -3 -44 -7 -54 -7c18 -49 88 -217 98 -244c28 64 87 213 95 241c-15 1 -57 6 -84 10v53h208v-53c-19 -5 -43 -8 -56 -9c-33 -81 -94 -217 -169 -390c-23 -52 -69 -172 -99 -253
c-27 -2 -102 12 -118 26v11c46 57 107 140 144 202c2 3 3 7 1 12c-24 55 -145 324 -177 390z" />
    <glyph glyph-name="ydieresis" unicode="&#xff;" horiz-adv-x="502" 
d="M45 397c-8 1 -30 6 -51 11v53h262v-53c-13 -3 -44 -7 -54 -7c18 -49 88 -217 98 -244c28 64 87 213 95 241c-15 1 -57 6 -84 10v53h208v-53c-19 -5 -43 -8 -56 -9c-33 -81 -94 -217 -169 -390c-23 -52 -69 -172 -99 -253c-27 -2 -102 12 -118 26v11
c46 57 107 140 144 202c2 3 3 7 1 12c-24 55 -145 324 -177 390zM97 606c0 30 23 69 71 69c43 0 66 -32 66 -69c0 -40 -25 -69 -67 -69c-47 0 -70 35 -70 69zM309 606c0 30 21 69 70 69c44 0 67 -32 67 -69c0 -40 -25 -69 -68 -69c-48 0 -69 35 -69 69z" />
    <glyph glyph-name="zcaron" unicode="&#x17e;" horiz-adv-x="451" 
d="M84 685h64l80 -74l80 74h63l-104 -157h-78zM105 328h-72v133h389v-44c-58 -87 -203 -312 -239 -366l139 1c10 20 37 72 44 84h72c-7 -39 -23 -114 -27 -136h-387v47c70 101 187 279 242 363h-130c-9 -31 -26 -73 -31 -82z" />
    <glyph glyph-name="uni2113" unicode="&#x2113;" horiz-adv-x="480" 
d="M402 157l39 -18c-31 -105 -96 -148 -176 -148c-106 0 -146 74 -146 165v25c-14 -11 -45 -26 -58 -34l-3 46c20 13 39 25 61 41v211c0 184 94 236 169 236c54 0 119 -34 119 -140c0 -99 -42 -187 -153 -288v-91c0 -55 18 -88 59 -88c34 0 60 18 89 83zM254 520v-193
c61 75 81 150 81 215c0 63 -17 94 -40 94c-24 0 -41 -15 -41 -116z" />
    <glyph glyph-name="uni2116" unicode="&#x2116;" horiz-adv-x="989" 
d="M786 234c-113 0 -161 83 -161 162c0 114 80 168 163 168c103 0 161 -70 161 -167c0 -85 -55 -163 -163 -163zM790 273c35 0 51 38 51 118c0 104 -20 136 -56 136s-52 -35 -52 -121c0 -88 19 -133 57 -133zM641 176h287v-58h-287v58zM272 0h-244v52c24 3 58 8 77 10
c1 136 2 390 4 501c-22 3 -55 6 -79 9v52h224l235 -449h2c-1 107 2 291 -2 388c-17 1 -67 5 -99 9v52h242v-52c-17 -3 -59 -8 -75 -9c0 -58 -1 -248 -2 -378c0 -65 1 -168 3 -185h-121l-268 520h-1c3 -88 2 -399 5 -459c24 -1 62 -5 99 -9v-52z" />
    <glyph glyph-name="uni2117" unicode="&#x2117;" horiz-adv-x="751" 
d="M376 651c188 0 324 -140 324 -327c0 -189 -144 -327 -324 -327c-190 0 -325 138 -325 327s144 327 325 327zM376 610c-158 0 -277 -115 -277 -285c0 -172 131 -286 277 -286c156 0 273 113 273 286c0 169 -123 285 -273 285zM371 260v-60c18 -1 38 -3 53 -5v-38h-195v38
c19 4 38 5 46 5v246c-12 0 -35 3 -46 5v37h184c98 0 146 -41 146 -109c0 -94 -98 -119 -166 -119h-22zM371 300h19c34 0 70 13 70 75c0 58 -20 75 -64 75h-25v-150z" />
    <glyph glyph-name="uni2120" unicode="&#x2120;" horiz-adv-x="404" 
d="M143 607h-28c-3 5 -7 16 -10 24c-3 2 -9 2 -17 2c-11 0 -22 -4 -22 -14c0 -8 4 -15 30 -24c38 -15 55 -27 55 -54c0 -33 -32 -52 -74 -52c-18 0 -43 6 -54 9c-1 12 -2 27 -4 41h27c3 -5 10 -18 16 -30c7 -1 7 -1 16 -1c11 0 25 4 25 16c0 9 -3 15 -31 27
c-39 15 -51 29 -51 52c0 22 13 50 67 50c22 0 36 -5 55 -3v-43zM245 492h-80v19c18 4 18 5 25 6c2 15 6 85 7 106c-6 1 -14 2 -28 5v20h81l41 -84l36 84h77v-20c-9 -2 -19 -4 -26 -5c0 -26 1 -83 2 -107c8 -1 15 -2 25 -5v-19h-97v19c8 3 17 4 25 5c0 20 1 57 0 98
c-10 -26 -35 -89 -48 -120h-19c-17 40 -32 79 -49 121c0 -23 -2 -79 -2 -99c6 -1 11 -1 30 -5v-19z" />
    <glyph glyph-name="uni2126" unicode="&#x2126;" horiz-adv-x="764" 
d="M333 0h-291l-19 186h55c11 -11 43 -56 52 -66h115v9c-117 51 -178 148 -178 253c0 152 116 276 321 276c203 0 316 -116 316 -267c0 -115 -59 -203 -183 -264v-7h117c8 11 35 49 48 62h57l-40 -182h-282l13 119c82 59 103 148 103 261c0 112 -41 231 -157 231
c-94 0 -145 -85 -145 -215c0 -111 29 -215 96 -278z" />
    <glyph glyph-name="estimated" unicode="&#x212e;" horiz-adv-x="803" 
d="M757 302h-581c-2 0 -4 -1 -4 -4v-175c0 -8 3 -14 8 -20c55 -59 134 -97 220 -97c92 0 176 42 232 108h53c-67 -76 -170 -126 -286 -126c-198 0 -360 144 -360 322c0 181 162 324 360 324c200 0 358 -143 358 -324v-8zM176 321h446c4 0 5 2 5 5v177c0 9 -4 15 -10 22
c-56 54 -133 89 -217 89c-86 0 -163 -36 -219 -92c-6 -6 -9 -14 -9 -23v-173c0 -3 2 -5 4 -5z" />
    <glyph glyph-name="estimated.alt" horiz-adv-x="671" 
d="M619 338h-410v-21c0 -135 61 -253 201 -253c58 0 118 9 176 49v-43c-62 -56 -143 -80 -226 -80c-191 0 -308 137 -308 319c0 175 119 325 299 325c200 0 272 -146 272 -258c0 -8 -2 -29 -4 -38zM212 386h243c7 0 9 13 9 28c0 114 -40 179 -119 179
c-83 0 -125 -84 -133 -207z" />
    <glyph glyph-name="partialdiff" unicode="&#x2202;" horiz-adv-x="554" 
d="M85 642c28 8 46 11 103 11c162 0 311 -114 312 -346c0 -183 -90 -319 -262 -319c-121 0 -197 83 -197 190c0 115 85 196 209 196c62 0 97 -16 115 -36c-6 131 -61 262 -211 262c-29 0 -55 -2 -76 -8zM251 29c76 0 106 121 111 258c-10 15 -38 31 -74 31
c-57 0 -114 -34 -114 -166c0 -94 38 -123 77 -123z" />
    <glyph glyph-name="uni2206" unicode="&#x2206;" horiz-adv-x="651" 
d="M628 64v-64h-605v64c8 15 22 41 50 107c58 137 142 327 183 430c4 13 7 30 9 47h108l204 -472c20 -49 32 -75 51 -112zM275 500l-173 -412h342c-24 68 -142 343 -169 412z" />
    <glyph glyph-name="product" unicode="&#x220f;" horiz-adv-x="720" 
d="M30 624h659v-53c-23 -4 -50 -8 -78 -9v-563c27 -4 53 -5 80 -10v-52h-292v53c20 4 41 7 56 9v570h-192v-570c13 -2 33 -5 55 -10v-52h-289v52c28 5 57 8 78 9v563c-16 2 -31 3 -77 10v53z" />
    <glyph glyph-name="summation" unicode="&#x2211;" horiz-adv-x="613" 
d="M538 623v-141h-71c-4 3 -27 47 -44 84h-196c21 -35 138 -204 170 -249v-38c-47 -51 -182 -212 -217 -253h276c13 16 40 56 55 72h66c-10 -30 -45 -154 -50 -186h-485v53c59 61 188 213 230 267c-18 30 -195 298 -228 339v52h494z" />
    <glyph glyph-name="radical" unicode="&#x221a;" horiz-adv-x="590" 
d="M573 769l-192 -934h-60c-42 101 -141 310 -177 383l-76 -35l-17 45l194 94l79 -186c18 -42 31 -77 42 -114h1c1 20 12 70 18 101l127 646h61z" />
    <glyph glyph-name="infinity" unicode="&#x221e;" horiz-adv-x="866" 
d="M639 93c-91 0 -146 57 -207 125c-57 -63 -117 -125 -210 -125c-91 0 -168 64 -168 175c0 96 81 175 175 175c95 0 152 -64 208 -126c57 65 116 126 214 126c91 0 162 -69 162 -174c0 -97 -79 -176 -174 -176zM234 165c63 0 110 54 150 102c-51 57 -97 106 -155 106
c-54 0 -98 -43 -98 -104c0 -65 51 -104 103 -104zM640 165c51 0 96 41 96 103c0 65 -43 106 -97 106c-65 0 -115 -58 -156 -104c60 -64 107 -105 157 -105z" />
    <glyph glyph-name="integral" unicode="&#x222b;" horiz-adv-x="397" 
d="M393 711c0 -36 -23 -55 -55 -55c-45 0 -49 45 -77 45c-20 0 -29 -20 -22 -108c11 -152 19 -279 27 -433c9 -175 -49 -336 -182 -336c-50 0 -77 30 -77 62c0 22 17 54 59 54c50 0 57 -46 84 -46c19 0 25 35 17 135c-10 125 -15 222 -24 354c-19 282 73 382 176 382
c46 0 74 -26 74 -54z" />
    <glyph glyph-name="approxequal" unicode="&#x2248;" horiz-adv-x="622" 
d="M509 228l49 -29c-22 -59 -70 -115 -141 -115c-44 0 -77 20 -114 38c-33 17 -57 33 -95 33c-42 0 -65 -23 -90 -75l-53 34c32 77 82 114 147 114c33 0 59 -6 102 -28c53 -27 79 -42 112 -42c36 0 55 18 83 70zM509 427l49 -30c-22 -59 -70 -115 -141 -115
c-44 0 -77 20 -114 38c-33 18 -57 33 -95 33c-42 0 -65 -23 -90 -75l-53 33c32 78 82 116 147 116c33 0 59 -8 102 -30c53 -27 79 -41 112 -41c36 0 55 17 83 71z" />
    <glyph glyph-name="notequal" unicode="&#x2260;" horiz-adv-x="622" 
d="M483 491l-56 -94h128v-79h-167l-76 -126h243v-79h-285l-51 -89h-82l53 89h-122v79h164l76 126h-240v79h280l55 94h80z" />
    <glyph glyph-name="lessequal" unicode="&#x2264;" horiz-adv-x="571" 
d="M68 -9v70h419v-70h-419zM487 203v-96l-419 197v80l419 197v-96l-326 -138z" />
    <glyph glyph-name="greaterequal" unicode="&#x2265;" horiz-adv-x="571" 
d="M68 -9v70h419v-70h-419zM68 484v97l419 -198v-79l-419 -197v95l325 139z" />
    <glyph glyph-name="Abreve" unicode="&#x102;" horiz-adv-x="647" 
d="M191 282h170l-85 244zM215 0h-234v53c28 4 57 8 68 10c27 64 143 382 188 509c7 17 13 36 8 76h140c14 -45 163 -451 217 -587c18 -1 38 -5 64 -8v-53h-306v52c16 3 51 8 77 9l-59 164h-204l-54 -163c31 -2 68 -6 95 -10v-52zM442 842h55c-27 -87 -86 -141 -186 -141
c-117 0 -164 77 -177 141h56c23 -34 57 -60 122 -60c78 0 105 26 130 60z" />
    <glyph glyph-name="Amacron" unicode="&#x100;" horiz-adv-x="647" 
d="M191 282h170l-85 244zM215 0h-234v53c28 4 57 8 68 10c27 64 143 382 188 509c7 17 13 36 8 76h140c14 -45 163 -451 217 -587c18 -1 38 -5 64 -8v-53h-306v52c16 3 51 8 77 9l-59 164h-204l-54 -163c31 -2 68 -6 95 -10v-52zM169 790h297v-68h-297v68z" />
    <glyph glyph-name="Aogonek" unicode="&#x104;" horiz-adv-x="647" 
d="M191 282h170l-85 244zM666 0h-63c-40 -39 -56 -68 -56 -103s29 -49 59 -49c20 0 37 1 57 9v-41c-40 -30 -76 -39 -113 -39c-81 0 -114 50 -114 91c0 48 42 99 107 132h-183v52c16 3 51 8 77 9l-59 164h-204l-54 -163c31 -2 68 -6 95 -10v-52h-234v53c28 4 57 8 68 10
c27 64 143 382 188 509c7 17 13 36 8 76h140c14 -45 163 -451 217 -587c18 -1 38 -5 64 -8v-53z" />
    <glyph glyph-name="Cacute" unicode="&#x106;" horiz-adv-x="668" 
d="M577 -1c-32 -4 -101 -11 -152 -11c-206 0 -375 106 -375 340c0 187 131 329 378 329c84 0 156 -8 192 -10v-141h-71c-6 8 -26 47 -45 90c-13 6 -40 10 -73 10c-109 0 -211 -65 -211 -265c0 -206 111 -291 227 -291c16 0 42 2 48 4c21 30 50 71 55 75h81
c-11 -30 -44 -109 -54 -130zM328 709l101 136h139v-35l-159 -101h-81z" />
    <glyph glyph-name="Ccaron" unicode="&#x10c;" horiz-adv-x="668" 
d="M577 -1c-32 -4 -101 -11 -152 -11c-206 0 -375 106 -375 340c0 187 131 329 378 329c84 0 156 -8 192 -10v-141h-71c-6 8 -26 47 -45 90c-13 6 -40 10 -73 10c-109 0 -211 -65 -211 -265c0 -206 111 -291 227 -291c16 0 42 2 48 4c21 30 50 71 55 75h81
c-11 -30 -44 -109 -54 -130zM234 810v50l168 -63l166 63v-50l-150 -100h-38z" />
    <glyph glyph-name="Ccircumflex" unicode="&#x108;" horiz-adv-x="668" 
d="M577 -1c-32 -4 -101 -11 -152 -11c-206 0 -375 106 -375 340c0 187 131 329 378 329c84 0 156 -8 192 -10v-141h-71c-6 8 -26 47 -45 90c-13 6 -40 10 -73 10c-109 0 -211 -65 -211 -265c0 -206 111 -291 227 -291c16 0 42 2 48 4c21 30 50 71 55 75h81
c-11 -30 -44 -109 -54 -130zM552 762v-51l-167 64l-166 -64v51l150 99h37z" />
    <glyph glyph-name="Cdotaccent" unicode="&#x10a;" horiz-adv-x="668" 
d="M577 -1c-32 -4 -101 -11 -152 -11c-206 0 -375 106 -375 340c0 187 131 329 378 329c84 0 156 -8 192 -10v-141h-71c-6 8 -26 47 -45 90c-13 6 -40 10 -73 10c-109 0 -211 -65 -211 -265c0 -206 111 -291 227 -291c16 0 42 2 48 4c21 30 50 71 55 75h81
c-11 -30 -44 -109 -54 -130zM331 784c0 32 24 68 71 68c40 0 69 -31 69 -68c0 -41 -30 -69 -70 -69c-46 0 -70 33 -70 69z" />
    <glyph glyph-name="Dcaron" unicode="&#x10e;" horiz-adv-x="741" 
d="M331 591h-68v-534h72c95 0 188 81 188 272c0 196 -93 262 -192 262zM29 648h327c207 0 336 -116 336 -305c0 -238 -193 -343 -365 -343h-298v53c24 4 63 8 78 10v522c-17 2 -52 6 -78 10v53zM174 799v50l168 -63l165 63v-50l-150 -100h-37z" />
    <glyph glyph-name="Dcroat" unicode="&#x110;" horiz-adv-x="743" 
d="M263 57h72c95 0 188 81 188 272c0 196 -93 262 -192 262h-68v-220h122v-59h-122v-255zM29 648h327c207 0 336 -116 336 -305c0 -238 -193 -343 -365 -343h-298v53c24 4 63 8 78 10v249h-76v59h76v214c-17 2 -52 6 -78 10v53z" />
    <glyph glyph-name="Ebreve" unicode="&#x114;" horiz-adv-x="629" 
d="M562 648v-141h-70c-4 3 -27 47 -44 84h-185v-229h140c5 23 17 67 23 85h53v-231h-53c-7 20 -17 58 -23 87h-140v-246h214c17 30 59 91 66 97h70l-38 -154h-546v53c27 3 54 8 78 10v522c-16 2 -51 5 -78 10v53h533zM445 848h55c-28 -87 -86 -141 -186 -141
c-118 0 -164 77 -177 141h56c22 -34 57 -60 122 -60c77 0 105 25 130 60z" />
    <glyph glyph-name="Ecaron" unicode="&#x11a;" horiz-adv-x="629" 
d="M562 648v-141h-70c-4 3 -27 47 -44 84h-185v-229h140c5 23 17 67 23 85h53v-231h-53c-7 20 -17 58 -23 87h-140v-246h214c17 30 59 91 66 97h70l-38 -154h-546v53c27 3 54 8 78 10v522c-16 2 -51 5 -78 10v53h533zM157 805v51l168 -63l166 63v-51l-150 -99h-38z" />
    <glyph glyph-name="Edotaccent" unicode="&#x116;" horiz-adv-x="629" 
d="M562 648v-141h-70c-4 3 -27 47 -44 84h-185v-229h140c5 23 17 67 23 85h53v-231h-53c-7 20 -17 58 -23 87h-140v-246h214c17 30 59 91 66 97h70l-38 -154h-546v53c27 3 54 8 78 10v522c-16 2 -51 5 -78 10v53h533zM256 779c0 33 25 69 71 69c41 0 69 -31 69 -69
c0 -40 -30 -68 -70 -68c-45 0 -70 33 -70 68z" />
    <glyph glyph-name="Emacron" unicode="&#x112;" horiz-adv-x="629" 
d="M562 648v-141h-70c-4 3 -27 47 -44 84h-185v-229h140c5 23 17 67 23 85h53v-231h-53c-7 20 -17 58 -23 87h-140v-246h214c17 30 59 91 66 97h70l-38 -154h-546v53c27 3 54 8 78 10v522c-16 2 -51 5 -78 10v53h533zM166 800h297v-69h-297v69z" />
    <glyph glyph-name="Eogonek" unicode="&#x118;" horiz-adv-x="629" 
d="M575 0h-46c-40 -39 -56 -68 -56 -103s29 -49 59 -49c20 0 37 1 58 9v-41c-40 -30 -77 -39 -114 -39c-80 0 -114 50 -114 91c0 48 43 99 107 132h-440v53c27 3 54 8 78 10v522c-16 2 -51 5 -78 10v53h533v-141h-70c-4 3 -27 47 -44 84h-185v-229h140c5 23 17 67 23 85h53
v-231h-53c-7 20 -17 58 -23 87h-140v-246h214c17 30 59 91 66 97h70z" />
    <glyph glyph-name="Gbreve" unicode="&#x11e;" horiz-adv-x="726" 
d="M524 597c-10 4 -47 11 -87 11c-93 0 -217 -54 -217 -270c0 -207 102 -299 211 -299c14 0 39 2 51 5v211c-25 2 -74 8 -92 11v53h301v-52c-16 -3 -38 -6 -53 -7v-195c0 -8 2 -22 8 -50c-77 -12 -148 -27 -234 -27c-194 0 -363 104 -363 341c0 193 147 329 394 329
c97 0 152 -8 197 -11v-141h-71c-6 5 -25 45 -45 91zM527 855h55c-27 -87 -86 -141 -186 -141c-117 0 -164 78 -177 141h56c23 -33 57 -59 122 -59c78 0 105 25 130 59z" />
    <glyph glyph-name="Gcircumflex" unicode="&#x11c;" horiz-adv-x="726" 
d="M524 597c-10 4 -47 11 -87 11c-93 0 -217 -54 -217 -270c0 -207 102 -299 211 -299c14 0 39 2 51 5v211c-25 2 -74 8 -92 11v53h301v-52c-16 -3 -38 -6 -53 -7v-195c0 -8 2 -22 8 -50c-77 -12 -148 -27 -234 -27c-194 0 -363 104 -363 341c0 193 147 329 394 329
c97 0 152 -8 197 -11v-141h-71c-6 5 -25 45 -45 91zM559 760v-51l-168 64l-166 -64v51l150 99h38z" />
    <glyph glyph-name="uni0122" unicode="&#x122;" horiz-adv-x="726" 
d="M524 597c-10 4 -47 11 -87 11c-93 0 -217 -54 -217 -270c0 -207 102 -299 211 -299c14 0 39 2 51 5v211c-25 2 -74 8 -92 11v53h301v-52c-16 -3 -38 -6 -53 -7v-195c0 -8 2 -22 8 -50c-77 -12 -148 -27 -234 -27c-194 0 -363 104 -363 341c0 193 147 329 394 329
c97 0 152 -8 197 -11v-141h-71c-6 5 -25 45 -45 91zM406 -260l-85 -19l-9 15c38 49 50 84 50 126c0 17 -7 40 -24 64l128 21c12 -16 17 -47 17 -58c0 -49 -22 -105 -77 -149z" />
    <glyph glyph-name="Gdotaccent" unicode="&#x120;" horiz-adv-x="726" 
d="M524 597c-10 4 -47 11 -87 11c-93 0 -217 -54 -217 -270c0 -207 102 -299 211 -299c14 0 39 2 51 5v211c-25 2 -74 8 -92 11v53h301v-52c-16 -3 -38 -6 -53 -7v-195c0 -8 2 -22 8 -50c-77 -12 -148 -27 -234 -27c-194 0 -363 104 -363 341c0 193 147 329 394 329
c97 0 152 -8 197 -11v-141h-71c-6 5 -25 45 -45 91zM344 784c0 33 24 69 71 69c40 0 69 -32 69 -69c0 -40 -31 -68 -70 -68c-46 0 -70 32 -70 68z" />
    <glyph glyph-name="uni00470303" horiz-adv-x="726" 
d="M524 597c-10 4 -47 11 -87 11c-93 0 -217 -54 -217 -270c0 -207 102 -299 211 -299c14 0 39 2 51 5v211c-25 2 -74 8 -92 11v53h301v-52c-16 -3 -38 -6 -53 -7v-195c0 -8 2 -22 8 -50c-77 -12 -148 -27 -234 -27c-194 0 -363 104 -363 341c0 193 147 329 394 329
c97 0 152 -8 197 -11v-141h-71c-6 5 -25 45 -45 91zM518 846h56c6 -91 -40 -124 -94 -124c-29 0 -56 10 -81 20c-34 13 -60 19 -75 19c-19 0 -32 -6 -34 -41h-54c-7 89 40 120 94 120c31 0 58 -7 96 -21c16 -6 44 -17 61 -17c15 0 30 5 31 44z" />
    <glyph glyph-name="Hbar" unicode="&#x126;" horiz-adv-x="767" 
d="M503 353v79h-240v-79h240zM737 648v-53c-23 -4 -50 -8 -78 -9v-101h64v-53h-64v-370c27 -3 51 -5 78 -9v-53h-296v53c20 4 46 7 62 9v231h-240v-231c14 -2 38 -5 60 -10v-52h-294v53c29 4 58 8 79 9v370h-72v53h72v100c-16 2 -33 3 -79 10v53h294v-52
c-21 -5 -39 -9 -60 -10v-101h240v101c-12 3 -38 6 -61 10v52h295z" />
    <glyph glyph-name="Hcircumflex" unicode="&#x124;" horiz-adv-x="767" 
d="M323 0h-294v53c29 4 58 8 79 9v523c-16 2 -33 3 -79 10v53h294v-52c-21 -5 -39 -9 -60 -10v-213h240v213c-12 3 -38 6 -61 10v52h295v-53c-23 -4 -50 -8 -78 -9v-524c27 -3 51 -5 78 -9v-53h-296v53c20 4 46 7 62 9v251h-240v-251c14 -2 38 -5 60 -10v-52zM550 756v-50
l-168 63l-165 -63v50l149 100h38z" />
    <glyph glyph-name="Idotaccent" unicode="&#x130;" horiz-adv-x="365" 
d="M337 0h-312v53c25 4 55 8 78 9v523c-20 2 -50 6 -78 10v53h312v-53c-24 -4 -58 -8 -78 -10v-523c20 -2 53 -5 78 -9v-53zM115 779c0 33 24 69 71 69c41 0 69 -31 69 -69c0 -40 -30 -68 -70 -68c-46 0 -70 33 -70 68z" />
    <glyph glyph-name="Imacron" unicode="&#x12a;" horiz-adv-x="365" 
d="M337 0h-312v53c25 4 55 8 78 9v523c-20 2 -50 6 -78 10v53h312v-53c-24 -4 -58 -8 -78 -10v-523c20 -2 53 -5 78 -9v-53zM36 796h297v-69h-297v69z" />
    <glyph glyph-name="Iogonek" unicode="&#x12e;" horiz-adv-x="365" 
d="M337 648v-53c-24 -4 -58 -8 -78 -10v-523c20 -2 53 -5 78 -9v-53h-103c-34 -31 -54 -69 -54 -102c0 -35 27 -49 57 -49c20 0 38 2 58 10v-41c-40 -30 -77 -39 -114 -39c-80 0 -113 50 -113 90c0 47 42 98 109 131h-152v53c25 4 55 8 78 9v523c-20 2 -50 6 -78 10v53h312z
" />
    <glyph glyph-name="Itilde" unicode="&#x128;" horiz-adv-x="365" 
d="M337 0h-312v53c25 4 55 8 78 9v523c-20 2 -50 6 -78 10v53h312v-53c-24 -4 -58 -8 -78 -10v-523c20 -2 53 -5 78 -9v-53zM300 841h57c6 -91 -41 -124 -94 -124c-29 0 -56 10 -82 20c-33 13 -59 19 -74 19c-20 0 -32 -6 -34 -41h-54c-7 89 40 120 94 120
c31 0 57 -7 96 -21c15 -6 44 -17 60 -17s31 5 31 44z" />
    <glyph glyph-name="Jcircumflex" unicode="&#x134;" horiz-adv-x="369" 
d="M34 648h312v-53c-21 -4 -60 -8 -73 -9v-452c0 -48 -10 -95 -30 -137c-40 -82 -121 -167 -199 -209l-29 42c93 86 102 150 102 242v514c-30 3 -55 6 -83 10v52zM353 758v-50l-168 63l-166 -63v50l150 100h38z" />
    <glyph glyph-name="uni0136" unicode="&#x136;" horiz-adv-x="699" 
d="M341 0h-312v53c36 5 60 8 78 10v523c-21 1 -52 5 -78 9v53h312v-53c-26 -3 -52 -8 -78 -10v-251c71 53 206 187 258 251c-24 3 -66 8 -91 10v53h254v-53c-22 -1 -63 -8 -82 -10c-47 -46 -149 -148 -188 -186c37 -62 172 -259 217 -312c14 -16 27 -25 44 -28
c6 -2 28 -5 43 -6v-53h-157c-51 0 -68 13 -91 42c-36 45 -131 207 -165 267l-42 -31v-216c17 -2 50 -6 78 -9v-53zM374 -253l-85 -19l-9 15c38 49 49 84 49 126c0 17 -7 41 -24 64l129 21c11 -15 16 -47 16 -57c0 -50 -22 -106 -76 -150z" />
    <glyph glyph-name="Lacute" unicode="&#x139;" horiz-adv-x="607" 
d="M549 0h-520v53c27 3 54 7 78 9v523c-16 2 -51 6 -78 10v53h329v-53c-39 -5 -73 -8 -95 -10v-528h186c18 29 68 102 75 107h73zM132 704l101 136h139v-35l-159 -101h-81z" />
    <glyph glyph-name="Lcaron" unicode="&#x13d;" horiz-adv-x="607" 
d="M529 398h-61l-29 250h119zM549 0h-520v53c27 3 54 7 78 9v523c-16 2 -51 6 -78 10v53h329v-53c-39 -5 -73 -8 -95 -10v-528h186c18 29 68 102 75 107h73z" />
    <glyph glyph-name="uni013B" unicode="&#x13b;" horiz-adv-x="607" 
d="M549 0h-520v53c27 3 54 7 78 9v523c-16 2 -51 6 -78 10v53h329v-53c-39 -5 -73 -8 -95 -10v-528h186c18 29 68 102 75 107h73zM314 -250l-85 -18l-9 14c38 50 50 84 50 126c0 17 -7 41 -25 64l129 21c11 -15 17 -47 17 -57c0 -50 -22 -106 -77 -150z" />
    <glyph glyph-name="Ldot" unicode="&#x13f;" horiz-adv-x="623" 
d="M413 367c0 35 23 79 77 79c49 0 76 -37 76 -79c0 -44 -29 -78 -77 -78c-53 0 -76 41 -76 78zM549 0h-520v53c27 3 54 7 78 9v523c-16 2 -51 6 -78 10v53h329v-53c-39 -5 -73 -8 -95 -10v-528h186c18 29 68 102 75 107h73z" />
    <glyph glyph-name="Nacute" unicode="&#x143;" horiz-adv-x="734" 
d="M276 0h-248v53c24 3 58 8 77 10c1 138 2 409 4 523c-15 3 -55 6 -79 9v53h219c174 -256 303 -433 318 -460h2c-1 109 2 300 -2 398c-17 1 -67 5 -99 9v53h245v-53c-17 -3 -58 -8 -75 -9c0 -59 -1 -266 -2 -398c0 -66 1 -171 3 -188h-120c-234 355 -329 492 -346 523h-1
c2 -89 1 -401 4 -461c24 -2 63 -5 100 -10v-52zM315 703l101 136h138v-35l-158 -101h-81z" />
    <glyph glyph-name="Ncaron" unicode="&#x147;" horiz-adv-x="734" 
d="M276 0h-248v53c24 3 58 8 77 10c1 138 2 409 4 523c-15 3 -55 6 -79 9v53h219c174 -256 303 -433 318 -460h2c-1 109 2 300 -2 398c-17 1 -67 5 -99 9v53h245v-53c-17 -3 -58 -8 -75 -9c0 -59 -1 -266 -2 -398c0 -66 1 -171 3 -188h-120c-234 355 -329 492 -346 523h-1
c2 -89 1 -401 4 -461c24 -2 63 -5 100 -10v-52zM210 798v50l168 -63l165 63v-50l-150 -99h-37z" />
    <glyph glyph-name="uni0145" unicode="&#x145;" horiz-adv-x="734" 
d="M276 0h-248v53c24 3 58 8 77 10c1 138 2 409 4 523c-15 3 -55 6 -79 9v53h219c174 -256 303 -433 318 -460h2c-1 109 2 300 -2 398c-17 1 -67 5 -99 9v53h245v-53c-17 -3 -58 -8 -75 -9c0 -59 -1 -266 -2 -398c0 -66 1 -171 3 -188h-120c-234 355 -329 492 -346 523h-1
c2 -89 1 -401 4 -461c24 -2 63 -5 100 -10v-52zM378 -252l-86 -19l-8 15c38 50 49 84 49 126c0 17 -7 41 -24 64l129 21c11 -15 16 -47 16 -57c0 -50 -22 -106 -76 -150z" />
    <glyph glyph-name="Ohungarumlaut" unicode="&#x150;" horiz-adv-x="762" 
d="M383 -12c-209 0 -334 144 -334 336c0 189 124 334 338 334c205 0 326 -140 326 -330c0 -186 -119 -340 -330 -340zM392 36c87 0 149 74 149 277c0 212 -78 297 -170 297c-84 0 -150 -64 -150 -266s75 -308 171 -308zM226 712l80 136h116v-32l-129 -104h-67zM431 712
l80 136h116v-32l-129 -104h-67z" />
    <glyph glyph-name="Omacron" unicode="&#x14c;" horiz-adv-x="762" 
d="M383 -12c-209 0 -334 144 -334 336c0 189 124 334 338 334c205 0 326 -140 326 -330c0 -186 -119 -340 -330 -340zM392 36c87 0 149 74 149 277c0 212 -78 297 -170 297c-84 0 -150 -64 -150 -266s75 -308 171 -308zM232 805h297v-68h-297v68z" />
    <glyph glyph-name="Racute" unicode="&#x154;" horiz-adv-x="676" 
d="M263 334h89c26 0 34 4 45 13c28 25 46 65 46 112c0 98 -52 132 -120 132h-60v-257zM341 0h-312v53c30 4 61 7 78 9v522c-22 3 -49 7 -78 11v53h305c57 0 114 -4 149 -16c68 -23 116 -74 116 -153c0 -100 -76 -147 -129 -168c42 -75 121 -202 153 -235
c12 -12 20 -16 30 -18c10 -3 27 -4 36 -5v-53h-113c-63 0 -90 7 -122 53c-31 46 -77 134 -119 212c-4 8 -7 11 -14 11h-58v-214c16 -1 55 -5 78 -9v-53zM260 704l101 136h139v-35l-159 -101h-81z" />
    <glyph glyph-name="Rcaron" unicode="&#x158;" horiz-adv-x="676" 
d="M263 334h89c26 0 34 4 45 13c28 25 46 65 46 112c0 98 -52 132 -120 132h-60v-257zM341 0h-312v53c30 4 61 7 78 9v522c-22 3 -49 7 -78 11v53h305c57 0 114 -4 149 -16c68 -23 116 -74 116 -153c0 -100 -76 -147 -129 -168c42 -75 121 -202 153 -235
c12 -12 20 -16 30 -18c10 -3 27 -4 36 -5v-53h-113c-63 0 -90 7 -122 53c-31 46 -77 134 -119 212c-4 8 -7 11 -14 11h-58v-214c16 -1 55 -5 78 -9v-53zM151 809v50l168 -63l166 63v-50l-150 -100h-38z" />
    <glyph glyph-name="uni0156" unicode="&#x156;" horiz-adv-x="676" 
d="M263 334h89c26 0 34 4 45 13c28 25 46 65 46 112c0 98 -52 132 -120 132h-60v-257zM341 0h-312v53c30 4 61 7 78 9v522c-22 3 -49 7 -78 11v53h305c57 0 114 -4 149 -16c68 -23 116 -74 116 -153c0 -100 -76 -147 -129 -168c42 -75 121 -202 153 -235
c12 -12 20 -16 30 -18c10 -3 27 -4 36 -5v-53h-113c-63 0 -90 7 -122 53c-31 46 -77 134 -119 212c-4 8 -7 11 -14 11h-58v-214c16 -1 55 -5 78 -9v-53zM357 -253l-86 -19l-8 15c38 49 49 84 49 126c0 17 -7 41 -24 64l129 21c11 -15 16 -47 16 -57c0 -50 -22 -106 -76 -150
z" />
    <glyph glyph-name="Sacute" unicode="&#x15a;" horiz-adv-x="560" 
d="M60 17l-10 137h72c7 -8 36 -67 53 -104c12 -6 40 -12 73 -12c76 0 119 40 119 94c0 50 -25 82 -140 131c-137 59 -169 133 -169 210c0 94 70 185 251 185c71 0 123 -9 169 -11v-140h-68c-6 4 -29 50 -48 91c-16 8 -41 11 -59 11c-75 0 -111 -36 -111 -86
c0 -44 21 -81 121 -122c156 -65 202 -122 202 -213c0 -129 -117 -200 -270 -200c-89 0 -137 16 -185 29zM221 709l100 136h139v-35l-158 -101h-81z" />
    <glyph glyph-name="uni015E" unicode="&#x15e;" horiz-adv-x="560" 
d="M478 507h-68c-6 4 -29 50 -48 91c-16 8 -41 11 -59 11c-75 0 -111 -36 -111 -86c0 -44 21 -81 121 -122c156 -65 202 -122 202 -213c0 -113 -89 -181 -214 -197l-34 -32c68 -19 100 -50 100 -97c0 -70 -73 -111 -189 -104v38c42 1 96 12 96 54c0 34 -49 43 -87 50v29
l62 59h-4c-89 0 -137 16 -185 29l-10 137h72c7 -8 36 -67 53 -104c12 -6 40 -12 73 -12c76 0 119 40 119 94c0 50 -25 82 -140 131c-137 59 -169 133 -169 210c0 94 70 185 251 185c71 0 123 -9 169 -11v-140z" />
    <glyph glyph-name="Scircumflex" unicode="&#x15c;" horiz-adv-x="560" 
d="M60 17l-10 137h72c7 -8 36 -67 53 -104c12 -6 40 -12 73 -12c76 0 119 40 119 94c0 50 -25 82 -140 131c-137 59 -169 133 -169 210c0 94 70 185 251 185c71 0 123 -9 169 -11v-140h-68c-6 4 -29 50 -48 91c-16 8 -41 11 -59 11c-75 0 -111 -36 -111 -86
c0 -44 21 -81 121 -122c156 -65 202 -122 202 -213c0 -129 -117 -200 -270 -200c-89 0 -137 16 -185 29zM442 752v-50l-167 63l-166 -63v50l150 99h37z" />
    <glyph glyph-name="uni0218" unicode="&#x218;" horiz-adv-x="560" 
d="M60 17l-10 137h72c7 -8 36 -67 53 -104c12 -6 40 -12 73 -12c76 0 119 40 119 94c0 50 -25 82 -140 131c-137 59 -169 133 -169 210c0 94 70 185 251 185c71 0 123 -9 169 -11v-140h-68c-6 4 -29 50 -48 91c-16 8 -41 11 -59 11c-75 0 -111 -36 -111 -86
c0 -44 21 -81 121 -122c156 -65 202 -122 202 -213c0 -129 -117 -200 -270 -200c-89 0 -137 16 -185 29zM276 -256l-85 -19l-9 15c38 50 50 84 50 126c0 17 -7 41 -24 64l128 21c12 -15 17 -47 17 -57c0 -50 -22 -106 -77 -150z" />
    <glyph glyph-name="Tcaron" unicode="&#x164;" horiz-adv-x="643" 
d="M23 498v150h596v-150h-64c-6 8 -29 54 -48 92h-113v-528c28 -1 68 -7 92 -10v-52h-336v53c34 3 60 7 88 9v528h-104c-20 -43 -41 -89 -46 -92h-65zM150 801v50l167 -63l166 63v-50l-150 -99h-37z" />
    <glyph glyph-name="uni0162" unicode="&#x162;" horiz-adv-x="643" 
d="M23 648h596v-150h-64c-6 8 -29 54 -48 92h-113v-528c28 -1 68 -7 92 -10v-52h-132l-42 -41c67 -19 100 -50 100 -97c0 -70 -73 -111 -190 -104v38c43 1 96 12 96 54c0 34 -48 43 -86 50v29l74 71h-156v53c34 3 60 7 88 9v528h-104c-20 -43 -41 -89 -46 -92h-65v150z" />
    <glyph glyph-name="uni021A" unicode="&#x21a;" horiz-adv-x="643" 
d="M23 498v150h596v-150h-64c-6 8 -29 54 -48 92h-113v-528c28 -1 68 -7 92 -10v-52h-336v53c34 3 60 7 88 9v528h-104c-20 -43 -41 -89 -46 -92h-65zM302 -249l-85 -19l-9 15c38 49 50 84 50 126c0 17 -7 40 -24 64l128 21c12 -16 17 -47 17 -58c0 -49 -22 -105 -77 -149z
" />
    <glyph glyph-name="Ubreve" unicode="&#x16c;" horiz-adv-x="717" 
d="M625 586v-366c0 -56 -12 -99 -35 -135c-38 -57 -115 -97 -224 -97c-135 0 -211 50 -246 109c-20 35 -26 76 -27 121v368c-25 2 -49 6 -68 9v53h308v-52c-26 -6 -64 -9 -84 -11v-392c1 -65 36 -134 148 -134c102 0 150 73 150 135v392c-23 2 -69 7 -89 10v52h235v-53
c-32 -5 -54 -8 -68 -9zM507 840h55c-28 -87 -86 -141 -186 -141c-118 0 -164 77 -177 141h56c22 -34 57 -60 122 -60c77 0 105 26 130 60z" />
    <glyph glyph-name="Uhungarumlaut" unicode="&#x170;" horiz-adv-x="717" 
d="M625 586v-366c0 -56 -12 -99 -35 -135c-38 -57 -115 -97 -224 -97c-135 0 -211 50 -246 109c-20 35 -26 76 -27 121v368c-25 2 -49 6 -68 9v53h308v-52c-26 -6 -64 -9 -84 -11v-392c1 -65 36 -134 148 -134c102 0 150 73 150 135v392c-23 2 -69 7 -89 10v52h235v-53
c-32 -5 -54 -8 -68 -9zM217 706l80 136h116v-32l-129 -104h-67zM422 706l80 136h116v-32l-129 -104h-67z" />
    <glyph glyph-name="Umacron" unicode="&#x16a;" horiz-adv-x="717" 
d="M625 586v-366c0 -56 -12 -99 -35 -135c-38 -57 -115 -97 -224 -97c-135 0 -211 50 -246 109c-20 35 -26 76 -27 121v368c-25 2 -49 6 -68 9v53h308v-52c-26 -6 -64 -9 -84 -11v-392c1 -65 36 -134 148 -134c102 0 150 73 150 135v392c-23 2 -69 7 -89 10v52h235v-53
c-32 -5 -54 -8 -68 -9zM232 791h297v-69h-297v69z" />
    <glyph glyph-name="Uogonek" unicode="&#x172;" horiz-adv-x="717" 
d="M458 648h235v-53c-32 -5 -54 -8 -68 -9v-366c0 -56 -12 -99 -35 -135c-19 -29 -49 -54 -87 -71c-46 -30 -83 -76 -83 -124c0 -37 25 -52 55 -52c20 0 40 6 60 14v-41c-37 -34 -79 -43 -117 -43c-80 0 -111 48 -111 88c0 46 36 94 113 136c-17 -3 -35 -4 -54 -4
c-135 0 -211 50 -246 109c-20 35 -26 76 -27 121v368c-25 2 -49 6 -68 9v53h308v-52c-26 -6 -64 -9 -84 -11v-392c1 -65 36 -134 148 -134c102 0 150 73 150 135v392c-23 2 -69 7 -89 10v52z" />
    <glyph glyph-name="Uring" unicode="&#x16e;" horiz-adv-x="717" 
d="M625 586v-366c0 -56 -12 -99 -35 -135c-38 -57 -115 -97 -224 -97c-135 0 -211 50 -246 109c-20 35 -26 76 -27 121v368c-25 2 -49 6 -68 9v53h308v-52c-26 -6 -64 -9 -84 -11v-392c1 -65 36 -134 148 -134c102 0 150 73 150 135v392c-23 2 -69 7 -89 10v52h235v-53
c-32 -5 -54 -8 -68 -9zM385 858c59 0 96 -30 96 -85c0 -54 -42 -85 -96 -85c-58 0 -95 32 -95 85c0 55 37 85 95 85zM384 824c-28 0 -46 -18 -46 -51s21 -50 47 -50c28 0 48 15 48 51c0 31 -21 50 -49 50z" />
    <glyph glyph-name="Utilde" unicode="&#x168;" horiz-adv-x="717" 
d="M625 586v-366c0 -56 -12 -99 -35 -135c-38 -57 -115 -97 -224 -97c-135 0 -211 50 -246 109c-20 35 -26 76 -27 121v368c-25 2 -49 6 -68 9v53h308v-52c-26 -6 -64 -9 -84 -11v-392c1 -65 36 -134 148 -134c102 0 150 73 150 135v392c-23 2 -69 7 -89 10v52h235v-53
c-32 -5 -54 -8 -68 -9zM493 842h56c6 -90 -40 -123 -94 -123c-28 0 -55 9 -81 19c-34 14 -59 19 -75 19c-19 0 -31 -6 -34 -41h-54c-7 89 41 120 94 120c31 0 58 -6 96 -21c16 -6 44 -17 61 -17c15 0 30 6 31 44z" />
    <glyph glyph-name="Wacute" unicode="&#x1e82;" horiz-adv-x="920" 
d="M314 -6h-86c-28 99 -149 489 -182 592c-11 1 -50 6 -73 9v53h319v-53c-22 -3 -61 -8 -85 -9c22 -81 94 -335 107 -400c28 93 116 374 140 462h79c17 -65 131 -385 157 -469c18 69 99 338 114 407c-21 2 -86 6 -104 9v53h247v-53c-28 -4 -54 -7 -75 -9
c-28 -85 -153 -489 -184 -592h-88c-15 52 -121 358 -149 448zM436 706l101 136h138v-35l-158 -101h-81z" />
    <glyph glyph-name="Wcircumflex" unicode="&#x174;" horiz-adv-x="920" 
d="M314 -6h-86c-28 99 -149 489 -182 592c-11 1 -50 6 -73 9v53h319v-53c-22 -3 -61 -8 -85 -9c22 -81 94 -335 107 -400c28 93 116 374 140 462h79c17 -65 131 -385 157 -469c18 69 99 338 114 407c-21 2 -86 6 -104 9v53h247v-53c-28 -4 -54 -7 -75 -9
c-28 -85 -153 -489 -184 -592h-88c-15 52 -121 358 -149 448zM662 746v-51l-168 64l-166 -64v51l150 99h38z" />
    <glyph glyph-name="Wdieresis" unicode="&#x1e84;" horiz-adv-x="920" 
d="M314 -6h-86c-28 99 -149 489 -182 592c-11 1 -50 6 -73 9v53h319v-53c-22 -3 -61 -8 -85 -9c22 -81 94 -335 107 -400c28 93 116 374 140 462h79c17 -65 131 -385 157 -469c18 69 99 338 114 407c-21 2 -86 6 -104 9v53h247v-53c-28 -4 -54 -7 -75 -9
c-28 -85 -153 -489 -184 -592h-88c-15 52 -121 358 -149 448zM385 823c31 0 55 -31 55 -61c0 -42 -29 -60 -58 -60c-24 0 -55 21 -55 58c0 32 21 63 58 63zM606 822c36 0 57 -30 57 -60c0 -31 -25 -60 -58 -60c-30 0 -58 25 -58 59c0 41 33 61 59 61z" />
    <glyph glyph-name="Wgrave" unicode="&#x1e80;" horiz-adv-x="920" 
d="M314 -6h-86c-28 99 -149 489 -182 592c-11 1 -50 6 -73 9v53h319v-53c-22 -3 -61 -8 -85 -9c22 -81 94 -335 107 -400c28 93 116 374 140 462h79c17 -65 131 -385 157 -469c18 69 99 338 114 407c-21 2 -86 6 -104 9v53h247v-53c-28 -4 -54 -7 -75 -9
c-28 -85 -153 -489 -184 -592h-88c-15 52 -121 358 -149 448zM445 840l99 -136h-80l-159 101v35h140z" />
    <glyph glyph-name="Ycircumflex" unicode="&#x176;" horiz-adv-x="579" 
d="M462 0h-341v53c32 4 70 7 92 10v183c0 17 -2 26 -10 43c-44 89 -143 263 -164 297c-15 2 -34 4 -68 9v53h307v-53c-21 -2 -52 -8 -65 -9c20 -45 108 -208 129 -245c26 49 103 194 124 245c-24 3 -65 5 -88 9v53h233v-53c-25 -4 -53 -7 -71 -9
c-31 -57 -133 -240 -163 -302c-7 -14 -9 -20 -9 -39v-182c21 -2 67 -6 94 -11v-52zM474 749v-50l-167 64l-166 -64v50l150 100h37z" />
    <glyph glyph-name="Ygrave" unicode="&#x1ef2;" horiz-adv-x="579" 
d="M462 0h-341v53c32 4 70 7 92 10v183c0 17 -2 26 -10 43c-44 89 -143 263 -164 297c-15 2 -34 4 -68 9v53h307v-53c-21 -2 -52 -8 -65 -9c20 -45 108 -208 129 -245c26 49 103 194 124 245c-24 3 -65 5 -88 9v53h233v-53c-25 -4 -53 -7 -71 -9
c-31 -57 -133 -240 -163 -302c-7 -14 -9 -20 -9 -39v-182c21 -2 67 -6 94 -11v-52zM280 838l100 -135h-81l-158 101v34h139z" />
    <glyph glyph-name="Zacute" unicode="&#x179;" horiz-adv-x="596" 
d="M547 0h-528v50l366 541h-230c-20 -43 -42 -85 -47 -92h-66v149h517v-53l-360 -538h250c17 28 60 93 67 99h69zM240 706l101 136h138v-35l-158 -101h-81z" />
    <glyph glyph-name="Zdotaccent" unicode="&#x17b;" horiz-adv-x="596" 
d="M547 0h-528v50l366 541h-230c-20 -43 -42 -85 -47 -92h-66v149h517v-53l-360 -538h250c17 28 60 93 67 99h69zM232 780c0 32 24 68 70 68c41 0 69 -31 69 -68c0 -41 -30 -69 -70 -69c-45 0 -69 33 -69 69z" />
    <glyph glyph-name="uni018F" unicode="&#x18f;" horiz-adv-x="715" 
d="M53 323h440v15c0 152 -72 241 -206 241c-93 0 -145 -25 -200 -55v54c74 50 153 80 259 80c211 0 320 -142 320 -325c0 -191 -114 -345 -319 -345c-218 0 -298 147 -298 286c0 10 2 40 4 49zM491 268h-272c-2 -8 -2 -28 -2 -48c0 -97 46 -186 136 -186
c97 0 133 94 138 234z" />
    <glyph glyph-name="abreve" unicode="&#x103;" horiz-adv-x="509" 
d="M357 680h49c-15 -80 -67 -142 -155 -142c-84 0 -138 52 -150 142h51c20 -45 49 -61 99 -61c56 0 85 14 106 61zM292 230h-11c-71 0 -109 -29 -109 -82c0 -54 32 -80 79 -80c15 0 27 2 43 9c-1 6 -2 12 -2 19v134zM431 334v-259c0 -5 12 -17 34 -17c8 0 11 0 19 1v-48
c-21 -12 -53 -19 -88 -19c-27 0 -68 10 -89 47c-66 -41 -114 -51 -140 -51c-61 0 -135 54 -135 138c0 124 141 149 255 149h6v67c0 40 -16 80 -80 80c-10 0 -18 -1 -25 -3c-8 -27 -24 -73 -29 -83h-90v101c63 18 135 36 191 36c127 0 171 -67 171 -139z" />
    <glyph glyph-name="amacron" unicode="&#x101;" horiz-adv-x="509" 
d="M386 632v-74h-275v74h275zM292 230h-11c-71 0 -109 -29 -109 -82c0 -54 32 -80 79 -80c15 0 27 2 43 9c-1 6 -2 12 -2 19v134zM431 334v-259c0 -5 12 -17 34 -17c8 0 11 0 19 1v-48c-21 -12 -53 -19 -88 -19c-27 0 -68 10 -89 47c-66 -41 -114 -51 -140 -51
c-61 0 -135 54 -135 138c0 124 141 149 255 149h6v67c0 40 -16 80 -80 80c-10 0 -18 -1 -25 -3c-8 -27 -24 -73 -29 -83h-90v101c63 18 135 36 191 36c127 0 171 -67 171 -139z" />
    <glyph glyph-name="aogonek" unicode="&#x105;" horiz-adv-x="509" 
d="M292 230h-11c-71 0 -109 -29 -109 -82c0 -54 32 -80 79 -80c15 0 27 2 43 9c-1 6 -2 12 -2 19v134zM484 11h1c-56 -34 -90 -79 -90 -119c0 -32 25 -47 54 -47c20 0 33 1 53 9v-40c-35 -29 -69 -40 -103 -40c-82 0 -110 51 -110 91c0 49 38 94 110 127h-3
c-27 0 -68 10 -89 47c-66 -41 -114 -51 -140 -51c-61 0 -135 54 -135 138c0 124 141 149 255 149h6v67c0 40 -16 80 -80 80c-10 0 -18 -1 -25 -3c-8 -27 -24 -73 -29 -83h-90v101c63 18 135 36 191 36c127 0 171 -67 171 -139v-259c0 -5 12 -17 34 -17c8 0 11 0 19 1v-48z
" />
    <glyph glyph-name="cacute" unicode="&#x107;" horiz-adv-x="470" 
d="M283 528h-64l86 174h126l4 -14zM310 473c58 0 93 -8 126 -14v-109h-80c-9 11 -24 44 -35 74c-3 1 -7 2 -19 2c-49 0 -121 -43 -121 -177c0 -125 71 -188 148 -188c32 0 60 1 107 23v-47c-52 -41 -116 -49 -159 -49c-131 0 -247 85 -247 242c0 142 119 243 280 243z" />
    <glyph glyph-name="ccaron" unicode="&#x10d;" horiz-adv-x="470" 
d="M310 473c58 0 93 -8 126 -14v-109h-80c-9 11 -24 44 -35 74c-3 1 -7 2 -19 2c-49 0 -121 -43 -121 -177c0 -125 71 -188 148 -188c32 0 60 1 107 23v-47c-52 -41 -116 -49 -159 -49c-131 0 -247 85 -247 242c0 142 119 243 280 243zM138 693h64l81 -74l80 74h63
l-104 -157h-79z" />
    <glyph glyph-name="ccircumflex" unicode="&#x109;" horiz-adv-x="470" 
d="M416 528h-64l-81 75l-80 -75h-63l104 158h79zM310 473c58 0 93 -8 126 -14v-109h-80c-9 11 -24 44 -35 74c-3 1 -7 2 -19 2c-49 0 -121 -43 -121 -177c0 -125 71 -188 148 -188c32 0 60 1 107 23v-47c-52 -41 -116 -49 -159 -49c-131 0 -247 85 -247 242
c0 142 119 243 280 243z" />
    <glyph glyph-name="cdotaccent" unicode="&#x10b;" horiz-adv-x="470" 
d="M310 473c58 0 93 -8 126 -14v-109h-80c-9 11 -24 44 -35 74c-3 1 -7 2 -19 2c-49 0 -121 -43 -121 -177c0 -125 71 -188 148 -188c32 0 60 1 107 23v-47c-52 -41 -116 -49 -159 -49c-131 0 -247 85 -247 242c0 142 119 243 280 243zM195 606c0 32 24 74 80 74
c51 0 79 -34 79 -74c0 -43 -30 -75 -80 -75c-55 0 -79 39 -79 75z" />
    <glyph glyph-name="dcaron" unicode="&#x10f;" horiz-adv-x="642" 
d="M630 456h-59c-4 59 -12 168 -19 253h101c-7 -75 -18 -194 -23 -253zM354 75v330c-16 12 -31 16 -62 16c-54 0 -113 -54 -113 -170c0 -126 57 -186 128 -186c14 0 30 1 47 10zM497 647v-568c8 -3 32 -6 54 -8v-52c-28 -3 -143 -21 -187 -31c-4 17 -7 36 -7 48
c-62 -36 -107 -47 -130 -47c-88 0 -197 83 -197 234c0 142 122 251 281 251c24 0 30 -2 43 -3v168c-12 6 -47 19 -67 24v46h62c95 0 131 1 154 4c-2 -20 -6 -49 -6 -66z" />
    <glyph glyph-name="dcroat" unicode="&#x111;" horiz-adv-x="575" 
d="M354 75v330c-16 12 -31 16 -62 16c-54 0 -113 -54 -113 -170c0 -126 57 -186 127 -186c15 0 31 1 48 10zM559 540h-62v-461c8 -3 32 -6 54 -8v-52c-28 -3 -143 -21 -187 -31c-4 17 -7 36 -7 48c-62 -36 -107 -47 -131 -47c-88 0 -196 83 -196 234c0 142 122 251 280 251
c24 0 31 -2 44 -3v69h-122v51h122v48c-12 6 -47 19 -67 24v46h62c95 0 131 1 154 4c-2 -20 -6 -49 -6 -66v-56h62v-51z" />
    <glyph glyph-name="ebreve" unicode="&#x115;" horiz-adv-x="496" 
d="M364 680h48c-15 -80 -67 -142 -155 -142c-83 0 -137 52 -150 142h52c19 -45 48 -61 99 -61c55 0 84 14 106 61zM440 91v-49c-65 -48 -133 -54 -177 -54c-144 0 -234 102 -234 240c1 124 86 245 238 245s198 -107 198 -193c0 -9 0 -19 -2 -32c-18 -5 -53 -7 -160 -7h-125
c-2 -133 70 -180 144 -180c38 0 74 6 118 30zM179 290h89c24 0 49 0 58 1c1 12 1 21 1 25c0 55 -14 111 -66 111c-45 0 -75 -48 -82 -137z" />
    <glyph glyph-name="ecaron" unicode="&#x11b;" horiz-adv-x="496" 
d="M440 91v-49c-65 -48 -133 -54 -177 -54c-144 0 -234 102 -234 240c1 124 86 245 238 245s198 -107 198 -193c0 -9 0 -19 -2 -32c-18 -5 -53 -7 -160 -7h-125c-2 -133 70 -180 144 -180c38 0 74 6 118 30zM179 290h89c24 0 49 0 58 1c1 12 1 21 1 25c0 55 -14 111 -66 111
c-45 0 -75 -48 -82 -137zM117 693h64l81 -74l80 74h63l-104 -157h-79z" />
    <glyph glyph-name="edotaccent" unicode="&#x117;" horiz-adv-x="496" 
d="M185 606c0 32 24 74 80 74c51 0 79 -34 79 -74c0 -43 -30 -75 -80 -75c-55 0 -79 39 -79 75zM440 91v-49c-65 -48 -133 -54 -177 -54c-144 0 -234 102 -234 240c1 124 86 245 238 245s198 -107 198 -193c0 -9 0 -19 -2 -32c-18 -5 -53 -7 -160 -7h-125
c-2 -133 70 -180 144 -180c38 0 74 6 118 30zM179 290h89c24 0 49 0 58 1c1 12 1 21 1 25c0 55 -14 111 -66 111c-45 0 -75 -48 -82 -137z" />
    <glyph glyph-name="emacron" unicode="&#x113;" horiz-adv-x="496" 
d="M440 91v-49c-65 -48 -133 -54 -177 -54c-144 0 -234 102 -234 240c1 124 86 245 238 245s198 -107 198 -193c0 -9 0 -19 -2 -32c-18 -5 -53 -7 -160 -7h-125c-2 -133 70 -180 144 -180c38 0 74 6 118 30zM179 290h89c24 0 49 0 58 1c1 12 1 21 1 25c0 55 -14 111 -66 111
c-45 0 -75 -48 -82 -137zM131 632h275v-74h-275v74z" />
    <glyph glyph-name="eogonek" unicode="&#x119;" horiz-adv-x="498" 
d="M179 290h89c24 0 49 0 58 1c1 12 1 21 1 25c0 55 -14 111 -66 111c-45 0 -75 -48 -82 -137zM303 241h-125c-2 -133 70 -180 144 -180c38 0 74 6 118 30v-49c-9 -7 -18 -13 -27 -18c-67 -50 -89 -87 -89 -120c0 -35 29 -48 57 -48c21 0 37 0 56 8v-40
c-36 -29 -77 -39 -112 -39c-79 0 -111 41 -111 84c0 49 41 90 106 123c-22 -3 -41 -4 -57 -4c-144 0 -234 102 -234 240c1 124 86 245 238 245s198 -107 198 -193c0 -9 0 -19 -2 -32c-18 -5 -53 -7 -160 -7z" />
    <glyph glyph-name="gbreve" unicode="&#x11f;" horiz-adv-x="507" 
d="M343 680h49c-15 -80 -67 -142 -155 -142c-83 0 -138 52 -150 142h51c20 -45 49 -61 99 -61c56 0 85 14 106 61zM237 203c42 0 57 48 57 112c0 63 -16 115 -64 115c-43 0 -60 -47 -60 -109c0 -64 19 -118 67 -118zM172 -22c-10 1 -20 3 -29 6c-17 -28 -22 -50 -22 -66
c0 -57 52 -110 146 -110c91 0 123 46 123 92c0 40 -32 61 -81 66c-38 4 -93 6 -137 12zM509 461l-7 -74c-22 2 -67 4 -89 4c8 -12 19 -40 19 -73c0 -102 -86 -157 -197 -157c-26 0 -51 3 -75 9c-7 -15 -11 -27 -11 -33c0 -28 34 -37 48 -37c71 -7 126 -7 176 -13
c43 -5 127 -37 127 -129c0 -117 -121 -201 -264 -201c-160 0 -226 82 -226 137c0 21 37 61 95 107c-33 21 -49 53 -49 85c0 14 30 55 64 97c-50 23 -86 66 -86 133c0 69 54 157 200 157c61 0 102 -15 127 -24c6 -3 12 -4 16 -4c32 5 100 14 132 16z" />
    <glyph glyph-name="gcircumflex" unicode="&#x11d;" horiz-adv-x="507" 
d="M235 603l-80 -75h-62l104 158h78l105 -158h-64zM237 203c42 0 57 48 57 112c0 63 -16 115 -64 115c-43 0 -60 -47 -60 -109c0 -64 19 -118 67 -118zM172 -22c-10 1 -20 3 -29 6c-17 -28 -22 -50 -22 -66c0 -57 52 -110 146 -110c91 0 123 46 123 92c0 40 -32 61 -81 66
c-38 4 -93 6 -137 12zM509 461l-7 -74c-22 2 -67 4 -89 4c8 -12 19 -40 19 -73c0 -102 -86 -157 -197 -157c-26 0 -51 3 -75 9c-7 -15 -11 -27 -11 -33c0 -28 34 -37 48 -37c71 -7 126 -7 176 -13c43 -5 127 -37 127 -129c0 -117 -121 -201 -264 -201
c-160 0 -226 82 -226 137c0 21 37 61 95 107c-33 21 -49 53 -49 85c0 14 30 55 64 97c-50 23 -86 66 -86 133c0 69 54 157 200 157c61 0 102 -15 127 -24c6 -3 12 -4 16 -4c32 5 100 14 132 16z" />
    <glyph glyph-name="uni0123" unicode="&#x123;" horiz-adv-x="507" 
d="M312 544l-121 -20c-10 14 -15 44 -15 54c0 47 21 99 72 140l80 18l9 -14c-36 -46 -47 -79 -47 -118c0 -16 6 -38 22 -60zM237 203c42 0 57 48 57 112c0 63 -16 115 -64 115c-43 0 -60 -47 -60 -109c0 -64 19 -118 67 -118zM172 -22c-10 1 -20 3 -29 6
c-17 -28 -22 -50 -22 -66c0 -57 52 -110 146 -110c91 0 123 46 123 92c0 40 -32 61 -81 66c-38 4 -93 6 -137 12zM509 461l-7 -74c-22 2 -67 4 -89 4c8 -12 19 -40 19 -73c0 -102 -86 -157 -197 -157c-26 0 -51 3 -75 9c-7 -15 -11 -27 -11 -33c0 -28 34 -37 48 -37
c71 -7 126 -7 176 -13c43 -5 127 -37 127 -129c0 -117 -121 -201 -264 -201c-160 0 -226 82 -226 137c0 21 37 61 95 107c-33 21 -49 53 -49 85c0 14 30 55 64 97c-50 23 -86 66 -86 133c0 69 54 157 200 157c61 0 102 -15 127 -24c6 -3 12 -4 16 -4c32 5 100 14 132 16z
" />
    <glyph glyph-name="gdotaccent" unicode="&#x121;" horiz-adv-x="507" 
d="M240 531c-55 0 -79 39 -79 75c0 32 24 74 80 74c51 0 79 -34 79 -74c0 -43 -30 -75 -80 -75zM237 203c42 0 57 48 57 112c0 63 -16 115 -64 115c-43 0 -60 -47 -60 -109c0 -64 19 -118 67 -118zM172 -22c-10 1 -20 3 -29 6c-17 -28 -22 -50 -22 -66
c0 -57 52 -110 146 -110c91 0 123 46 123 92c0 40 -32 61 -81 66c-38 4 -93 6 -137 12zM509 461l-7 -74c-22 2 -67 4 -89 4c8 -12 19 -40 19 -73c0 -102 -86 -157 -197 -157c-26 0 -51 3 -75 9c-7 -15 -11 -27 -11 -33c0 -28 34 -37 48 -37c71 -7 126 -7 176 -13
c43 -5 127 -37 127 -129c0 -117 -121 -201 -264 -201c-160 0 -226 82 -226 137c0 21 37 61 95 107c-33 21 -49 53 -49 85c0 14 30 55 64 97c-50 23 -86 66 -86 133c0 69 54 157 200 157c61 0 102 -15 127 -24c6 -3 12 -4 16 -4c32 5 100 14 132 16z" />
    <glyph glyph-name="uni00670303" horiz-adv-x="507" 
d="M142 539h-55c-7 93 40 125 91 125c30 0 49 -6 87 -21c14 -6 37 -17 53 -17c15 0 29 7 29 46h54c5 -95 -38 -128 -89 -128c-27 0 -49 10 -74 20c-32 14 -48 18 -63 18c-18 0 -31 -8 -33 -43zM237 203c42 0 57 48 57 112c0 63 -16 115 -64 115c-43 0 -60 -47 -60 -109
c0 -64 19 -118 67 -118zM172 -22c-10 1 -20 3 -29 6c-17 -28 -22 -50 -22 -66c0 -57 52 -110 146 -110c91 0 123 46 123 92c0 40 -32 61 -81 66c-38 4 -93 6 -137 12zM509 461l-7 -74c-22 2 -67 4 -89 4c8 -12 19 -40 19 -73c0 -102 -86 -157 -197 -157c-26 0 -51 3 -75 9
c-7 -15 -11 -27 -11 -33c0 -28 34 -37 48 -37c71 -7 126 -7 176 -13c43 -5 127 -37 127 -129c0 -117 -121 -201 -264 -201c-160 0 -226 82 -226 137c0 21 37 61 95 107c-33 21 -49 53 -49 85c0 14 30 55 64 97c-50 23 -86 66 -86 133c0 69 54 157 200 157
c61 0 102 -15 127 -24c6 -3 12 -4 16 -4c32 5 100 14 132 16z" />
    <glyph glyph-name="hbar" unicode="&#x127;" horiz-adv-x="585" 
d="M508 286v-225c16 -2 35 -5 50 -8v-53h-243v53c17 3 35 7 50 9v229c0 46 -18 86 -78 86c-23 0 -50 -6 -68 -17v-300c12 -1 31 -4 49 -7v-53h-241v53c17 3 33 6 49 9v473h-62v51h62v53c-12 8 -44 20 -57 24v46h46c76 0 129 2 160 4c-3 -17 -6 -51 -6 -65v-62h140v-51h-140
v-132c59 40 104 51 141 51c106 0 148 -83 148 -168z" />
    <glyph glyph-name="hcircumflex" unicode="&#x125;" horiz-adv-x="585" 
d="M287 791v-46l-156 48l-154 -48v46l138 88h37zM268 0h-241v53c17 3 33 6 49 9v577c-12 8 -44 20 -57 24v46h46c76 0 129 2 160 4c-3 -17 -6 -51 -6 -65v-223c58 38 104 48 141 48c106 0 148 -83 148 -168v-244c16 -2 35 -5 50 -8v-53h-243v53c17 3 35 7 50 9v248
c0 46 -22 86 -82 86c-23 0 -45 -5 -64 -13v-323c12 -1 31 -4 49 -7v-53z" />
    <glyph glyph-name="i.dot" horiz-adv-x="301" 
d="M66 606c0 32 25 74 80 74c49 0 77 -34 77 -74c0 -43 -30 -75 -78 -75c-54 0 -79 39 -79 75zM270 0h-243v53c18 3 45 6 55 8v325c-10 8 -35 23 -51 28v47h70c58 1 113 2 124 3v-404c13 -1 29 -5 45 -8v-52z" />
    <glyph glyph-name="imacron" unicode="&#x12b;" horiz-adv-x="301" 
d="M7 632h275v-74h-275v74zM270 0h-243v53c18 3 45 6 55 8v325c-10 8 -35 23 -51 28v47h70c58 1 113 2 124 3v-404c13 -1 29 -5 45 -8v-52z" />
    <glyph glyph-name="iogonek" unicode="&#x12f;" horiz-adv-x="301" 
d="M145 531c-54 0 -79 39 -79 75c0 32 25 74 80 74c49 0 77 -34 77 -74c0 -43 -30 -75 -78 -75zM270 0h-74c-31 -37 -44 -70 -44 -101c0 -34 28 -50 57 -50c21 0 36 2 56 10v-41c-38 -29 -75 -39 -112 -39c-79 0 -112 47 -112 92c0 51 44 98 101 129h-115v53c18 3 45 6 55 8
v325c-10 8 -35 23 -51 28v47h70c58 1 113 2 124 3v-404c13 -1 29 -5 45 -8v-52z" />
    <glyph glyph-name="itilde" unicode="&#x129;" horiz-adv-x="301" 
d="M270 0h-243v53c18 3 45 6 55 8v325c-10 8 -35 23 -51 28v47h70c58 1 113 2 124 3v-404c13 -1 29 -5 45 -8v-52zM248 672h54c5 -95 -39 -128 -90 -128c-26 0 -48 10 -73 20c-32 14 -49 18 -63 18c-19 0 -31 -8 -33 -43h-56c-6 93 40 125 91 125c30 0 50 -6 87 -21
c15 -6 37 -17 53 -17c15 0 29 7 30 46z" />
    <glyph glyph-name="uni0237" unicode="&#x237;" horiz-adv-x="293" 
d="M28 414v47h66c83 0 118 2 129 3v-394c0 -48 -5 -81 -20 -119c-32 -82 -96 -153 -173 -192l-32 40c77 69 82 100 82 204v383c-13 11 -37 24 -52 28z" />
    <glyph glyph-name="jcircumflex" unicode="&#x135;" horiz-adv-x="293" 
d="M28 414v47h66c83 0 118 2 129 3v-394c0 -48 -5 -81 -20 -119c-32 -82 -96 -153 -173 -192l-32 40c77 69 82 100 82 204v383c-13 11 -37 24 -52 28zM284 528h-64l-81 75l-80 -75h-63l104 158h79z" />
    <glyph glyph-name="uni0137" unicode="&#x137;" horiz-adv-x="540" 
d="M222 -65l129 21c11 -15 16 -47 16 -57c0 -49 -22 -106 -76 -149l-85 -19l-9 14c38 50 49 84 49 126c0 18 -7 41 -24 64zM530 461v-53c-17 -4 -44 -7 -60 -8c-45 -43 -86 -80 -126 -112c50 -80 127 -184 157 -216c6 -7 13 -10 24 -13c8 -2 19 -3 39 -6v-53h-121
c-48 0 -65 11 -91 45c-29 36 -74 111 -108 172l-24 -15v-142c18 -2 41 -5 56 -8v-52h-249v53c15 3 35 6 50 7v579c-13 8 -43 19 -58 24v46h29c101 0 149 2 179 4c-3 -18 -7 -53 -7 -66v-397c55 35 144 116 173 150c-29 3 -58 5 -77 8v53h214z" />
    <glyph glyph-name="kgreenlandic" unicode="&#x138;" horiz-adv-x="534" 
d="M244 215l-19 -9v-146c13 -1 31 -4 48 -7v-53h-246v53c18 3 45 6 55 8v325c-10 8 -35 23 -51 28v47h70c58 1 118 2 129 3c-4 -43 -5 -56 -5 -69v-145c53 32 138 112 174 150c-29 3 -53 5 -72 8v53h208v-53c-16 -4 -45 -7 -62 -8c-33 -31 -83 -77 -130 -118
c72 -113 117 -175 156 -210c6 -6 13 -10 24 -13c9 -2 15 -3 35 -6v-53h-124c-48 0 -66 10 -88 41c-30 43 -69 109 -102 174z" />
    <glyph glyph-name="lacute" unicode="&#x13a;" horiz-adv-x="296" 
d="M84 756l91 134h141v-34l-165 -100h-67zM269 0h-242v53c14 2 33 6 50 8v578c-15 8 -46 20 -58 24v46h47c109 0 146 3 161 4c-3 -22 -7 -52 -7 -61v-592c19 -2 35 -5 49 -8v-52z" />
    <glyph glyph-name="lcaron" unicode="&#x13e;" horiz-adv-x="363" 
d="M353 456h-59c-4 59 -13 168 -20 253h101c-7 -75 -17 -194 -22 -253zM269 0h-242v53c14 2 33 6 50 8v578c-15 8 -46 20 -58 24v46h47c109 0 146 3 161 4c-3 -22 -7 -52 -7 -61v-592c19 -2 35 -5 49 -8v-52z" />
    <glyph glyph-name="uni013C" unicode="&#x13c;" horiz-adv-x="296" 
d="M269 0h-242v53c14 2 33 6 50 8v578c-15 8 -46 20 -58 24v46h47c109 0 146 3 161 4c-3 -22 -7 -52 -7 -61v-592c19 -2 35 -5 49 -8v-52zM141 -250l-85 -18l-9 14c38 50 50 84 50 126c0 17 -7 41 -24 64l128 21c12 -15 17 -47 17 -57c0 -50 -22 -106 -77 -150z" />
    <glyph glyph-name="ldot" unicode="&#x140;" horiz-adv-x="317" 
d="M248 377c0 38 21 69 60 69c34 0 58 -24 58 -69s-25 -70 -59 -70c-38 0 -59 28 -59 70zM269 0h-242v53c14 2 33 6 50 8v578c-15 8 -46 20 -58 24v46h47c109 0 146 3 161 4c-3 -22 -7 -52 -7 -61v-592c19 -2 35 -5 49 -8v-52z" />
    <glyph glyph-name="nacute" unicode="&#x144;" horiz-adv-x="591" 
d="M301 528h-64l86 174h126l3 -14zM274 0h-247v53c18 3 39 6 55 8v325c-10 8 -38 23 -51 28v47h65c42 0 99 1 120 3c2 -6 4 -37 5 -51c57 41 102 60 147 60c101 0 145 -81 145 -162v-250c16 -2 35 -6 50 -8v-53h-243v53c21 4 36 6 50 8v251c0 46 -19 82 -73 82
c-24 0 -50 -8 -72 -21v-312c14 -2 37 -5 49 -8v-53z" />
    <glyph glyph-name="ncaron" unicode="&#x148;" horiz-adv-x="591" 
d="M274 0h-247v53c18 3 39 6 55 8v325c-10 8 -38 23 -51 28v47h65c42 0 99 1 120 3c2 -6 4 -37 5 -51c57 41 102 60 147 60c101 0 145 -81 145 -162v-250c16 -2 35 -6 50 -8v-53h-243v53c21 4 36 6 50 8v251c0 46 -19 82 -73 82c-24 0 -50 -8 -72 -21v-312
c14 -2 37 -5 49 -8v-53zM150 693h64l80 -74l80 74h63l-104 -157h-78z" />
    <glyph glyph-name="uni0146" unicode="&#x146;" horiz-adv-x="591" 
d="M274 0h-247v53c18 3 39 6 55 8v325c-10 8 -38 23 -51 28v47h65c42 0 99 1 120 3c2 -6 4 -37 5 -51c57 41 102 60 147 60c101 0 145 -81 145 -162v-250c16 -2 35 -6 50 -8v-53h-243v53c21 4 36 6 50 8v251c0 46 -19 82 -73 82c-24 0 -50 -8 -72 -21v-312
c14 -2 37 -5 49 -8v-53zM296 -250l-86 -19l-9 14c39 50 50 85 50 127c0 17 -7 40 -24 64l129 21c11 -16 16 -47 16 -58c0 -49 -22 -105 -76 -149z" />
    <glyph glyph-name="napostrophe" unicode="&#x149;" horiz-adv-x="591" 
d="M85 532l-68 -10l-4 6c28 48 38 84 38 125c0 20 -8 43 -14 60l119 26c10 -18 12 -51 12 -59c0 -52 -35 -108 -83 -148zM274 0h-247v53c18 3 39 6 55 8v325c-10 8 -38 23 -51 28v47h65c42 0 99 1 120 3c2 -6 4 -37 5 -51c57 41 102 60 147 60c101 0 145 -81 145 -162v-250
c16 -2 35 -6 50 -8v-53h-243v53c21 4 36 6 50 8v251c0 46 -19 82 -73 82c-24 0 -50 -8 -72 -21v-312c14 -2 37 -5 49 -8v-53z" />
    <glyph glyph-name="ohungarumlaut" unicode="&#x151;" horiz-adv-x="560" 
d="M204 527h-57l78 175h113v-17zM383 527h-56l78 175h113v-18zM285 473c140 0 245 -96 245 -235c0 -158 -113 -250 -253 -250c-152 0 -247 107 -247 243c0 138 102 242 255 242zM287 34c69 0 86 93 86 190c0 115 -26 202 -97 202c-69 0 -89 -87 -89 -184
c0 -98 25 -208 100 -208z" />
    <glyph glyph-name="omacron" unicode="&#x14d;" horiz-adv-x="560" 
d="M285 473c140 0 245 -96 245 -235c0 -158 -113 -250 -253 -250c-152 0 -247 107 -247 243c0 138 102 242 255 242zM287 34c69 0 86 93 86 190c0 115 -26 202 -97 202c-69 0 -89 -87 -89 -184c0 -98 25 -208 100 -208zM142 632h275v-74h-275v74z" />
    <glyph glyph-name="racute" unicode="&#x155;" horiz-adv-x="433" 
d="M231 528h-64l86 174h126l4 -14zM312 0h-285v53c16 3 42 6 55 8v325c-12 10 -38 24 -51 28v47h51c41 0 113 1 134 4c2 -20 3 -47 4 -67c47 46 97 75 149 75c22 0 38 -2 49 -7l-15 -142h-54c-12 18 -21 33 -34 39c-9 5 -20 8 -35 8c-19 0 -37 -4 -55 -16v-295
c16 -1 62 -3 87 -7v-53z" />
    <glyph glyph-name="rcaron" unicode="&#x159;" horiz-adv-x="433" 
d="M312 0h-285v53c16 3 42 6 55 8v325c-12 10 -38 24 -51 28v47h51c41 0 113 1 134 4c2 -20 3 -47 4 -67c47 46 97 75 149 75c22 0 38 -2 49 -7l-15 -142h-54c-12 18 -21 33 -34 39c-9 5 -20 8 -35 8c-19 0 -37 -4 -55 -16v-295c16 -1 62 -3 87 -7v-53zM85 693h64l80 -74
l80 74h63l-104 -157h-78z" />
    <glyph glyph-name="uni0157" unicode="&#x157;" horiz-adv-x="433" 
d="M312 0h-285v53c16 3 42 6 55 8v325c-12 10 -38 24 -51 28v47h51c41 0 113 1 134 4c2 -20 3 -47 4 -67c47 46 97 75 149 75c22 0 38 -2 49 -7l-15 -142h-54c-12 18 -21 33 -34 39c-9 5 -20 8 -35 8c-19 0 -37 -4 -55 -16v-295c16 -1 62 -3 87 -7v-53zM156 -251l-85 -18
l-9 14c38 50 50 84 50 126c0 17 -7 41 -24 64l128 21c12 -15 17 -47 17 -57c0 -50 -22 -106 -77 -150z" />
    <glyph glyph-name="sacute" unicode="&#x15b;" horiz-adv-x="428" 
d="M226 528h-64l86 174h126l3 -14zM369 460v-108h-69c-3 4 -24 39 -38 70c-7 3 -19 5 -30 5c-51 0 -71 -27 -71 -55c0 -27 11 -48 91 -78c119 -46 145 -93 145 -150c0 -105 -101 -156 -209 -156c-54 0 -98 10 -142 20c-2 25 -8 94 -10 117h73c5 -7 28 -57 40 -83
c11 -6 28 -8 41 -8c53 0 80 26 80 59c0 29 -9 49 -85 80c-95 40 -142 80 -142 156c0 54 28 144 194 144c57 0 113 -10 132 -13z" />
    <glyph glyph-name="uni015F" unicode="&#x15f;" horiz-adv-x="428" 
d="M369 352h-69c-3 4 -24 39 -38 70c-7 3 -19 5 -30 5c-51 0 -71 -27 -71 -55c0 -27 11 -48 91 -78c119 -46 145 -93 145 -150c0 -86 -68 -136 -151 -151l-38 -36c68 -19 100 -50 100 -97c0 -70 -73 -111 -189 -104v38c42 1 96 12 96 54c0 34 -48 43 -87 50v29l64 61h-4
c-54 0 -98 10 -142 20c-2 25 -8 94 -10 117h73c5 -7 28 -57 40 -83c11 -6 28 -8 41 -8c53 0 80 26 80 59c0 29 -9 49 -85 80c-95 40 -142 80 -142 156c0 54 28 144 194 144c57 0 113 -10 132 -13v-108z" />
    <glyph glyph-name="scircumflex" unicode="&#x15d;" horiz-adv-x="428" 
d="M366 528h-64l-81 75l-80 -75h-63l104 158h79zM369 460v-108h-69c-3 4 -24 39 -38 70c-7 3 -19 5 -30 5c-51 0 -71 -27 -71 -55c0 -27 11 -48 91 -78c119 -46 145 -93 145 -150c0 -105 -101 -156 -209 -156c-54 0 -98 10 -142 20c-2 25 -8 94 -10 117h73
c5 -7 28 -57 40 -83c11 -6 28 -8 41 -8c53 0 80 26 80 59c0 29 -9 49 -85 80c-95 40 -142 80 -142 156c0 54 28 144 194 144c57 0 113 -10 132 -13z" />
    <glyph glyph-name="uni0219" unicode="&#x219;" horiz-adv-x="428" 
d="M369 460v-108h-69c-3 4 -24 39 -38 70c-7 3 -19 5 -30 5c-51 0 -71 -27 -71 -55c0 -27 11 -48 91 -78c119 -46 145 -93 145 -150c0 -105 -101 -156 -209 -156c-54 0 -98 10 -142 20c-2 25 -8 94 -10 117h73c5 -7 28 -57 40 -83c11 -6 28 -8 41 -8c53 0 80 26 80 59
c0 29 -9 49 -85 80c-95 40 -142 80 -142 156c0 54 28 144 194 144c57 0 113 -10 132 -13zM209 -256l-85 -18l-9 14c38 50 50 84 50 126c0 17 -7 41 -24 64l128 21c12 -15 17 -47 17 -57c0 -50 -22 -106 -77 -150z" />
    <glyph glyph-name="tcaron" unicode="&#x165;" horiz-adv-x="335" 
d="M372 548h-59l-19 180h101zM323 68v-48c-45 -25 -81 -32 -116 -32c-82 0 -133 36 -133 141v271c-16 1 -52 6 -65 8v53h69c11 31 41 92 64 129h93c-7 -35 -15 -114 -15 -129h108v-53c-21 -3 -80 -8 -111 -8v-300c0 -24 10 -44 53 -44c16 0 32 4 53 12z" />
    <glyph glyph-name="uni0163" unicode="&#x163;" horiz-adv-x="335" 
d="M328 461v-53c-21 -3 -80 -8 -111 -8v-300c0 -24 10 -44 53 -44c16 0 32 4 53 12v-48c-40 -22 -74 -30 -105 -32l-23 -22c67 -19 100 -50 100 -97c0 -70 -73 -111 -189 -105v38c42 1 95 13 95 54c0 34 -48 43 -86 51v29l57 55c-61 10 -98 49 -98 138v271
c-16 1 -52 6 -65 8v53h69c11 31 41 92 64 129h93c-7 -35 -15 -114 -15 -129h108z" />
    <glyph glyph-name="uni021B" unicode="&#x21b;" horiz-adv-x="335" 
d="M323 68v-48c-45 -25 -81 -32 -116 -32c-82 0 -133 36 -133 141v271c-16 1 -52 6 -65 8v53h69c11 31 41 92 64 129h93c-7 -35 -15 -114 -15 -129h108v-53c-21 -3 -80 -8 -111 -8v-300c0 -24 10 -44 53 -44c16 0 32 4 53 12zM180 -260l-85 -19l-9 15c38 49 50 84 50 126
c0 17 -7 41 -24 64l128 21c12 -15 17 -47 17 -57c0 -50 -22 -106 -77 -150z" />
    <glyph glyph-name="ubreve" unicode="&#x16d;" horiz-adv-x="577" 
d="M389 680h48c-15 -80 -66 -142 -154 -142c-84 0 -138 52 -151 142h52c19 -45 49 -61 99 -61c55 0 85 14 106 61zM554 70v-52c-41 -3 -154 -25 -180 -30c-5 19 -8 41 -11 63c-57 -51 -102 -63 -150 -63c-67 0 -140 39 -140 157v244c-14 11 -35 21 -48 25v47h63
c53 0 118 2 131 3c-2 -25 -3 -49 -3 -61v-268c0 -29 22 -65 69 -65c21 0 48 6 72 23v294c-14 9 -46 22 -63 26v48h73c63 0 121 2 133 3v-386c9 -3 33 -5 54 -8z" />
    <glyph glyph-name="uhungarumlaut" unicode="&#x171;" horiz-adv-x="577" 
d="M554 70v-52c-41 -3 -154 -25 -180 -30c-5 19 -8 41 -11 63c-57 -51 -102 -63 -150 -63c-67 0 -140 39 -140 157v244c-14 11 -35 21 -48 25v47h63c53 0 118 2 131 3c-2 -25 -3 -49 -3 -61v-268c0 -29 22 -65 69 -65c21 0 48 6 72 23v294c-14 9 -46 22 -63 26v48h73
c63 0 121 2 133 3v-386c9 -3 33 -5 54 -8zM203 527h-56l78 175h113v-17zM383 527h-56l77 175h114v-18z" />
    <glyph glyph-name="umacron" unicode="&#x16b;" horiz-adv-x="577" 
d="M147 640h275v-74h-275v74zM554 70v-52c-41 -3 -154 -25 -180 -30c-5 19 -8 41 -11 63c-57 -51 -102 -63 -150 -63c-67 0 -140 39 -140 157v244c-14 11 -35 21 -48 25v47h63c53 0 118 2 131 3c-2 -25 -3 -49 -3 -61v-268c0 -29 22 -65 69 -65c21 0 48 6 72 23v294
c-14 9 -46 22 -63 26v48h73c63 0 121 2 133 3v-386c9 -3 33 -5 54 -8z" />
    <glyph glyph-name="uogonek" unicode="&#x173;" horiz-adv-x="577" 
d="M554 70v-52c-2 0 -4 0 -6 -1c-45 -39 -72 -82 -72 -116c0 -38 28 -53 57 -53c20 0 29 1 47 6v-40c-39 -30 -69 -36 -106 -36c-79 0 -108 47 -108 91c0 50 43 98 118 139c-45 -7 -94 -17 -110 -20c-5 19 -8 41 -11 63c-57 -51 -102 -63 -150 -63c-67 0 -140 39 -140 157
v244c-14 11 -35 21 -48 25v47h63c53 0 118 2 131 3c-2 -25 -3 -49 -3 -61v-268c0 -29 22 -65 69 -65c21 0 48 6 72 23v294c-14 9 -46 22 -63 26v48h73c63 0 121 2 133 3v-386c9 -3 33 -5 54 -8z" />
    <glyph glyph-name="uring" unicode="&#x16f;" horiz-adv-x="577" 
d="M554 70v-52c-41 -3 -154 -25 -180 -30c-5 19 -8 41 -11 63c-57 -51 -102 -63 -150 -63c-67 0 -140 39 -140 157v244c-14 11 -35 21 -48 25v47h63c53 0 118 2 131 3c-2 -25 -3 -49 -3 -61v-268c0 -29 22 -65 69 -65c21 0 48 6 72 23v294c-14 9 -46 22 -63 26v48h73
c63 0 121 2 133 3v-386c9 -3 33 -5 54 -8zM279 694c59 0 96 -30 96 -86c0 -54 -42 -85 -96 -85c-58 0 -95 33 -95 85c0 55 37 86 95 86zM278 659c-28 0 -46 -18 -46 -51s21 -50 47 -50c28 0 48 15 48 52c0 30 -21 49 -49 49z" />
    <glyph glyph-name="utilde" unicode="&#x169;" horiz-adv-x="577" 
d="M382 679h54c5 -96 -39 -129 -89 -129c-27 0 -49 10 -74 21c-32 13 -48 18 -63 18c-18 0 -31 -8 -33 -43h-56c-6 92 41 125 92 125c29 0 49 -6 87 -22c14 -6 37 -16 52 -16s30 7 30 46zM554 70v-52c-41 -3 -154 -25 -180 -30c-5 19 -8 41 -11 63
c-57 -51 -102 -63 -150 -63c-67 0 -140 39 -140 157v244c-14 11 -35 21 -48 25v47h63c53 0 118 2 131 3c-2 -25 -3 -49 -3 -61v-268c0 -29 22 -65 69 -65c21 0 48 6 72 23v294c-14 9 -46 22 -63 26v48h73c63 0 121 2 133 3v-386c9 -3 33 -5 54 -8z" />
    <glyph glyph-name="wacute" unicode="&#x1e83;" horiz-adv-x="743" 
d="M413 528h-64l86 174h126l4 -14zM557 -6h-74c-19 58 -92 247 -117 323c-18 -75 -82 -243 -106 -323h-74c-19 66 -112 324 -141 404c-14 1 -30 5 -53 10v53h258v-53c-21 -5 -44 -7 -56 -8c6 -28 55 -168 73 -234c18 63 81 249 93 295h88c21 -61 92 -241 112 -307
c14 47 63 189 76 243c-19 2 -61 6 -81 11v53h201v-53c-17 -4 -45 -8 -56 -10c-22 -66 -109 -302 -143 -404z" />
    <glyph glyph-name="wcircumflex" unicode="&#x175;" horiz-adv-x="743" 
d="M557 -6h-74c-19 58 -92 247 -117 323c-18 -75 -82 -243 -106 -323h-74c-19 66 -112 324 -141 404c-14 1 -30 5 -53 10v53h258v-53c-21 -5 -44 -7 -56 -8c6 -28 55 -168 73 -234c18 63 81 249 93 295h88c21 -61 92 -241 112 -307c14 47 63 189 76 243c-19 2 -61 6 -81 11
v53h201v-53c-17 -4 -45 -8 -56 -10c-22 -66 -109 -302 -143 -404zM545 528h-64l-80 75l-80 -75h-63l104 158h78z" />
    <glyph glyph-name="wdieresis" unicode="&#x1e85;" horiz-adv-x="743" 
d="M226 606c0 30 22 69 70 69c43 0 67 -32 67 -69c0 -40 -26 -69 -68 -69c-47 0 -69 35 -69 69zM438 606c0 30 20 69 69 69c44 0 67 -32 67 -69c0 -40 -25 -69 -68 -69c-48 0 -68 35 -68 69zM557 -6h-74c-19 58 -92 247 -117 323c-18 -75 -82 -243 -106 -323h-74
c-19 66 -112 324 -141 404c-14 1 -30 5 -53 10v53h258v-53c-21 -5 -44 -7 -56 -8c6 -28 55 -168 73 -234c18 63 81 249 93 295h88c21 -61 92 -241 112 -307c14 47 63 189 76 243c-19 2 -61 6 -81 11v53h201v-53c-17 -4 -45 -8 -56 -10c-22 -66 -109 -302 -143 -404z" />
    <glyph glyph-name="wgrave" unicode="&#x1e81;" horiz-adv-x="743" 
d="M557 -6h-74c-19 58 -92 247 -117 323c-18 -75 -82 -243 -106 -323h-74c-19 66 -112 324 -141 404c-14 1 -30 5 -53 10v53h258v-53c-21 -5 -44 -7 -56 -8c6 -28 55 -168 73 -234c18 63 81 249 93 295h88c21 -61 92 -241 112 -307c14 47 63 189 76 243c-19 2 -61 6 -81 11
v53h201v-53c-17 -4 -45 -8 -56 -10c-22 -66 -109 -302 -143 -404zM439 528h-64l-152 159l4 15h130z" />
    <glyph glyph-name="ycircumflex" unicode="&#x177;" horiz-adv-x="502" 
d="M413 528h-64l-81 75l-80 -75h-62l104 158h78zM45 397c-8 1 -30 6 -51 11v53h262v-53c-13 -3 -44 -7 -54 -7c18 -49 88 -217 98 -244c28 64 87 213 95 241c-15 1 -57 6 -84 10v53h208v-53c-19 -5 -43 -8 -56 -9c-33 -81 -94 -217 -169 -390c-23 -52 -69 -172 -99 -253
c-27 -2 -102 12 -118 26v11c46 57 107 140 144 202c2 3 3 7 1 12c-24 55 -145 324 -177 390z" />
    <glyph glyph-name="ygrave" unicode="&#x1ef3;" horiz-adv-x="502" 
d="M45 397c-8 1 -30 6 -51 11v53h262v-53c-13 -3 -44 -7 -54 -7c18 -49 88 -217 98 -244c28 64 87 213 95 241c-15 1 -57 6 -84 10v53h208v-53c-19 -5 -43 -8 -56 -9c-33 -81 -94 -217 -169 -390c-23 -52 -69 -172 -99 -253c-27 -2 -102 12 -118 26v11
c46 57 107 140 144 202c2 3 3 7 1 12c-24 55 -145 324 -177 390zM335 528h-64l-151 159l4 15h130z" />
    <glyph glyph-name="zacute" unicode="&#x17a;" horiz-adv-x="451" 
d="M237 528h-64l86 174h126l4 -14zM105 328h-72v133h389v-44c-58 -87 -203 -312 -239 -366l139 1c10 20 37 72 44 84h72c-7 -39 -23 -114 -27 -136h-387v47c70 101 187 279 242 363h-130c-9 -31 -26 -73 -31 -82z" />
    <glyph glyph-name="zdotaccent" unicode="&#x17c;" horiz-adv-x="451" 
d="M105 328h-72v133h389v-44c-58 -87 -203 -312 -239 -366l139 1c10 20 37 72 44 84h72c-7 -39 -23 -114 -27 -136h-387v47c70 101 187 279 242 363h-130c-9 -31 -26 -73 -31 -82zM150 606c0 32 24 74 81 74c50 0 78 -34 78 -74c0 -43 -30 -75 -79 -75c-56 0 -80 39 -80 75z
" />
    <glyph glyph-name="uni0259" unicode="&#x259;" horiz-adv-x="500" 
d="M58 365v46c58 40 125 61 183 61c145 0 230 -103 230 -241c0 -124 -79 -243 -235 -243c-145 0 -208 97 -208 207c0 9 0 29 5 42c9 5 64 7 162 7h127c-4 121 -61 156 -131 156c-41 0 -88 -11 -133 -35zM321 196h-89c-26 0 -52 -1 -61 -1c-2 -12 -2 -15 -2 -32
c0 -71 23 -129 77 -129c47 0 72 49 75 162z" />
    <glyph glyph-name="uni0251" unicode="&#x251;" horiz-adv-x="580" 
d="M245 473c71 0 109 -40 123 -75c5 23 10 47 20 63h127c-6 -27 -17 -80 -17 -131v-233c0 -24 13 -39 34 -39c17 0 28 5 39 11v-48c-23 -24 -64 -33 -109 -33c-62 0 -99 39 -100 90v3c-16 -50 -65 -93 -142 -93c-111 0 -184 96 -184 239c0 129 72 246 209 246zM272 408
c-67 0 -93 -59 -93 -180c0 -127 39 -172 87 -172c54 0 90 59 90 210c0 112 -38 142 -84 142z" />
    <glyph glyph-name="uni0261" unicode="&#x261;" horiz-adv-x="573" 
d="M393 461h123c-6 -27 -16 -78 -16 -129v-273c0 -222 -146 -302 -275 -302c-103 0 -152 31 -172 49c2 29 40 86 65 103c16 -18 37 -42 67 -67c26 -23 52 -28 68 -28c88 0 110 75 110 221v48c-20 -51 -65 -95 -143 -95c-117 0 -184 99 -184 230c0 130 73 253 210 253
c71 0 108 -36 124 -71c5 21 14 45 23 61zM273 406c-66 0 -94 -64 -94 -187c0 -136 40 -162 86 -162c53 0 91 53 92 196c1 127 -38 153 -84 153z" />
    <glyph glyph-name="T_h" horiz-adv-x="1196" 
d="M687 62v573c-3 6 -23 12 -37 24v47c46 0 151 6 182 10c0 -11 -2 -99 -2 -134v-163c59 41 104 54 141 54c108 0 148 -83 148 -168v-244c16 -2 35 -5 50 -8v-53h-243v53c17 3 35 7 50 9v254c0 38 -17 80 -77 80c-23 0 -51 -9 -69 -20v-316c12 -1 31 -4 49 -7v-53h-242v53
c18 3 34 6 50 9zM23 497v151h596v-143c-5 -2 -58 -1 -65 2c-6 3 -27 45 -47 83h-113v-528c28 -1 68 -7 92 -10v-52h-336v53c34 3 60 7 88 9v528h-104c-20 -43 -41 -90 -46 -91c-8 -4 -58 -4 -65 -2z" />
    <glyph glyph-name="Tcaron_h" horiz-adv-x="1196" 
d="M687 62v573c-3 6 -23 12 -37 24v47c46 0 151 6 182 10c0 -11 -2 -99 -2 -134v-163c59 41 104 54 141 54c108 0 148 -83 148 -168v-244c16 -2 35 -5 50 -8v-53h-243v53c17 3 35 7 50 9v254c0 38 -17 80 -77 80c-23 0 -51 -9 -69 -20v-316c12 -1 31 -4 49 -7v-53h-242v53
c18 3 34 6 50 9zM23 497v151h596v-143c-5 -2 -58 -1 -65 2c-6 3 -27 45 -47 83h-113v-528c28 -1 68 -7 92 -10v-52h-336v53c34 3 60 7 88 9v528h-104c-20 -43 -41 -90 -46 -91c-8 -4 -58 -4 -65 -2zM148 804v50l168 -63l166 63v-50l-150 -100h-38z" />
    <glyph glyph-name="uni021A_h" horiz-adv-x="1196" 
d="M687 62v573c-3 6 -23 12 -37 24v47c46 0 151 6 182 10c0 -11 -2 -99 -2 -134v-163c59 41 104 54 141 54c108 0 148 -83 148 -168v-244c16 -2 35 -5 50 -8v-53h-243v53c17 3 35 7 50 9v254c0 38 -17 80 -77 80c-23 0 -51 -9 -69 -20v-316c12 -1 31 -4 49 -7v-53h-242v53
c18 3 34 6 50 9zM23 497v151h596v-143c-5 -2 -58 -1 -65 2c-6 3 -27 45 -47 83h-113v-528c28 -1 68 -7 92 -10v-52h-336v53c34 3 60 7 88 9v528h-104c-20 -43 -41 -90 -46 -91c-8 -4 -58 -4 -65 -2zM311 -251l-85 -19l-9 15c38 49 50 84 50 126c0 17 -7 41 -24 64l128 21
c12 -15 17 -47 17 -57c0 -50 -22 -106 -77 -150z" />
    <glyph glyph-name="caron.alt" horiz-adv-x="244" 
d="M152 429l-66 -1c-3 38 -18 172 -26 247h123c-6 -67 -20 -176 -31 -246z" />
    <glyph glyph-name="uni00200326" 
d="M209 -248l-85 -19l-9 15c38 49 50 84 50 126c0 17 -7 41 -24 64l128 21c12 -15 17 -47 17 -57c0 -50 -22 -106 -77 -150z" />
    <glyph glyph-name="uni0020030F" 
d="M326 527h-56l-115 158v17h114zM147 527h-56l-115 157v18h113z" />
    <glyph glyph-name="grave.cap" 
d="M152 840l100 -136h-81l-158 101v35h139z" />
    <glyph glyph-name="acute.cap" 
d="M151 704l101 136h139v-35l-159 -101h-81z" />
    <glyph glyph-name="circumflex.cap" 
d="M367 750v-50l-168 63l-166 -63v50l150 100h37z" />
    <glyph glyph-name="tilde.cap" 
d="M316 834h56c6 -91 -40 -124 -94 -124c-29 0 -56 10 -82 19c-33 14 -59 20 -74 20c-19 0 -32 -7 -34 -42h-54c-7 89 40 121 94 121c31 0 57 -7 96 -22c15 -6 44 -16 60 -16s31 5 32 44z" />
    <glyph glyph-name="macron.cap" 
d="M52 791h296v-69h-296v69z" />
    <glyph glyph-name="breve.cap" 
d="M326 841h55c-28 -87 -86 -141 -186 -141c-117 0 -164 78 -177 141h56c22 -33 57 -59 122 -59c78 0 105 25 130 59z" />
    <glyph glyph-name="dotaccent.cap" 
d="M130 779c0 33 24 69 71 69c41 0 69 -31 69 -69c0 -40 -30 -68 -70 -68c-45 0 -70 33 -70 68z" />
    <glyph glyph-name="dieresis.cap" 
d="M90 835c31 0 54 -31 54 -61c0 -42 -29 -60 -57 -60c-24 0 -55 21 -55 58c0 31 21 63 58 63zM311 834c36 0 57 -30 57 -60c0 -31 -25 -60 -58 -60c-30 0 -58 25 -58 59c0 41 33 61 59 61z" />
    <glyph glyph-name="ring.cap" 
d="M203 847c59 0 96 -30 96 -85s-42 -86 -96 -86c-58 0 -94 33 -94 86c0 54 36 85 94 85zM202 813c-28 0 -46 -19 -46 -51c0 -34 21 -51 47 -51c28 0 48 15 48 52c0 30 -21 50 -49 50z" />
    <glyph glyph-name="cedilla.cap" 
d="M204 1h47l-45 -44c68 -19 100 -50 100 -97c0 -70 -73 -111 -189 -104v38c42 1 96 12 96 54c0 34 -49 43 -87 50v29z" />
    <glyph glyph-name="hungarumlaut.cap" 
d="M47 706l80 136h115v-32l-128 -104h-67zM252 706l80 136h115v-32l-129 -104h-66z" />
    <glyph glyph-name="ogonek.cap" 
d="M188 4h55c-42 -41 -59 -71 -59 -107c0 -35 29 -49 59 -49c20 0 37 1 57 9v-41c-40 -30 -77 -39 -114 -39c-80 0 -113 50 -113 91c0 50 46 103 115 136z" />
    <glyph glyph-name="caron.cap" 
d="M33 796v51l168 -64l166 64v-51l-150 -99h-38z" />
    <glyph glyph-name="uni00200326.cap" 
d="M209 -218l-85 -19l-9 15c38 49 50 84 50 126c0 17 -7 41 -24 64l128 21c12 -15 17 -47 17 -57c0 -50 -22 -106 -77 -150z" />
    <glyph glyph-name="uni0020030F.cap" 
d="M296 841l62 -136h-67l-111 104v32h116zM91 841l62 -136h-67l-111 104v32h116z" />
    <glyph glyph-name="Ohorn" unicode="&#x1a0;" horiz-adv-x="767" 
d="M392 36c87 0 149 74 149 277c0 212 -78 297 -170 297c-84 0 -150 -64 -150 -266s75 -308 171 -308zM744 672c0 -66 -54 -107 -101 -126c46 -57 70 -133 70 -218c0 -186 -119 -340 -330 -340c-209 0 -334 144 -334 336c0 189 124 334 338 334c94 0 170 -29 226 -80
c19 7 36 24 36 34c0 21 -21 52 -36 73c13 21 77 53 112 58c12 -11 19 -37 19 -71z" />
    <glyph glyph-name="Uhorn" unicode="&#x1af;" horiz-adv-x="717" 
d="M29 648h308v-52c-26 -6 -64 -9 -84 -11v-401c0 -58 45 -125 144 -125c102 0 145 72 145 133v394c-23 2 -68 7 -89 10v52h165c28 0 41 6 41 18c0 18 -27 47 -52 74c20 22 83 53 109 58c9 -12 20 -37 20 -71c0 -84 -66 -126 -116 -136v-373c0 -56 -11 -97 -35 -133
c-38 -57 -110 -97 -219 -97c-134 0 -207 49 -242 108c-20 35 -27 76 -27 120v370c-25 2 -49 6 -68 9v53z" />
    <glyph glyph-name="ohorn" unicode="&#x1a1;" horiz-adv-x="560" 
d="M287 34c69 0 86 93 86 190c0 115 -26 202 -97 202c-69 0 -89 -87 -89 -184c0 -98 25 -208 100 -208zM561 512c0 -60 -43 -100 -85 -121c34 -40 54 -92 54 -153c0 -158 -113 -250 -253 -250c-152 0 -247 107 -247 243c0 138 102 242 255 242c61 0 115 -18 157 -50
c15 8 26 21 26 30c0 20 -20 51 -36 72c13 21 76 53 111 57c12 -10 18 -37 18 -70z" />
    <glyph glyph-name="uhorn" unicode="&#x1b0;" horiz-adv-x="577" 
d="M357 93v294c-14 9 -46 22 -63 26v48h194c29 0 34 7 34 17c0 18 -24 51 -48 79c19 21 85 54 111 59c9 -12 19 -37 19 -72c0 -98 -67 -130 -104 -140v-326c9 -3 33 -5 54 -8v-52c-41 -3 -154 -25 -180 -30c-5 19 -8 41 -11 63c-57 -51 -102 -63 -150 -63
c-67 0 -140 42 -140 160v241c-14 11 -35 21 -48 25v47h63c53 0 118 2 131 3c-2 -25 -3 -49 -3 -61v-268c0 -29 22 -65 69 -65c21 0 48 6 72 23z" />
    <glyph glyph-name="uni01CD" unicode="&#x1cd;" horiz-adv-x="647" 
d="M191 282h170l-85 244zM215 0h-234v53c28 4 57 8 68 10c27 64 143 382 188 509c7 17 13 36 8 76h140c14 -45 163 -451 217 -587c18 -1 38 -5 64 -8v-53h-306v52c16 3 51 8 77 9l-59 164h-204l-54 -163c31 -2 68 -6 95 -10v-52zM147 797v50l167 -63l166 63v-50l-150 -100
h-37z" />
    <glyph glyph-name="uni1E0C" unicode="&#x1e0c;" horiz-adv-x="741" 
d="M331 591h-68v-534h72c95 0 188 81 188 272c0 196 -93 262 -192 262zM29 648h327c207 0 336 -116 336 -305c0 -238 -193 -343 -365 -343h-298v53c24 4 63 8 78 10v522c-17 2 -52 6 -78 10v53zM333 -217c-33 0 -77 23 -77 74c0 44 31 78 79 78c46 0 77 -35 77 -77
c0 -53 -44 -75 -79 -75z" />
    <glyph glyph-name="uni1E0E" unicode="&#x1e0e;" horiz-adv-x="741" 
d="M331 591h-68v-534h72c95 0 188 81 188 272c0 196 -93 262 -192 262zM29 648h327c207 0 336 -116 336 -305c0 -238 -193 -343 -365 -343h-298v53c24 4 63 8 78 10v522c-17 2 -52 6 -78 10v53zM206 -86h275v-74h-275v74z" />
    <glyph glyph-name="Gcaron" unicode="&#x1e6;" horiz-adv-x="726" 
d="M524 597c-10 4 -47 11 -87 11c-93 0 -217 -54 -217 -270c0 -207 102 -299 211 -299c14 0 39 2 51 5v211c-25 2 -74 8 -92 11v53h301v-52c-16 -3 -38 -6 -53 -7v-195c0 -8 2 -22 8 -50c-77 -12 -148 -27 -234 -27c-194 0 -363 104 -363 341c0 193 147 329 394 329
c97 0 152 -8 197 -11v-141h-71c-6 5 -25 45 -45 91zM254 813v50l167 -63l166 63v-50l-150 -99h-37z" />
    <glyph glyph-name="uni1E20" unicode="&#x1e20;" horiz-adv-x="726" 
d="M524 597c-10 4 -47 11 -87 11c-93 0 -217 -54 -217 -270c0 -207 102 -299 211 -299c14 0 39 2 51 5v211c-25 2 -74 8 -92 11v53h301v-52c-16 -3 -38 -6 -53 -7v-195c0 -8 2 -22 8 -50c-77 -12 -148 -27 -234 -27c-194 0 -363 104 -363 341c0 193 147 329 394 329
c97 0 152 -8 197 -11v-141h-71c-6 5 -25 45 -45 91zM263 809h297v-69h-297v69z" />
    <glyph glyph-name="uni1E2A" unicode="&#x1e2a;" horiz-adv-x="767" 
d="M486 -66h49c-15 -81 -67 -143 -155 -143c-83 0 -138 52 -150 143h51c20 -45 49 -62 99 -62c56 0 85 15 106 62zM323 0h-294v53c29 4 58 8 79 9v523c-16 2 -33 3 -79 10v53h294v-52c-21 -5 -39 -9 -60 -10v-213h240v213c-12 3 -38 6 -61 10v52h295v-53
c-23 -4 -50 -8 -78 -9v-524c27 -3 51 -5 78 -9v-53h-296v53c20 4 46 7 62 9v251h-240v-251c14 -2 38 -5 60 -10v-52z" />
    <glyph glyph-name="uni1E24" unicode="&#x1e24;" horiz-adv-x="767" 
d="M323 0h-294v53c29 4 58 8 79 9v523c-16 2 -33 3 -79 10v53h294v-52c-21 -5 -39 -9 -60 -10v-213h240v213c-12 3 -38 6 -61 10v52h295v-53c-23 -4 -50 -8 -78 -9v-524c27 -3 51 -5 78 -9v-53h-296v53c20 4 46 7 62 9v251h-240v-251c14 -2 38 -5 60 -10v-52zM384 -214
c-34 0 -77 23 -77 74c0 44 31 78 79 78c46 0 77 -35 77 -77c0 -53 -44 -75 -79 -75z" />
    <glyph glyph-name="uni01CF" unicode="&#x1cf;" horiz-adv-x="365" 
d="M337 0h-312v53c25 4 55 8 78 9v523c-20 2 -50 6 -78 10v53h312v-53c-24 -4 -58 -8 -78 -10v-523c20 -2 53 -5 78 -9v-53zM18 805v50l168 -63l166 63v-50l-150 -100h-38z" />
    <glyph glyph-name="uni1E36" unicode="&#x1e36;" horiz-adv-x="607" 
d="M549 0h-520v53c27 3 54 7 78 9v523c-16 2 -51 6 -78 10v53h329v-53c-39 -5 -73 -8 -95 -10v-528h186c18 29 68 102 75 107h73zM307 -218c-34 0 -78 24 -78 75c0 44 32 78 80 78c46 0 77 -35 77 -77c0 -54 -45 -76 -79 -76z" />
    <glyph glyph-name="uni1E38" unicode="&#x1e38;" horiz-adv-x="607" 
d="M549 0h-520v53c27 3 54 7 78 9v523c-16 2 -51 6 -78 10v53h329v-53c-39 -5 -73 -8 -95 -10v-528h186c18 29 68 102 75 107h73zM307 -218c-34 0 -78 24 -78 75c0 44 32 78 80 78c46 0 77 -35 77 -77c0 -54 -45 -76 -79 -76zM40 798h297v-68h-297v68z" />
    <glyph glyph-name="uni1E3A" unicode="&#x1e3a;" horiz-adv-x="607" 
d="M549 0h-520v53c27 3 54 7 78 9v523c-16 2 -51 6 -78 10v53h329v-53c-39 -5 -73 -8 -95 -10v-528h186c18 29 68 102 75 107h73zM164 -88h276v-73h-276v73z" />
    <glyph glyph-name="uni1E42" unicode="&#x1e42;" horiz-adv-x="902" 
d="M272 0h-247v53c23 3 63 8 76 10l14 522c-18 2 -50 5 -82 10v53h235c15 -37 173 -387 192 -429c32 79 163 374 183 429h230v-53c-3 -1 -50 -7 -80 -11l-1 -522c24 -3 50 -6 79 -11v-51h-316v53c37 5 69 8 81 10c4 158 9 354 12 470c-27 -72 -196 -481 -217 -533h-52
c-22 55 -192 468 -214 530l2 -467c34 -2 80 -7 105 -10v-53zM408 -215c-34 0 -78 24 -78 75c0 44 32 78 79 78s77 -35 77 -77c0 -54 -44 -76 -78 -76z" />
    <glyph glyph-name="uni1E44" unicode="&#x1e44;" horiz-adv-x="734" 
d="M276 0h-248v53c24 3 58 8 77 10c1 138 2 409 4 523c-15 3 -55 6 -79 9v53h219c174 -256 303 -433 318 -460h2c-1 109 2 300 -2 398c-17 1 -67 5 -99 9v53h245v-53c-17 -3 -58 -8 -75 -9c0 -59 -1 -266 -2 -398c0 -66 1 -171 3 -188h-120c-234 355 -329 492 -346 523h-1
c2 -89 1 -401 4 -461c24 -2 63 -5 100 -10v-52zM299 779c0 33 24 69 71 69c40 0 69 -31 69 -69c0 -40 -31 -68 -70 -68c-46 0 -70 33 -70 68z" />
    <glyph glyph-name="uni1E46" unicode="&#x1e46;" horiz-adv-x="734" 
d="M276 0h-248v53c24 3 58 8 77 10c1 138 2 409 4 523c-15 3 -55 6 -79 9v53h219c174 -256 303 -433 318 -460h2c-1 109 2 300 -2 398c-17 1 -67 5 -99 9v53h245v-53c-17 -3 -58 -8 -75 -9c0 -59 -1 -266 -2 -398c0 -66 1 -171 3 -188h-120c-234 355 -329 492 -346 523h-1
c2 -89 1 -401 4 -461c24 -2 63 -5 100 -10v-52zM368 -216c-33 0 -77 24 -77 75c0 44 31 78 79 78c46 0 77 -35 77 -77c0 -54 -44 -76 -79 -76z" />
    <glyph glyph-name="uni1E48" unicode="&#x1e48;" horiz-adv-x="734" 
d="M222 -85h275v-74h-275v74zM276 0h-248v53c24 3 58 8 77 10c1 138 2 409 4 523c-15 3 -55 6 -79 9v53h219c174 -256 303 -433 318 -460h2c-1 109 2 300 -2 398c-17 1 -67 5 -99 9v53h245v-53c-17 -3 -58 -8 -75 -9c0 -59 -1 -266 -2 -398c0 -66 1 -171 3 -188h-120
c-234 355 -329 492 -346 523h-1c2 -89 1 -401 4 -461c24 -2 63 -5 100 -10v-52z" />
    <glyph glyph-name="uni01D1" unicode="&#x1d1;" horiz-adv-x="762" 
d="M383 -12c-209 0 -334 144 -334 336c0 189 124 334 338 334c205 0 326 -140 326 -330c0 -186 -119 -340 -330 -340zM392 36c87 0 149 74 149 277c0 212 -78 297 -170 297c-84 0 -150 -64 -150 -266s75 -308 171 -308zM214 810v50l168 -63l166 63v-50l-150 -100h-38z" />
    <glyph glyph-name="uni1E5A" unicode="&#x1e5a;" horiz-adv-x="676" 
d="M263 334h89c26 0 34 4 45 13c28 25 46 65 46 112c0 98 -52 132 -120 132h-60v-257zM341 0h-312v53c30 4 61 7 78 9v522c-22 3 -49 7 -78 11v53h305c57 0 114 -4 149 -16c68 -23 116 -74 116 -153c0 -100 -76 -147 -129 -168c42 -75 121 -202 153 -235
c12 -12 20 -16 30 -18c10 -3 27 -4 36 -5v-53h-113c-63 0 -90 7 -122 53c-31 46 -77 134 -119 212c-4 8 -7 11 -14 11h-58v-214c16 -1 55 -5 78 -9v-53zM339 -216c-33 0 -77 24 -77 75c0 44 31 78 79 78c47 0 77 -35 77 -77c0 -54 -44 -76 -79 -76z" />
    <glyph glyph-name="uni1E5C" unicode="&#x1e5c;" horiz-adv-x="676" 
d="M263 334h89c26 0 34 4 45 13c28 25 46 65 46 112c0 98 -52 132 -120 132h-60v-257zM341 0h-312v53c30 4 61 7 78 9v522c-22 3 -49 7 -78 11v53h305c57 0 114 -4 149 -16c68 -23 116 -74 116 -153c0 -100 -76 -147 -129 -168c42 -75 121 -202 153 -235
c12 -12 20 -16 30 -18c10 -3 27 -4 36 -5v-53h-113c-63 0 -90 7 -122 53c-31 46 -77 134 -119 212c-4 8 -7 11 -14 11h-58v-214c16 -1 55 -5 78 -9v-53zM339 -216c-33 0 -77 24 -77 75c0 44 31 78 79 78c46 0 77 -35 77 -77c0 -54 -44 -76 -79 -76zM168 804h297v-69h-297v69
z" />
    <glyph glyph-name="uni1E5E" unicode="&#x1e5e;" horiz-adv-x="676" 
d="M263 334h89c26 0 34 4 45 13c28 25 46 65 46 112c0 98 -52 132 -120 132h-60v-257zM341 0h-312v53c30 4 61 7 78 9v522c-22 3 -49 7 -78 11v53h305c57 0 114 -4 149 -16c68 -23 116 -74 116 -153c0 -100 -76 -147 -129 -168c42 -75 121 -202 153 -235
c12 -12 20 -16 30 -18c10 -3 27 -4 36 -5v-53h-113c-63 0 -90 7 -122 53c-31 46 -77 134 -119 212c-4 8 -7 11 -14 11h-58v-214c16 -1 55 -5 78 -9v-53zM202 -82h275v-74h-275v74z" />
    <glyph glyph-name="uni1E60" unicode="&#x1e60;" horiz-adv-x="560" 
d="M60 17l-10 137h72c7 -8 36 -67 53 -104c12 -6 40 -12 73 -12c76 0 119 40 119 94c0 50 -25 82 -140 131c-137 59 -169 133 -169 210c0 94 70 185 251 185c71 0 123 -9 169 -11v-140h-68c-6 4 -29 50 -48 91c-16 8 -41 11 -59 11c-75 0 -111 -36 -111 -86
c0 -44 21 -81 121 -122c156 -65 202 -122 202 -213c0 -129 -117 -200 -270 -200c-89 0 -137 16 -185 29zM221 784c0 33 24 69 71 69c40 0 68 -31 68 -69c0 -40 -30 -68 -69 -68c-46 0 -70 33 -70 68z" />
    <glyph glyph-name="uni1E62" unicode="&#x1e62;" horiz-adv-x="560" 
d="M60 17l-10 137h72c7 -8 36 -67 53 -104c12 -6 40 -12 73 -12c76 0 119 40 119 94c0 50 -25 82 -140 131c-137 59 -169 133 -169 210c0 94 70 185 251 185c71 0 123 -9 169 -11v-140h-68c-6 4 -29 50 -48 91c-16 8 -41 11 -59 11c-75 0 -111 -36 -111 -86
c0 -44 21 -81 121 -122c156 -65 202 -122 202 -213c0 -129 -117 -200 -270 -200c-89 0 -137 16 -185 29zM268 -219c-34 0 -78 24 -78 75c0 44 32 78 80 78c46 0 77 -35 77 -77c0 -54 -44 -76 -79 -76z" />
    <glyph glyph-name="uni1E6C" unicode="&#x1e6c;" horiz-adv-x="643" 
d="M23 498v150h596v-150h-64c-6 8 -29 54 -48 92h-113v-528c28 -1 68 -7 92 -10v-52h-336v53c34 3 60 7 88 9v528h-104c-20 -43 -41 -89 -46 -92h-65zM319 -217c-34 0 -77 24 -77 75c0 44 31 78 79 78c46 0 77 -35 77 -77c0 -54 -44 -76 -79 -76z" />
    <glyph glyph-name="uni1E6E" unicode="&#x1e6e;" horiz-adv-x="643" 
d="M23 498v150h596v-150h-64c-6 8 -29 54 -48 92h-113v-528c28 -1 68 -7 92 -10v-52h-336v53c34 3 60 7 88 9v528h-104c-20 -43 -41 -89 -46 -92h-65zM181 -91h275v-73h-275v73z" />
    <glyph glyph-name="uni01D3" unicode="&#x1d3;" horiz-adv-x="717" 
d="M625 586v-366c0 -56 -12 -99 -35 -135c-38 -57 -115 -97 -224 -97c-135 0 -211 50 -246 109c-20 35 -26 76 -27 121v368c-25 2 -49 6 -68 9v53h308v-52c-26 -6 -64 -9 -84 -11v-392c1 -65 36 -134 148 -134c102 0 150 73 150 135v392c-23 2 -69 7 -89 10v52h235v-53
c-32 -5 -54 -8 -68 -9zM217 798v50l167 -63l166 63v-50l-150 -100h-37z" />
    <glyph glyph-name="uni01D5" unicode="&#x1d5;" horiz-adv-x="717" 
d="M625 586v-366c0 -56 -12 -99 -35 -135c-38 -57 -115 -97 -224 -97c-135 0 -211 50 -246 109c-20 35 -26 76 -27 121v368c-25 2 -49 6 -68 9v53h308v-52c-26 -6 -64 -9 -84 -11v-392c1 -65 36 -134 148 -134c102 0 150 73 150 135v392c-23 2 -69 7 -89 10v52h235v-53
c-32 -5 -54 -8 -68 -9zM236 890h284v-61h-284v61zM275 800c34 0 56 -23 56 -50c0 -36 -27 -49 -59 -49c-28 0 -55 15 -55 48c0 27 19 51 58 51zM480 799c37 0 57 -22 57 -49c0 -29 -23 -49 -58 -49c-36 0 -59 19 -59 48c0 36 27 50 60 50z" />
    <glyph glyph-name="uni01D7" unicode="&#x1d7;" horiz-adv-x="717" 
d="M625 586v-366c0 -56 -12 -99 -35 -135c-38 -57 -115 -97 -224 -97c-135 0 -211 50 -246 109c-20 35 -26 76 -27 121v368c-25 2 -49 6 -68 9v53h308v-52c-26 -6 -64 -9 -84 -11v-392c1 -65 36 -134 148 -134c102 0 150 73 150 135v392c-23 2 -69 7 -89 10v52h235v-53
c-32 -5 -54 -8 -68 -9zM259 802c35 0 55 -25 55 -54c0 -36 -25 -53 -58 -53c-28 0 -54 19 -54 52c0 29 17 55 57 55zM491 802c37 0 57 -26 57 -54c0 -27 -21 -53 -58 -53c-36 0 -58 23 -58 52c0 38 26 55 59 55zM332 794l59 124h116v-25l-109 -99h-66z" />
    <glyph glyph-name="uni01D9" unicode="&#x1d9;" horiz-adv-x="717" 
d="M625 586v-366c0 -56 -12 -99 -35 -135c-38 -57 -115 -97 -224 -97c-135 0 -211 50 -246 109c-20 35 -26 76 -27 121v368c-25 2 -49 6 -68 9v53h308v-52c-26 -6 -64 -9 -84 -11v-392c1 -65 36 -134 148 -134c102 0 150 73 150 135v392c-23 2 -69 7 -89 10v52h235v-53
c-32 -5 -54 -8 -68 -9zM268 794c34 0 56 -23 56 -50c0 -37 -27 -49 -59 -49c-28 0 -55 15 -55 47c0 28 19 52 58 52zM475 793c36 0 56 -23 56 -49c0 -29 -22 -49 -57 -49c-36 0 -59 19 -59 48c0 36 27 50 60 50zM218 867v43l152 -45l151 45v-42c-48 -25 -95 -49 -130 -72
h-42c-36 21 -88 48 -131 71z" />
    <glyph glyph-name="uni01DB" unicode="&#x1db;" horiz-adv-x="717" 
d="M625 586v-366c0 -56 -12 -99 -35 -135c-38 -57 -115 -97 -224 -97c-135 0 -211 50 -246 109c-20 35 -26 76 -27 121v368c-25 2 -49 6 -68 9v53h308v-52c-26 -6 -64 -9 -84 -11v-392c1 -65 36 -134 148 -134c102 0 150 73 150 135v392c-23 2 -69 7 -89 10v52h235v-53
c-32 -5 -54 -8 -68 -9zM262 802c35 0 55 -26 55 -54c0 -37 -24 -53 -58 -53c-28 0 -54 18 -54 51c0 29 18 56 57 56zM495 801c37 0 56 -25 56 -53s-20 -53 -57 -53c-36 0 -58 22 -58 52c0 37 26 54 59 54zM365 917l60 -124h-67l-108 99v25h115z" />
    <glyph glyph-name="uni1E8E" unicode="&#x1e8e;" horiz-adv-x="579" 
d="M462 0h-341v53c32 4 70 7 92 10v183c0 17 -2 26 -10 43c-44 89 -143 263 -164 297c-15 2 -34 4 -68 9v53h307v-53c-21 -2 -52 -8 -65 -9c20 -45 108 -208 129 -245c26 49 103 194 124 245c-24 3 -65 5 -88 9v53h233v-53c-25 -4 -53 -7 -71 -9
c-31 -57 -133 -240 -163 -302c-7 -14 -9 -20 -9 -39v-182c21 -2 67 -6 94 -11v-52zM245 779c0 33 24 69 71 69c40 0 69 -31 69 -69c0 -40 -30 -68 -70 -68c-46 0 -70 33 -70 68z" />
    <glyph glyph-name="uni1E92" unicode="&#x1e92;" horiz-adv-x="596" 
d="M547 0h-528v50l366 541h-230c-20 -43 -42 -85 -47 -92h-66v149h517v-53l-360 -538h250c17 28 60 93 67 99h69zM295 -218c-33 0 -77 24 -77 75c0 44 31 78 79 78c46 0 77 -35 77 -77c0 -54 -44 -76 -79 -76z" />
    <glyph glyph-name="uni01CE" unicode="&#x1ce;" horiz-adv-x="509" 
d="M286 536h-79l-105 157h64l81 -74l80 74h63zM292 230h-11c-71 0 -109 -29 -109 -82c0 -54 32 -80 79 -80c15 0 27 2 43 9c-1 6 -2 12 -2 19v134zM431 334v-259c0 -5 12 -17 34 -17c8 0 11 0 19 1v-48c-21 -12 -53 -19 -88 -19c-27 0 -68 10 -89 47
c-66 -41 -114 -51 -140 -51c-61 0 -135 54 -135 138c0 124 141 149 255 149h6v67c0 40 -16 80 -80 80c-10 0 -18 -1 -25 -3c-8 -27 -24 -73 -29 -83h-90v101c63 18 135 36 191 36c127 0 171 -67 171 -139z" />
    <glyph glyph-name="uni1E0D" unicode="&#x1e0d;" horiz-adv-x="575" 
d="M354 75v330c-16 12 -31 16 -62 16c-54 0 -113 -54 -113 -170c0 -126 57 -186 127 -186c15 0 31 1 48 10zM497 647v-568c8 -3 32 -6 54 -8v-52c-28 -3 -143 -21 -187 -31c-4 17 -7 36 -7 48c-62 -36 -107 -47 -131 -47c-88 0 -196 83 -196 234c0 142 122 251 280 251
c24 0 31 -2 44 -3v168c-12 6 -47 19 -67 24v46h62c95 0 131 1 154 4c-2 -20 -6 -49 -6 -66zM309 -218c-34 0 -77 24 -77 75c0 44 31 78 79 78c46 0 77 -35 77 -77c0 -54 -44 -76 -79 -76z" />
    <glyph glyph-name="uni1E0F" unicode="&#x1e0f;" horiz-adv-x="575" 
d="M354 75v330c-16 12 -31 16 -62 16c-54 0 -113 -54 -113 -170c0 -126 57 -186 127 -186c15 0 31 1 48 10zM497 647v-568c8 -3 32 -6 54 -8v-52c-28 -3 -143 -21 -187 -31c-4 17 -7 36 -7 48c-62 -36 -107 -47 -131 -47c-88 0 -196 83 -196 234c0 142 122 251 280 251
c24 0 31 -2 44 -3v168c-12 6 -47 19 -67 24v46h62c95 0 131 1 154 4c-2 -20 -6 -49 -6 -66zM174 -85h275v-74h-275v74z" />
    <glyph glyph-name="gcaron" unicode="&#x1e7;" horiz-adv-x="507" 
d="M277 536h-79l-105 157h64l81 -74l80 74h63zM237 203c42 0 57 48 57 112c0 63 -16 115 -64 115c-43 0 -60 -47 -60 -109c0 -64 19 -118 67 -118zM172 -22c-10 1 -20 3 -29 6c-17 -28 -22 -50 -22 -66c0 -57 52 -110 146 -110c91 0 123 46 123 92c0 40 -32 61 -81 66
c-38 4 -93 6 -137 12zM509 461l-7 -74c-22 2 -67 4 -89 4c8 -12 19 -40 19 -73c0 -102 -86 -157 -197 -157c-26 0 -51 3 -75 9c-7 -15 -11 -27 -11 -33c0 -28 34 -37 48 -37c71 -7 126 -7 176 -13c43 -5 127 -37 127 -129c0 -117 -121 -201 -264 -201
c-160 0 -226 82 -226 137c0 21 37 61 95 107c-33 21 -49 53 -49 85c0 14 30 55 64 97c-50 23 -86 66 -86 133c0 69 54 157 200 157c61 0 102 -15 127 -24c6 -3 12 -4 16 -4c32 5 100 14 132 16z" />
    <glyph glyph-name="uni1E21" unicode="&#x1e21;" horiz-adv-x="507" 
d="M381 632v-74h-276v74h276zM237 203c42 0 57 48 57 112c0 63 -16 115 -64 115c-43 0 -60 -47 -60 -109c0 -64 19 -118 67 -118zM172 -22c-10 1 -20 3 -29 6c-17 -28 -22 -50 -22 -66c0 -57 52 -110 146 -110c91 0 123 46 123 92c0 40 -32 61 -81 66c-38 4 -93 6 -137 12z
M509 461l-7 -74c-22 2 -67 4 -89 4c8 -12 19 -40 19 -73c0 -102 -86 -157 -197 -157c-26 0 -51 3 -75 9c-7 -15 -11 -27 -11 -33c0 -28 34 -37 48 -37c71 -7 126 -7 176 -13c43 -5 127 -37 127 -129c0 -117 -121 -201 -264 -201c-160 0 -226 82 -226 137c0 21 37 61 95 107
c-33 21 -49 53 -49 85c0 14 30 55 64 97c-50 23 -86 66 -86 133c0 69 54 157 200 157c61 0 102 -15 127 -24c6 -3 12 -4 16 -4c32 5 100 14 132 16z" />
    <glyph glyph-name="uni1E2B" unicode="&#x1e2b;" horiz-adv-x="585" 
d="M390 -80h49c-15 -80 -67 -142 -155 -142c-84 0 -138 52 -150 142h51c20 -44 49 -61 99 -61c56 0 85 14 106 61zM268 0h-241v53c17 3 33 6 49 9v577c-12 8 -44 20 -57 24v46h46c76 0 129 2 160 4c-3 -17 -6 -51 -6 -65v-223c58 38 104 48 141 48c106 0 148 -83 148 -168
v-244c16 -2 35 -5 50 -8v-53h-243v53c17 3 35 7 50 9v248c0 46 -22 86 -82 86c-23 0 -45 -5 -64 -13v-323c12 -1 31 -4 49 -7v-53z" />
    <glyph glyph-name="uni1E25" unicode="&#x1e25;" horiz-adv-x="585" 
d="M268 0h-241v53c17 3 33 6 49 9v577c-12 8 -44 20 -57 24v46h46c76 0 129 2 160 4c-3 -17 -6 -51 -6 -65v-223c58 38 104 48 141 48c106 0 148 -83 148 -168v-244c16 -2 35 -5 50 -8v-53h-243v53c17 3 35 7 50 9v248c0 46 -22 86 -82 86c-23 0 -45 -5 -64 -13v-323
c12 -1 31 -4 49 -7v-53zM292 -218c-34 0 -77 24 -77 75c0 44 31 78 79 78c46 0 77 -35 77 -77c0 -54 -44 -76 -79 -76z" />
    <glyph glyph-name="uni01D0" unicode="&#x1d0;" horiz-adv-x="301" 
d="M-1 693h64l81 -74l80 74h63l-104 -157h-79zM270 0h-243v53c18 3 45 6 55 8v325c-10 8 -35 23 -51 28v47h70c58 1 113 2 124 3v-404c13 -1 29 -5 45 -8v-52z" />
    <glyph glyph-name="uni1E37" unicode="&#x1e37;" horiz-adv-x="296" 
d="M269 0h-242v53c14 2 33 6 50 8v578c-15 8 -46 20 -58 24v46h47c109 0 146 3 161 4c-3 -22 -7 -52 -7 -61v-592c19 -2 35 -5 49 -8v-52zM148 -217c-34 0 -78 24 -78 75c0 44 32 78 80 78c46 0 77 -35 77 -77c0 -54 -45 -76 -79 -76z" />
    <glyph glyph-name="uni1E39" unicode="&#x1e39;" horiz-adv-x="296" 
d="M269 0h-242v53c14 2 33 6 50 8v578c-15 8 -46 20 -58 24v46h47c109 0 146 3 161 4c-3 -22 -7 -52 -7 -61v-592c19 -2 35 -5 49 -8v-52zM148 -217c-34 0 -78 24 -78 75c0 44 32 78 80 78c46 0 77 -35 77 -77c0 -54 -45 -76 -79 -76zM-5 855h275v-73h-275v73z" />
    <glyph glyph-name="uni1E3B" unicode="&#x1e3b;" horiz-adv-x="296" 
d="M269 0h-242v53c14 2 33 6 50 8v578c-15 8 -46 20 -58 24v46h47c109 0 146 3 161 4c-3 -22 -7 -52 -7 -61v-592c19 -2 35 -5 49 -8v-52zM12 -77h275v-74h-275v74z" />
    <glyph glyph-name="uni1E43" unicode="&#x1e43;" horiz-adv-x="874" 
d="M274 0h-247v53c18 3 39 6 55 8v325c-12 10 -38 24 -51 28v47h65c42 0 99 1 120 3c2 -9 4 -33 5 -48c68 47 107 57 150 57c57 0 97 -32 117 -64c83 57 123 64 162 64c105 0 148 -81 148 -165v-247c18 -3 31 -6 49 -9v-52h-242v53c21 4 36 6 50 8v245c0 63 -32 90 -79 90
c-25 0 -49 -6 -74 -21c6 -16 9 -44 9 -80v-234c17 -3 34 -6 47 -9v-52h-240v53c17 4 36 6 50 9v249c0 51 -22 85 -71 85c-28 0 -48 -6 -72 -19v-316c11 -2 31 -5 49 -8v-53zM437 -219c-33 0 -77 24 -77 75c0 44 31 78 79 78c47 0 77 -35 77 -77c0 -54 -44 -76 -79 -76z" />
    <glyph glyph-name="uni1E45" unicode="&#x1e45;" horiz-adv-x="591" 
d="M214 612c0 33 24 75 80 75c51 0 79 -35 79 -75c0 -43 -30 -75 -80 -75c-55 0 -79 39 -79 75zM274 0h-247v53c18 3 39 6 55 8v325c-10 8 -38 23 -51 28v47h65c42 0 99 1 120 3c2 -6 4 -37 5 -51c57 41 102 60 147 60c101 0 145 -81 145 -162v-250c16 -2 35 -6 50 -8v-53
h-243v53c21 4 36 6 50 8v251c0 46 -19 82 -73 82c-24 0 -50 -8 -72 -21v-312c14 -2 37 -5 49 -8v-53z" />
    <glyph glyph-name="uni1E47" unicode="&#x1e47;" horiz-adv-x="591" 
d="M274 0h-247v53c18 3 39 6 55 8v325c-10 8 -38 23 -51 28v47h65c42 0 99 1 120 3c2 -6 4 -37 5 -51c57 41 102 60 147 60c101 0 145 -81 145 -162v-250c16 -2 35 -6 50 -8v-53h-243v53c21 4 36 6 50 8v251c0 46 -19 82 -73 82c-24 0 -50 -8 -72 -21v-312
c14 -2 37 -5 49 -8v-53zM295 -216c-34 0 -77 24 -77 75c0 44 31 78 79 78c46 0 77 -35 77 -77c0 -54 -44 -76 -79 -76z" />
    <glyph glyph-name="uni1E49" unicode="&#x1e49;" horiz-adv-x="591" 
d="M157 -92h275v-73h-275v73zM274 0h-247v53c18 3 39 6 55 8v325c-10 8 -38 23 -51 28v47h65c42 0 99 1 120 3c2 -6 4 -37 5 -51c57 41 102 60 147 60c101 0 145 -81 145 -162v-250c16 -2 35 -6 50 -8v-53h-243v53c21 4 36 6 50 8v251c0 46 -19 82 -73 82
c-24 0 -50 -8 -72 -21v-312c14 -2 37 -5 49 -8v-53z" />
    <glyph glyph-name="uni01D2" unicode="&#x1d2;" horiz-adv-x="560" 
d="M135 693h64l81 -74l80 74h63l-104 -157h-79zM285 473c140 0 245 -96 245 -235c0 -158 -113 -250 -253 -250c-152 0 -247 107 -247 243c0 138 102 242 255 242zM287 34c69 0 86 93 86 190c0 115 -26 202 -97 202c-69 0 -89 -87 -89 -184c0 -98 25 -208 100 -208z" />
    <glyph glyph-name="uni1E5B" unicode="&#x1e5b;" horiz-adv-x="433" 
d="M312 0h-285v53c16 3 42 6 55 8v325c-12 10 -38 24 -51 28v47h51c41 0 113 1 134 4c2 -20 3 -47 4 -67c47 46 97 75 149 75c22 0 38 -2 49 -7l-15 -142h-54c-12 18 -21 33 -34 39c-9 5 -20 8 -35 8c-19 0 -37 -4 -55 -16v-295c16 -1 62 -3 87 -7v-53zM155 -206
c-34 0 -78 23 -78 74c0 44 32 78 79 78s77 -35 77 -77c0 -53 -44 -75 -78 -75z" />
    <glyph glyph-name="uni1E5D" unicode="&#x1e5d;" horiz-adv-x="433" 
d="M312 0h-285v53c16 3 42 6 55 8v325c-12 10 -38 24 -51 28v47h51c41 0 113 1 134 4c2 -20 3 -47 4 -67c47 46 97 75 149 75c22 0 38 -2 49 -7l-15 -142h-54c-12 18 -21 33 -34 39c-9 5 -20 8 -35 8c-19 0 -37 -4 -55 -16v-295c16 -1 62 -3 87 -7v-53zM155 -208
c-34 0 -77 24 -77 75c0 44 31 78 79 78c46 0 77 -35 77 -77c0 -54 -44 -76 -79 -76zM78 632h276v-74h-276v74z" />
    <glyph glyph-name="uni1E5F" unicode="&#x1e5f;" horiz-adv-x="433" 
d="M312 0h-285v53c16 3 42 6 55 8v325c-12 10 -38 24 -51 28v47h51c41 0 113 1 134 4c2 -20 3 -47 4 -67c47 46 97 75 149 75c22 0 38 -2 49 -7l-15 -142h-54c-12 18 -21 33 -34 39c-9 5 -20 8 -35 8c-19 0 -37 -4 -55 -16v-295c16 -1 62 -3 87 -7v-53zM22 -83h275v-73h-275
v73z" />
    <glyph glyph-name="uni1E61" unicode="&#x1e61;" horiz-adv-x="428" 
d="M141 606c0 32 24 74 80 74c51 0 79 -34 79 -74c0 -43 -30 -75 -80 -75c-55 0 -79 39 -79 75zM369 460v-108h-69c-3 4 -24 39 -38 70c-7 3 -19 5 -30 5c-51 0 -71 -27 -71 -55c0 -27 11 -48 91 -78c119 -46 145 -93 145 -150c0 -105 -101 -156 -209 -156
c-54 0 -98 10 -142 20c-2 25 -8 94 -10 117h73c5 -7 28 -57 40 -83c11 -6 28 -8 41 -8c53 0 80 26 80 59c0 29 -9 49 -85 80c-95 40 -142 80 -142 156c0 54 28 144 194 144c57 0 113 -10 132 -13z" />
    <glyph glyph-name="uni1E63" unicode="&#x1e63;" horiz-adv-x="428" 
d="M369 460v-108h-69c-3 4 -24 39 -38 70c-7 3 -19 5 -30 5c-51 0 -71 -27 -71 -55c0 -27 11 -48 91 -78c119 -46 145 -93 145 -150c0 -105 -101 -156 -209 -156c-54 0 -98 10 -142 20c-2 25 -8 94 -10 117h73c5 -7 28 -57 40 -83c11 -6 28 -8 41 -8c53 0 80 26 80 59
c0 29 -9 49 -85 80c-95 40 -142 80 -142 156c0 54 28 144 194 144c57 0 113 -10 132 -13zM205 -218c-34 0 -77 24 -77 75c0 44 31 78 79 78c46 0 77 -35 77 -77c0 -54 -44 -76 -79 -76z" />
    <glyph glyph-name="uni1E97" unicode="&#x1e97;" horiz-adv-x="335" 
d="M-7 705c0 30 22 69 70 69c43 0 67 -32 67 -69c0 -40 -26 -69 -68 -69c-47 0 -69 36 -69 69zM205 705c0 30 21 69 70 69c43 0 66 -32 66 -69c0 -40 -25 -69 -67 -69c-48 0 -69 36 -69 69zM323 68v-48c-45 -25 -81 -32 -116 -32c-82 0 -133 36 -133 141v271
c-16 1 -52 6 -65 8v53h69c11 31 41 92 64 129h93c-7 -35 -15 -114 -15 -129h108v-53c-21 -3 -80 -8 -111 -8v-300c0 -24 10 -44 53 -44c16 0 32 4 53 12z" />
    <glyph glyph-name="uni1E6D" unicode="&#x1e6d;" horiz-adv-x="335" 
d="M323 68v-48c-45 -25 -81 -32 -116 -32c-82 0 -133 36 -133 141v271c-16 1 -52 6 -65 8v53h69c11 31 41 92 64 129h93c-7 -35 -15 -114 -15 -129h108v-53c-21 -3 -80 -8 -111 -8v-300c0 -24 10 -44 53 -44c16 0 32 4 53 12zM180 -221c-34 0 -78 24 -78 75
c0 44 32 78 80 78c46 0 77 -35 77 -77c0 -54 -45 -76 -79 -76z" />
    <glyph glyph-name="uni1E6F" unicode="&#x1e6f;" horiz-adv-x="335" 
d="M51 -92h275v-74h-275v74zM323 68v-48c-45 -25 -81 -32 -116 -32c-82 0 -133 36 -133 141v271c-16 1 -52 6 -65 8v53h69c11 31 41 92 64 129h93c-7 -35 -15 -114 -15 -129h108v-53c-21 -3 -80 -8 -111 -8v-300c0 -24 10 -44 53 -44c16 0 32 4 53 12z" />
    <glyph glyph-name="uni01D4" unicode="&#x1d4;" horiz-adv-x="577" 
d="M133 693h64l81 -74l80 74h63l-104 -157h-79zM554 70v-52c-41 -3 -154 -25 -180 -30c-5 19 -8 41 -11 63c-57 -51 -102 -63 -150 -63c-67 0 -140 39 -140 157v244c-14 11 -35 21 -48 25v47h63c53 0 118 2 131 3c-2 -25 -3 -49 -3 -61v-268c0 -29 22 -65 69 -65
c21 0 48 6 72 23v294c-14 9 -46 22 -63 26v48h73c63 0 121 2 133 3v-386c9 -3 33 -5 54 -8z" />
    <glyph glyph-name="uni01D6" unicode="&#x1d6;" horiz-adv-x="577" 
d="M554 70v-52c-41 -3 -154 -25 -180 -30c-5 19 -8 41 -11 63c-57 -51 -102 -63 -150 -63c-67 0 -140 39 -140 157v244c-14 11 -35 21 -48 25v47h63c53 0 118 2 131 3c-2 -25 -3 -49 -3 -61v-268c0 -29 22 -65 69 -65c21 0 48 6 72 23v294c-14 9 -46 22 -63 26v48h73
c63 0 121 2 133 3v-386c9 -3 33 -5 54 -8zM141 731h273v-66h-273v66zM180 621c34 0 56 -26 56 -53c0 -36 -27 -52 -59 -52c-28 0 -55 18 -55 51c0 27 19 54 58 54zM375 620c37 0 56 -26 56 -52c0 -29 -22 -52 -57 -52c-36 0 -59 22 -59 51c0 36 27 53 60 53z" />
    <glyph glyph-name="uni01D8" unicode="&#x1d8;" horiz-adv-x="577" 
d="M554 70v-52c-41 -3 -154 -25 -180 -30c-5 19 -8 41 -11 63c-57 -51 -102 -63 -150 -63c-67 0 -140 39 -140 157v244c-14 11 -35 21 -48 25v47h63c53 0 118 2 131 3c-2 -25 -3 -49 -3 -61v-268c0 -29 22 -65 69 -65c21 0 48 6 72 23v294c-14 9 -46 22 -63 26v48h73
c63 0 121 2 133 3v-386c9 -3 33 -5 54 -8zM294 634h-58l57 135h112v-20zM176 627c35 0 56 -29 56 -58c0 -40 -26 -57 -58 -57c-29 0 -56 20 -56 55c0 30 19 60 58 60zM380 626c36 0 56 -28 56 -57c0 -31 -23 -57 -57 -57c-36 0 -59 23 -59 56c0 39 27 58 60 58z" />
    <glyph glyph-name="uni01DA" unicode="&#x1da;" horiz-adv-x="577" 
d="M554 70v-52c-41 -3 -154 -25 -180 -30c-5 19 -8 41 -11 63c-57 -51 -102 -63 -150 -63c-67 0 -140 39 -140 157v244c-14 11 -35 21 -48 25v47h63c53 0 118 2 131 3c-2 -25 -3 -49 -3 -61v-268c0 -29 22 -65 69 -65c21 0 48 6 72 23v294c-14 9 -46 22 -63 26v48h73
c63 0 121 2 133 3v-386c9 -3 33 -5 54 -8zM130 723v42l146 -50l143 50v-40l-123 -84h-40zM176 625c35 0 56 -28 56 -57c0 -40 -26 -57 -58 -57c-29 0 -56 19 -56 55c0 30 19 59 58 59zM380 624c36 0 56 -28 56 -56c0 -32 -23 -57 -57 -57c-36 0 -59 23 -59 56
c0 39 27 57 60 57z" />
    <glyph glyph-name="uni01DC" unicode="&#x1dc;" horiz-adv-x="577" 
d="M554 70v-52c-41 -3 -154 -25 -180 -30c-5 19 -8 41 -11 63c-57 -51 -102 -63 -150 -63c-67 0 -140 39 -140 157v244c-14 11 -35 21 -48 25v47h63c53 0 118 2 131 3c-2 -25 -3 -49 -3 -61v-268c0 -29 22 -65 69 -65c21 0 48 6 72 23v294c-14 9 -46 22 -63 26v48h73
c63 0 121 2 133 3v-386c9 -3 33 -5 54 -8zM173 638c34 0 55 -28 55 -58c0 -39 -26 -56 -58 -56c-28 0 -56 19 -56 55c0 30 19 59 59 59zM376 637c37 0 56 -28 56 -57c0 -31 -22 -56 -57 -56c-36 0 -59 23 -59 55c0 40 27 58 60 58zM307 645h-58l-112 115v21h117z" />
    <glyph glyph-name="uni1E8F" unicode="&#x1e8f;" horiz-adv-x="502" 
d="M188 606c0 32 24 74 80 74c51 0 79 -34 79 -74c0 -43 -30 -75 -80 -75c-55 0 -79 39 -79 75zM45 397c-8 1 -30 6 -51 11v53h262v-53c-13 -3 -44 -7 -54 -7c18 -49 88 -217 98 -244c28 64 87 213 95 241c-15 1 -57 6 -84 10v53h208v-53c-19 -5 -43 -8 -56 -9
c-33 -81 -94 -217 -169 -390c-23 -52 -69 -172 -99 -253c-27 -2 -102 12 -118 26v11c46 57 107 140 144 202c2 3 3 7 1 12c-24 55 -145 324 -177 390z" />
    <glyph glyph-name="uni1E93" unicode="&#x1e93;" horiz-adv-x="451" 
d="M105 328h-72v133h389v-44c-58 -87 -203 -312 -239 -366l139 1c10 20 37 72 44 84h72c-7 -39 -23 -114 -27 -136h-387v47c70 101 187 279 242 363h-130c-9 -31 -26 -73 -31 -82zM225 -217c-34 0 -77 24 -77 74c0 44 31 79 79 79c46 0 77 -35 77 -78c0 -53 -44 -75 -79 -75
z" />
    <glyph glyph-name="uni00A80300" 
d="M99 627c34 0 56 -29 56 -58c0 -40 -27 -57 -59 -57c-28 0 -55 20 -55 55c0 30 19 60 58 60zM302 626c37 0 57 -28 57 -57c0 -31 -23 -57 -58 -57c-36 0 -59 23 -59 56c0 39 27 58 60 58zM234 634h-59l-112 115v20h117z" />
    <glyph glyph-name="uni00A80301" 
d="M217 634h-59l58 135h112v-20zM99 627c34 0 56 -29 56 -58c0 -40 -27 -57 -59 -57c-28 0 -55 20 -55 55c0 30 19 60 58 60zM302 626c37 0 57 -28 57 -57c0 -31 -23 -57 -58 -57c-36 0 -59 23 -59 56c0 39 27 58 60 58z" />
    <glyph glyph-name="uni00A8030C" 
d="M52 723v42l146 -50l144 50v-40l-124 -84h-40zM99 625c34 0 56 -28 56 -57c0 -40 -27 -57 -59 -57c-28 0 -55 19 -55 55c0 30 19 59 58 59zM302 624c37 0 57 -28 57 -56c0 -32 -23 -57 -58 -57c-36 0 -59 23 -59 56c0 39 27 57 60 57z" />
    <glyph glyph-name="uni00A80304" 
d="M63 727h273v-66h-273v66zM102 617c34 0 56 -26 56 -53c0 -36 -27 -52 -59 -52c-28 0 -55 18 -55 50c0 28 19 55 58 55zM297 616c36 0 56 -26 56 -52c0 -29 -22 -52 -57 -52c-36 0 -59 22 -59 51c0 36 27 53 60 53z" />
    <glyph glyph-name="uni00A80300.cap" 
d="M83 792c36 0 56 -26 56 -54c0 -37 -25 -53 -58 -53c-29 0 -55 18 -55 51c0 29 18 56 57 56zM316 792c37 0 56 -26 56 -54s-20 -53 -57 -53c-36 0 -58 22 -58 52c0 37 26 55 59 55zM187 908l59 -125h-67l-108 99v26h116z" />
    <glyph glyph-name="uni00A80301.cap" 
d="M83 792c36 0 56 -26 56 -54c0 -37 -25 -53 -58 -53c-29 0 -55 18 -55 51c0 29 18 56 57 56zM316 792c37 0 56 -26 56 -54s-20 -53 -57 -53c-36 0 -58 22 -58 52c0 37 26 55 59 55zM156 783l60 125h116v-26l-109 -99h-67z" />
    <glyph glyph-name="uni00A8030C.cap" 
d="M96 779c34 0 56 -23 56 -50c0 -37 -27 -49 -59 -49c-28 0 -55 15 -55 47c0 28 19 52 58 52zM303 778c36 0 56 -23 56 -49c0 -29 -23 -49 -57 -49c-36 0 -59 19 -59 48c0 36 27 50 60 50zM45 852v43l153 -45l151 45v-42c-48 -25 -95 -49 -130 -72h-42
c-36 21 -88 48 -132 71z" />
    <glyph glyph-name="uni00A80304.cap" 
d="M58 869h284v-62h-284v62zM97 778c34 0 56 -22 56 -49c0 -37 -27 -49 -59 -49c-28 0 -55 14 -55 47c0 28 19 51 58 51zM302 777c36 0 56 -22 56 -48c0 -29 -22 -49 -57 -49c-36 0 -59 18 -59 48c0 36 27 49 60 49z" />
    <glyph glyph-name="uni1E9E" unicode="&#x1e9e;" horiz-adv-x="738" 
d="M435 40c9 -4 21 -5 26 -5c55 0 84 35 84 73c0 31 -20 56 -73 96c-58 42 -111 77 -113 139c-1 41 24 90 135 145c1 3 2 12 2 17c0 47 -33 98 -121 98c-56 0 -112 -27 -112 -101v-409c0 -31 3 -72 7 -93h-240v53c26 4 54 8 78 9v425c0 26 2 61 26 91c33 39 101 79 244 79
c202 0 255 -85 255 -146c0 -4 0 -15 -3 -23c-72 -20 -129 -52 -129 -88c0 -17 12 -31 62 -66c92 -64 120 -108 120 -166c0 -119 -112 -180 -223 -180c-48 0 -105 9 -134 19l-10 111h75c7 -8 27 -44 44 -78z" />
    <glyph glyph-name="uni1EA0" unicode="&#x1ea0;" horiz-adv-x="647" 
d="M191 282h170l-85 244zM215 0h-234v53c28 4 57 8 68 10c27 64 143 382 188 509c7 17 13 36 8 76h140c14 -45 163 -451 217 -587c18 -1 38 -5 64 -8v-53h-306v52c16 3 51 8 77 9l-59 164h-204l-54 -163c31 -2 68 -6 95 -10v-52zM297 -214c-34 0 -78 23 -78 74
c0 44 32 78 79 78s77 -35 77 -77c0 -53 -44 -75 -78 -75z" />
    <glyph glyph-name="uni1EA2" unicode="&#x1ea2;" horiz-adv-x="647" 
d="M191 282h170l-85 244zM215 0h-234v53c28 4 57 8 68 10c27 64 143 382 188 509c7 17 13 36 8 76h140c14 -45 163 -451 217 -587c18 -1 38 -5 64 -8v-53h-306v52c16 3 51 8 77 9l-59 164h-204l-54 -163c31 -2 68 -6 95 -10v-52zM327 879c63 0 96 -35 96 -81
c0 -36 -27 -83 -127 -115l-20 35c38 24 58 40 58 63c0 15 -8 32 -43 32c-23 0 -54 -10 -70 -23l-16 33c30 32 73 56 122 56z" />
    <glyph glyph-name="uni1EA4" unicode="&#x1ea4;" horiz-adv-x="647" 
d="M191 282h170l-85 244zM215 0h-234v53c28 4 57 8 68 10c27 64 143 382 188 509c7 17 13 36 8 76h140c14 -45 163 -451 217 -587c18 -1 38 -5 64 -8v-53h-306v52c16 3 51 8 77 9l-59 164h-204l-54 -163c31 -2 68 -6 95 -10v-52zM464 812l-39 26l73 96h123v-34zM485 732v-45
l-167 62l-166 -62v45l150 103h37z" />
    <glyph glyph-name="uni1EA6" unicode="&#x1ea6;" horiz-adv-x="647" 
d="M191 282h170l-85 244zM215 0h-234v53c28 4 57 8 68 10c27 64 143 382 188 509c7 17 13 36 8 76h140c14 -45 163 -451 217 -587c18 -1 38 -5 64 -8v-53h-306v52c16 3 51 8 77 9l-59 164h-204l-54 -163c31 -2 68 -6 95 -10v-52zM483 723v-45l-168 62l-166 -62v45l150 103
h38zM610 792l-27 -28l-166 107v30h123z" />
    <glyph glyph-name="uni1EA8" unicode="&#x1ea8;" horiz-adv-x="647" 
d="M191 282h170l-85 244zM215 0h-234v53c28 4 57 8 68 10c27 64 143 382 188 509c7 17 13 36 8 76h140c14 -45 163 -451 217 -587c18 -1 38 -5 64 -8v-53h-306v52c16 3 51 8 77 9l-59 164h-204l-54 -163c31 -2 68 -6 95 -10v-52zM482 723v-46l-167 63l-166 -63v46l150 102
h37zM494 957c51 0 83 -28 83 -68c0 -30 -23 -68 -107 -96l-18 30c27 18 52 36 52 55c0 12 -7 26 -37 26c-21 0 -44 -12 -57 -21l-16 28c28 30 63 46 100 46z" />
    <glyph glyph-name="uni1EAA" unicode="&#x1eaa;" horiz-adv-x="647" 
d="M191 282h170l-85 244zM215 0h-234v53c28 4 57 8 68 10c27 64 143 382 188 509c7 17 13 36 8 76h140c14 -45 163 -451 217 -587c18 -1 38 -5 64 -8v-53h-306v52c16 3 51 8 77 9l-59 164h-204l-54 -163c31 -2 68 -6 95 -10v-52zM451 933l31 -19c-10 -26 -36 -81 -98 -81
c-30 0 -54 8 -83 19c-16 6 -38 13 -57 13c-30 0 -38 -15 -54 -38l-33 15c9 28 36 84 101 84c24 0 51 -8 80 -17c15 -5 42 -14 61 -14c21 0 32 8 52 38zM475 727v-45l-161 51l-159 -51v45l143 78h37z" />
    <glyph glyph-name="uni1EAC" unicode="&#x1eac;" horiz-adv-x="647" 
d="M191 282h170l-85 244zM215 0h-234v53c28 4 57 8 68 10c27 64 143 382 188 509c7 17 13 36 8 76h140c14 -45 163 -451 217 -587c18 -1 38 -5 64 -8v-53h-306v52c16 3 51 8 77 9l-59 164h-204l-54 -163c31 -2 68 -6 95 -10v-52zM482 727v-51l-168 64l-165 -64v51l149 99h38
zM323 -216c-34 0 -78 24 -78 75c0 44 32 78 79 78s77 -35 77 -77c0 -54 -44 -76 -78 -76z" />
    <glyph glyph-name="uni1EAE" unicode="&#x1eae;" horiz-adv-x="647" 
d="M191 282h170l-85 244zM215 0h-234v53c28 4 57 8 68 10c27 64 143 382 188 509c7 17 13 36 8 76h140c14 -45 163 -451 217 -587c18 -1 38 -5 64 -8v-53h-306v52c16 3 51 8 77 9l-59 164h-204l-54 -163c31 -2 68 -6 95 -10v-52zM438 811h42c-24 -71 -83 -115 -170 -115
c-102 0 -150 59 -161 115h44c18 -22 52 -44 118 -44c75 0 105 16 127 44zM273 811l57 112h116v-26l-107 -86h-66z" />
    <glyph glyph-name="uni1EB0" unicode="&#x1eb0;" horiz-adv-x="647" 
d="M191 282h170l-85 244zM215 0h-234v53c28 4 57 8 68 10c27 64 143 382 188 509c7 17 13 36 8 76h140c14 -45 163 -451 217 -587c18 -1 38 -5 64 -8v-53h-306v52c16 3 51 8 77 9l-59 164h-204l-54 -163c31 -2 68 -6 95 -10v-52zM438 810h43c-25 -71 -83 -115 -170 -115
c-102 0 -151 59 -162 115h44c18 -22 53 -44 119 -44c74 0 105 16 126 44zM306 922l57 -112h-67l-107 86v26h117z" />
    <glyph glyph-name="uni1EB2" unicode="&#x1eb2;" horiz-adv-x="647" 
d="M191 282h170l-85 244zM215 0h-234v53c28 4 57 8 68 10c27 64 143 382 188 509c7 17 13 36 8 76h140c14 -45 163 -451 217 -587c18 -1 38 -5 64 -8v-53h-306v52c16 3 51 8 77 9l-59 164h-204l-54 -163c31 -2 68 -6 95 -10v-52zM442 808h43c-25 -71 -83 -115 -170 -115
c-102 0 -151 60 -162 115h44c18 -21 53 -44 119 -44c74 0 105 16 126 44zM327 963c51 0 84 -27 84 -67c0 -31 -21 -69 -104 -97l-18 30c27 18 49 37 49 55c0 12 -8 26 -37 26c-21 0 -44 -12 -57 -21l-17 30c29 30 64 44 100 44z" />
    <glyph glyph-name="uni1EB4" unicode="&#x1eb4;" horiz-adv-x="647" 
d="M191 282h170l-85 244zM215 0h-234v53c28 4 57 8 68 10c27 64 143 382 188 509c7 17 13 36 8 76h140c14 -45 163 -451 217 -587c18 -1 38 -5 64 -8v-53h-306v52c16 3 51 8 77 9l-59 164h-204l-54 -163c31 -2 68 -6 95 -10v-52zM310 696c-81 0 -132 43 -151 83l28 27
c30 -29 74 -44 127 -44c57 0 99 10 135 43l24 -26c-24 -35 -72 -83 -163 -83zM451 930l31 -19c-10 -25 -37 -76 -103 -76c-25 0 -49 8 -78 19c-16 6 -39 13 -57 13c-30 0 -39 -14 -55 -37l-32 14c9 29 36 79 101 79c24 0 51 -8 79 -17c16 -5 43 -14 62 -14c20 0 33 8 52 38z
" />
    <glyph glyph-name="uni1EB6" unicode="&#x1eb6;" horiz-adv-x="647" 
d="M191 282h170l-85 244zM215 0h-234v53c28 4 57 8 68 10c27 64 143 382 188 509c7 17 13 36 8 76h140c14 -45 163 -451 217 -587c18 -1 38 -5 64 -8v-53h-306v52c16 3 51 8 77 9l-59 164h-204l-54 -163c31 -2 68 -6 95 -10v-52zM449 847h55c-28 -87 -86 -141 -186 -141
c-118 0 -164 77 -177 141h56c22 -33 57 -60 122 -60c77 0 105 26 130 60zM323 -216c-34 0 -78 24 -78 75c0 44 32 78 79 78s77 -35 77 -77c0 -54 -44 -76 -78 -76z" />
    <glyph glyph-name="uni1EB8" unicode="&#x1eb8;" horiz-adv-x="629" 
d="M562 648v-141h-70c-4 3 -27 47 -44 84h-185v-229h140c5 23 17 67 23 85h53v-231h-53c-7 20 -17 58 -23 87h-140v-246h214c17 30 59 91 66 97h70l-38 -154h-546v53c27 3 54 8 78 10v522c-16 2 -51 5 -78 10v53h533zM322 -216c-34 0 -77 24 -77 75c0 44 31 78 79 78
c46 0 77 -35 77 -77c0 -54 -44 -76 -79 -76z" />
    <glyph glyph-name="uni1EBA" unicode="&#x1eba;" horiz-adv-x="629" 
d="M562 648v-141h-70c-4 3 -27 47 -44 84h-185v-229h140c5 23 17 67 23 85h53v-231h-53c-7 20 -17 58 -23 87h-140v-246h214c17 30 59 91 66 97h70l-38 -154h-546v53c27 3 54 8 78 10v522c-16 2 -51 5 -78 10v53h533zM323 889c63 0 96 -36 96 -81c0 -36 -27 -83 -127 -115
l-20 35c38 24 58 40 58 63c0 14 -8 32 -43 32c-23 0 -54 -10 -70 -24l-16 34c30 32 73 56 122 56z" />
    <glyph glyph-name="uni1EBC" unicode="&#x1ebc;" horiz-adv-x="629" 
d="M562 648v-141h-70c-4 3 -27 47 -44 84h-185v-229h140c5 23 17 67 23 85h53v-231h-53c-7 20 -17 58 -23 87h-140v-246h214c17 30 59 91 66 97h70l-38 -154h-546v53c27 3 54 8 78 10v522c-16 2 -51 5 -78 10v53h533zM431 842h57c6 -91 -41 -124 -94 -124
c-29 0 -56 10 -82 20c-33 13 -59 19 -74 19c-20 0 -32 -6 -34 -41h-54c-7 89 40 120 94 120c31 0 57 -7 96 -21c15 -6 44 -17 60 -17s31 6 31 44z" />
    <glyph glyph-name="uni1EBE" unicode="&#x1ebe;" horiz-adv-x="629" 
d="M562 648v-141h-70c-4 3 -27 47 -44 84h-185v-229h140c5 23 17 67 23 85h53v-231h-53c-7 20 -17 58 -23 87h-140v-246h214c17 30 59 91 66 97h70l-38 -154h-546v53c27 3 54 8 78 10v522c-16 2 -51 5 -78 10v53h533zM465 821l-39 26l73 96h123v-34zM486 741v-45l-167 62
l-166 -62v45l150 103h37z" />
    <glyph glyph-name="uni1EC0" unicode="&#x1ec0;" horiz-adv-x="629" 
d="M562 648v-141h-70c-4 3 -27 47 -44 84h-185v-229h140c5 23 17 67 23 85h53v-231h-53c-7 20 -17 58 -23 87h-140v-246h214c17 30 59 91 66 97h70l-38 -154h-546v53c27 3 54 8 78 10v522c-16 2 -51 5 -78 10v53h533zM482 740v-46l-167 63l-166 -63v46l150 102h37zM609 808
l-27 -28l-165 108v29h123z" />
    <glyph glyph-name="uni1EC2" unicode="&#x1ec2;" horiz-adv-x="629" 
d="M562 648v-141h-70c-4 3 -27 47 -44 84h-185v-229h140c5 23 17 67 23 85h53v-231h-53c-7 20 -17 58 -23 87h-140v-246h214c17 30 59 91 66 97h70l-38 -154h-546v53c27 3 54 8 78 10v522c-16 2 -51 5 -78 10v53h533zM479 741v-46l-167 63l-166 -63v46l150 102h37zM491 975
c51 0 83 -28 83 -68c0 -30 -23 -68 -107 -96l-18 30c27 18 52 36 52 55c0 12 -7 26 -37 26c-21 0 -44 -12 -57 -21l-16 28c28 30 63 46 100 46z" />
    <glyph glyph-name="uni1EC4" unicode="&#x1ec4;" horiz-adv-x="629" 
d="M562 648v-141h-70c-4 3 -27 47 -44 84h-185v-229h140c5 23 17 67 23 85h53v-231h-53c-7 20 -17 58 -23 87h-140v-246h214c17 30 59 91 66 97h70l-38 -154h-546v53c27 3 54 8 78 10v522c-16 2 -51 5 -78 10v53h533zM449 949l31 -19c-10 -25 -36 -81 -98 -81
c-30 0 -54 8 -83 19c-16 6 -38 13 -57 13c-30 0 -38 -15 -54 -38l-33 15c9 29 36 84 101 84c24 0 51 -8 80 -17c15 -5 42 -14 61 -14c21 0 32 8 52 38zM473 743v-45l-161 51l-160 -51v45l144 78h37z" />
    <glyph glyph-name="uni1EC6" unicode="&#x1ec6;" horiz-adv-x="629" 
d="M562 648v-141h-70c-4 3 -27 47 -44 84h-185v-229h140c5 23 17 67 23 85h53v-231h-53c-7 20 -17 58 -23 87h-140v-246h214c17 30 59 91 66 97h70l-38 -154h-546v53c27 3 54 8 78 10v522c-16 2 -51 5 -78 10v53h533zM481 753v-51l-168 64l-165 -64v51l149 99h38zM324 -216
c-34 0 -77 24 -77 75c0 44 31 78 79 78c46 0 77 -35 77 -77c0 -54 -44 -76 -79 -76z" />
    <glyph glyph-name="uni1EC8" unicode="&#x1ec8;" horiz-adv-x="365" 
d="M337 0h-312v53c25 4 55 8 78 9v523c-20 2 -50 6 -78 10v53h312v-53c-24 -4 -58 -8 -78 -10v-523c20 -2 53 -5 78 -9v-53zM196 879c63 0 96 -36 96 -82c0 -36 -26 -83 -126 -114l-20 34c37 24 57 40 57 63c0 15 -8 33 -43 33c-23 0 -53 -11 -69 -24l-17 33
c30 32 74 57 122 57z" />
    <glyph glyph-name="uni1ECA" unicode="&#x1eca;" horiz-adv-x="365" 
d="M337 0h-312v53c25 4 55 8 78 9v523c-20 2 -50 6 -78 10v53h312v-53c-24 -4 -58 -8 -78 -10v-523c20 -2 53 -5 78 -9v-53zM185 -216c-34 0 -78 24 -78 75c0 44 32 78 80 78c46 0 76 -35 76 -77c0 -54 -44 -76 -78 -76z" />
    <glyph glyph-name="uni1ECC" unicode="&#x1ecc;" horiz-adv-x="762" 
d="M383 -12c-209 0 -334 144 -334 336c0 189 124 334 338 334c205 0 326 -140 326 -330c0 -186 -119 -340 -330 -340zM392 36c87 0 149 74 149 277c0 212 -78 297 -170 297c-84 0 -150 -64 -150 -266s75 -308 171 -308zM381 -216c-34 0 -78 24 -78 75c0 44 32 78 79 78
s77 -35 77 -77c0 -54 -44 -76 -78 -76z" />
    <glyph glyph-name="uni1ECE" unicode="&#x1ece;" horiz-adv-x="762" 
d="M383 -12c-209 0 -334 144 -334 336c0 189 124 334 338 334c205 0 326 -140 326 -330c0 -186 -119 -340 -330 -340zM392 36c87 0 149 74 149 277c0 212 -78 297 -170 297c-84 0 -150 -64 -150 -266s75 -308 171 -308zM394 889c62 0 96 -36 96 -82c0 -36 -27 -83 -127 -114
l-20 34c37 24 58 40 58 63c0 15 -8 33 -43 33c-23 0 -54 -11 -70 -24l-17 33c31 32 74 57 123 57z" />
    <glyph glyph-name="uni1ED0" unicode="&#x1ed0;" horiz-adv-x="762" 
d="M383 -12c-209 0 -334 144 -334 336c0 189 124 334 338 334c205 0 326 -140 326 -330c0 -186 -119 -340 -330 -340zM392 36c87 0 149 74 149 277c0 212 -78 297 -170 297c-84 0 -150 -64 -150 -266s75 -308 171 -308zM528 823l-40 26l73 96h123v-34zM549 743v-45l-168 63
l-166 -63v45l150 103h37z" />
    <glyph glyph-name="uni1ED2" unicode="&#x1ed2;" horiz-adv-x="762" 
d="M383 -12c-209 0 -334 144 -334 336c0 189 124 334 338 334c205 0 326 -140 326 -330c0 -186 -119 -340 -330 -340zM392 36c87 0 149 74 149 277c0 212 -78 297 -170 297c-84 0 -150 -64 -150 -266s75 -308 171 -308zM548 735v-45l-168 63l-166 -63v45l150 103h38z
M675 804l-27 -28l-166 107v30h123z" />
    <glyph glyph-name="uni1ED4" unicode="&#x1ed4;" horiz-adv-x="762" 
d="M383 -12c-209 0 -334 144 -334 336c0 189 124 334 338 334c205 0 326 -140 326 -330c0 -186 -119 -340 -330 -340zM392 36c87 0 149 74 149 277c0 212 -78 297 -170 297c-84 0 -150 -64 -150 -266s75 -308 171 -308zM547 735v-46l-167 63l-166 -63v46l150 103h37z
M559 969c51 0 84 -28 84 -67c0 -31 -24 -69 -107 -97l-19 30c28 18 52 37 52 55c0 12 -7 26 -37 26c-21 0 -44 -12 -56 -21l-17 28c28 30 63 46 100 46z" />
    <glyph glyph-name="uni1ED6" unicode="&#x1ed6;" horiz-adv-x="762" 
d="M383 -12c-209 0 -334 144 -334 336c0 189 124 334 338 334c205 0 326 -140 326 -330c0 -186 -119 -340 -330 -340zM392 36c87 0 149 74 149 277c0 212 -78 297 -170 297c-84 0 -150 -64 -150 -266s75 -308 171 -308zM517 944l32 -18c-11 -26 -37 -81 -99 -81
c-30 0 -53 8 -83 19c-16 6 -38 12 -57 12c-30 0 -38 -15 -54 -37l-33 15c9 28 36 83 101 83c24 0 51 -7 80 -16c15 -5 42 -14 62 -14s31 8 51 37zM541 739v-46l-161 51l-159 -51v46l143 77h37z" />
    <glyph glyph-name="uni1ED8" unicode="&#x1ed8;" horiz-adv-x="762" 
d="M383 -12c-209 0 -334 144 -334 336c0 189 124 334 338 334c205 0 326 -140 326 -330c0 -186 -119 -340 -330 -340zM392 36c87 0 149 74 149 277c0 212 -78 297 -170 297c-84 0 -150 -64 -150 -266s75 -308 171 -308zM547 750v-50l-167 63l-166 -63v50l150 100h37z
M381 -217c-34 0 -78 23 -78 74c0 44 32 78 79 78s77 -35 77 -77c0 -53 -44 -75 -78 -75z" />
    <glyph glyph-name="uni1EDA" unicode="&#x1eda;" horiz-adv-x="767" 
d="M574 805l-159 -101h-81l101 136h139v-35zM392 36c87 0 149 74 149 277c0 212 -78 297 -170 297c-84 0 -150 -64 -150 -266s75 -308 171 -308zM744 672c0 -66 -54 -107 -101 -126c46 -57 70 -133 70 -218c0 -186 -119 -340 -330 -340c-209 0 -334 144 -334 336
c0 189 124 334 338 334c94 0 170 -29 226 -80c19 7 36 24 36 34c0 21 -21 52 -36 73c13 21 77 53 112 58c12 -11 19 -37 19 -71z" />
    <glyph glyph-name="uni1EDC" unicode="&#x1edc;" horiz-adv-x="767" 
d="M442 705h-80l-159 101v35h140zM392 36c87 0 149 74 149 277c0 212 -78 297 -170 297c-84 0 -150 -64 -150 -266s75 -308 171 -308zM744 672c0 -66 -54 -107 -101 -126c46 -57 70 -133 70 -218c0 -186 -119 -340 -330 -340c-209 0 -334 144 -334 336
c0 189 124 334 338 334c94 0 170 -29 226 -80c19 7 36 24 36 34c0 21 -21 52 -36 73c13 21 77 53 112 58c12 -11 19 -37 19 -71z" />
    <glyph glyph-name="uni1EDE" unicode="&#x1ede;" horiz-adv-x="767" 
d="M366 693l-20 34c37 24 58 40 58 63c0 15 -8 33 -43 33c-23 0 -54 -11 -70 -24l-17 33c31 32 74 57 123 57c62 0 96 -36 96 -82c0 -36 -27 -83 -127 -114zM392 36c87 0 149 74 149 277c0 212 -78 297 -170 297c-84 0 -150 -64 -150 -266s75 -308 171 -308zM744 672
c0 -66 -54 -107 -101 -126c46 -57 70 -133 70 -218c0 -186 -119 -340 -330 -340c-209 0 -334 144 -334 336c0 189 124 334 338 334c94 0 170 -29 226 -80c19 7 36 24 36 34c0 21 -21 52 -36 73c13 21 77 53 112 58c12 -11 19 -37 19 -71z" />
    <glyph glyph-name="uni1EE0" unicode="&#x1ee0;" horiz-adv-x="767" 
d="M271 718h-54c-7 89 40 120 94 120c31 0 57 -7 96 -22c15 -6 44 -16 60 -16s31 5 31 44h57c6 -91 -41 -124 -94 -124c-29 0 -56 10 -82 19c-33 14 -59 20 -74 20c-20 0 -32 -7 -34 -41zM392 36c87 0 149 74 149 277c0 212 -78 297 -170 297c-84 0 -150 -64 -150 -266
s75 -308 171 -308zM744 672c0 -66 -54 -107 -101 -126c46 -57 70 -133 70 -218c0 -186 -119 -340 -330 -340c-209 0 -334 144 -334 336c0 189 124 334 338 334c94 0 170 -29 226 -80c19 7 36 24 36 34c0 21 -21 52 -36 73c13 21 77 53 112 58c12 -11 19 -37 19 -71z" />
    <glyph glyph-name="uni1EE2" unicode="&#x1ee2;" horiz-adv-x="767" 
d="M385 -63c46 0 77 -35 77 -77c0 -54 -45 -76 -79 -76s-78 24 -78 75c0 44 32 78 80 78zM392 36c87 0 149 74 149 277c0 212 -78 297 -170 297c-84 0 -150 -64 -150 -266s75 -308 171 -308zM744 672c0 -66 -54 -107 -101 -126c46 -57 70 -133 70 -218
c0 -186 -119 -340 -330 -340c-209 0 -334 144 -334 336c0 189 124 334 338 334c94 0 170 -29 226 -80c19 7 36 24 36 34c0 21 -21 52 -36 73c13 21 77 53 112 58c12 -11 19 -37 19 -71z" />
    <glyph glyph-name="uni1EE4" unicode="&#x1ee4;" horiz-adv-x="717" 
d="M625 586v-366c0 -56 -12 -99 -35 -135c-38 -57 -115 -97 -224 -97c-135 0 -211 50 -246 109c-20 35 -26 76 -27 121v368c-25 2 -49 6 -68 9v53h308v-52c-26 -6 -64 -9 -84 -11v-392c1 -65 36 -134 148 -134c102 0 150 73 150 135v392c-23 2 -69 7 -89 10v52h235v-53
c-32 -5 -54 -8 -68 -9zM368 -223c-34 0 -77 24 -77 75c0 44 31 78 79 78c46 0 77 -35 77 -77c0 -54 -44 -76 -79 -76z" />
    <glyph glyph-name="uni1EE6" unicode="&#x1ee6;" horiz-adv-x="717" 
d="M625 586v-366c0 -56 -12 -99 -35 -135c-38 -57 -115 -97 -224 -97c-135 0 -211 50 -246 109c-20 35 -26 76 -27 121v368c-25 2 -49 6 -68 9v53h308v-52c-26 -6 -64 -9 -84 -11v-392c1 -65 36 -134 148 -134c102 0 150 73 150 135v392c-23 2 -69 7 -89 10v52h235v-53
c-32 -5 -54 -8 -68 -9zM392 879c62 0 96 -36 96 -81c0 -36 -27 -83 -127 -115l-20 35c37 24 58 39 58 63c0 14 -8 32 -43 32c-23 0 -54 -10 -70 -24l-17 34c31 31 74 56 123 56z" />
    <glyph glyph-name="uni1EE8" unicode="&#x1ee8;" horiz-adv-x="717" 
d="M29 648h308v-52c-26 -6 -64 -9 -84 -11v-401c0 -58 45 -125 144 -125c102 0 145 72 145 133v394c-23 2 -68 7 -89 10v52h165c28 0 41 6 41 18c0 18 -27 47 -52 74c20 22 83 53 109 58c9 -12 20 -37 20 -71c0 -84 -66 -126 -116 -136v-373c0 -56 -11 -97 -35 -133
c-38 -57 -110 -97 -219 -97c-134 0 -207 49 -242 108c-20 35 -27 76 -27 120v370c-25 2 -49 6 -68 9v53zM319 705l101 136h139v-35l-159 -101h-81z" />
    <glyph glyph-name="uni1EEA" unicode="&#x1eea;" horiz-adv-x="717" 
d="M29 648h308v-52c-26 -6 -64 -9 -84 -11v-401c0 -58 45 -125 144 -125c102 0 145 72 145 133v394c-23 2 -68 7 -89 10v52h165c28 0 41 6 41 18c0 18 -27 47 -52 74c20 22 83 53 109 58c9 -12 20 -37 20 -71c0 -84 -66 -126 -116 -136v-373c0 -56 -11 -97 -35 -133
c-38 -57 -110 -97 -219 -97c-134 0 -207 49 -242 108c-20 35 -27 76 -27 120v370c-25 2 -49 6 -68 9v53zM345 840l100 -136h-81l-158 101v35h139z" />
    <glyph glyph-name="uni1EEC" unicode="&#x1eec;" horiz-adv-x="717" 
d="M29 648h308v-52c-26 -6 -64 -9 -84 -11v-401c0 -58 45 -125 144 -125c102 0 145 72 145 133v394c-23 2 -68 7 -89 10v52h165c28 0 41 6 41 18c0 18 -27 47 -52 74c20 22 83 53 109 58c9 -12 20 -37 20 -71c0 -84 -66 -126 -116 -136v-373c0 -56 -11 -97 -35 -133
c-38 -57 -110 -97 -219 -97c-134 0 -207 49 -242 108c-20 35 -27 76 -27 120v370c-25 2 -49 6 -68 9v53zM400 885c62 0 96 -36 96 -81c0 -36 -27 -83 -127 -115l-20 35c37 24 58 40 58 63c0 14 -8 32 -43 32c-23 0 -54 -10 -70 -24l-17 34c31 32 74 56 123 56z" />
    <glyph glyph-name="uni1EEE" unicode="&#x1eee;" horiz-adv-x="717" 
d="M29 648h308v-52c-26 -6 -64 -9 -84 -11v-401c0 -58 45 -125 144 -125c102 0 145 72 145 133v394c-23 2 -68 7 -89 10v52h165c28 0 41 6 41 18c0 18 -27 47 -52 74c20 22 83 53 109 58c9 -12 20 -37 20 -71c0 -84 -66 -126 -116 -136v-373c0 -56 -11 -97 -35 -133
c-38 -57 -110 -97 -219 -97c-134 0 -207 49 -242 108c-20 35 -27 76 -27 120v370c-25 2 -49 6 -68 9v53zM502 841h56c6 -91 -40 -124 -94 -124c-28 0 -55 10 -81 20c-34 13 -59 19 -75 19c-19 0 -31 -6 -33 -41h-54c-7 89 40 120 93 120c31 0 58 -7 96 -21
c16 -6 44 -17 61 -17c15 0 30 5 31 44z" />
    <glyph glyph-name="uni1EF0" unicode="&#x1ef0;" horiz-adv-x="717" 
d="M29 648h308v-52c-26 -6 -64 -9 -84 -11v-401c0 -58 45 -125 144 -125c102 0 145 72 145 133v394c-23 2 -68 7 -89 10v52h165c28 0 41 6 41 18c0 18 -27 47 -52 74c20 22 83 53 109 58c9 -12 20 -37 20 -71c0 -84 -66 -126 -116 -136v-373c0 -56 -11 -97 -35 -133
c-38 -57 -110 -97 -219 -97c-134 0 -207 49 -242 108c-20 35 -27 76 -27 120v370c-25 2 -49 6 -68 9v53zM366 -228c-33 0 -77 24 -77 74c0 45 31 79 79 79c46 0 77 -35 77 -78c0 -53 -44 -75 -79 -75z" />
    <glyph glyph-name="uni1EF4" unicode="&#x1ef4;" horiz-adv-x="579" 
d="M462 0h-341v53c32 4 70 7 92 10v183c0 17 -2 26 -10 43c-44 89 -143 263 -164 297c-15 2 -34 4 -68 9v53h307v-53c-21 -2 -52 -8 -65 -9c20 -45 108 -208 129 -245c26 49 103 194 124 245c-24 3 -65 5 -88 9v53h233v-53c-25 -4 -53 -7 -71 -9
c-31 -57 -133 -240 -163 -302c-7 -14 -9 -20 -9 -39v-182c21 -2 67 -6 94 -11v-52zM290 -215c-33 0 -77 23 -77 74c0 44 31 78 79 78c46 0 77 -34 77 -77c0 -53 -44 -75 -79 -75z" />
    <glyph glyph-name="uni1EF6" unicode="&#x1ef6;" horiz-adv-x="579" 
d="M462 0h-341v53c32 4 70 7 92 10v183c0 17 -2 26 -10 43c-44 89 -143 263 -164 297c-15 2 -34 4 -68 9v53h307v-53c-21 -2 -52 -8 -65 -9c20 -45 108 -208 129 -245c26 49 103 194 124 245c-24 3 -65 5 -88 9v53h233v-53c-25 -4 -53 -7 -71 -9
c-31 -57 -133 -240 -163 -302c-7 -14 -9 -20 -9 -39v-182c21 -2 67 -6 94 -11v-52zM333 879c63 0 96 -36 96 -81c0 -36 -27 -83 -127 -115l-20 35c38 24 58 40 58 63c0 14 -8 32 -43 32c-23 0 -54 -10 -69 -24l-17 34c30 32 73 56 122 56z" />
    <glyph glyph-name="uni1EF8" unicode="&#x1ef8;" horiz-adv-x="579" 
d="M462 0h-341v53c32 4 70 7 92 10v183c0 17 -2 26 -10 43c-44 89 -143 263 -164 297c-15 2 -34 4 -68 9v53h307v-53c-21 -2 -52 -8 -65 -9c20 -45 108 -208 129 -245c26 49 103 194 124 245c-24 3 -65 5 -88 9v53h233v-53c-25 -4 -53 -7 -71 -9
c-31 -57 -133 -240 -163 -302c-7 -14 -9 -20 -9 -39v-182c21 -2 67 -6 94 -11v-52zM428 839h56c7 -91 -40 -124 -93 -124c-29 0 -56 10 -82 20c-34 13 -59 19 -74 19c-20 0 -32 -6 -34 -41h-54c-7 89 40 120 94 120c30 0 57 -7 96 -21c15 -6 44 -17 60 -17s31 5 31 44z" />
    <glyph glyph-name="uni1EA1" unicode="&#x1ea1;" horiz-adv-x="509" 
d="M258 -65c46 0 77 -35 77 -77c0 -54 -44 -76 -79 -76c-34 0 -78 24 -78 75c0 44 32 78 80 78zM292 230h-11c-71 0 -109 -29 -109 -82c0 -54 32 -80 79 -80c15 0 27 2 43 9c-1 6 -2 12 -2 19v134zM431 334v-259c0 -5 12 -17 34 -17c8 0 11 0 19 1v-48
c-21 -12 -53 -19 -88 -19c-27 0 -68 10 -89 47c-66 -41 -114 -51 -140 -51c-61 0 -135 54 -135 138c0 124 141 149 255 149h6v67c0 40 -16 80 -80 80c-10 0 -18 -1 -25 -3c-8 -27 -24 -73 -29 -83h-90v101c63 18 135 36 191 36c127 0 171 -67 171 -139z" />
    <glyph glyph-name="uni1EA3" unicode="&#x1ea3;" horiz-adv-x="509" 
d="M231 516l-21 34c35 23 57 42 57 65c0 15 -9 32 -43 32c-23 0 -46 -9 -69 -23l-16 34c28 26 66 51 116 51c61 0 99 -34 99 -78c0 -37 -26 -83 -123 -115zM292 230h-11c-71 0 -109 -29 -109 -82c0 -54 32 -80 79 -80c15 0 27 2 43 9c-1 6 -2 12 -2 19v134zM431 334v-259
c0 -5 12 -17 34 -17c8 0 11 0 19 1v-48c-21 -12 -53 -19 -88 -19c-27 0 -68 10 -89 47c-66 -41 -114 -51 -140 -51c-61 0 -135 54 -135 138c0 124 141 149 255 149h6v67c0 40 -16 80 -80 80c-10 0 -18 -1 -25 -3c-8 -27 -24 -73 -29 -83h-90v101c63 18 135 36 191 36
c127 0 171 -67 171 -139z" />
    <glyph glyph-name="uni1EA5" unicode="&#x1ea5;" horiz-adv-x="509" 
d="M245 590l-72 -67h-70l104 149h78l105 -149h-75zM292 230h-11c-71 0 -109 -29 -109 -82c0 -54 32 -80 79 -80c15 0 27 2 43 9c-1 6 -2 12 -2 19v134zM431 334v-259c0 -5 12 -17 34 -17c8 0 11 0 19 1v-48c-21 -12 -53 -19 -88 -19c-27 0 -68 10 -89 47
c-66 -41 -114 -51 -140 -51c-61 0 -135 54 -135 138c0 124 141 149 255 149h6v67c0 40 -16 80 -80 80c-10 0 -18 -1 -25 -3c-8 -27 -24 -73 -29 -83h-90v101c63 18 135 36 191 36c127 0 171 -67 171 -139zM419 758h115v-29l-158 -114l-28 30z" />
    <glyph glyph-name="uni1EA7" unicode="&#x1ea7;" horiz-adv-x="509" 
d="M485 618l-36 -18l-123 127v30h107zM245 590l-72 -67h-70l104 149h77l105 -149h-74zM292 230h-11c-71 0 -109 -29 -109 -82c0 -54 32 -80 79 -80c15 0 27 2 43 9c-1 6 -2 12 -2 19v134zM431 334v-259c0 -5 12 -17 34 -17c8 0 11 0 19 1v-48c-21 -12 -53 -19 -88 -19
c-27 0 -68 10 -89 47c-66 -41 -114 -51 -140 -51c-61 0 -135 54 -135 138c0 124 141 149 255 149h6v67c0 40 -16 80 -80 80c-10 0 -18 -1 -25 -3c-8 -27 -24 -73 -29 -83h-90v101c63 18 135 36 191 36c127 0 171 -67 171 -139z" />
    <glyph glyph-name="uni1EA9" unicode="&#x1ea9;" horiz-adv-x="509" 
d="M399 606l-19 31c27 19 47 42 47 61c0 12 -8 27 -35 27c-19 0 -43 -8 -58 -18l-18 31c30 30 68 46 104 46c54 0 86 -30 86 -71c0 -34 -29 -77 -107 -107zM245 590l-72 -67h-69l104 149h77l105 -149h-75zM292 230h-11c-71 0 -109 -29 -109 -82c0 -54 32 -80 79 -80
c15 0 27 2 43 9c-1 6 -2 12 -2 19v134zM431 334v-259c0 -5 12 -17 34 -17c8 0 11 0 19 1v-48c-21 -12 -53 -19 -88 -19c-27 0 -68 10 -89 47c-66 -41 -114 -51 -140 -51c-61 0 -135 54 -135 138c0 124 141 149 255 149h6v67c0 40 -16 80 -80 80c-10 0 -18 -1 -25 -3
c-8 -27 -24 -73 -29 -83h-90v101c63 18 135 36 191 36c127 0 171 -67 171 -139z" />
    <glyph glyph-name="uni1EAB" unicode="&#x1eab;" horiz-adv-x="509" 
d="M377 768l31 -18c-10 -26 -37 -81 -103 -81c-26 0 -49 8 -79 19c-17 6 -39 12 -57 12c-30 0 -40 -14 -56 -37l-32 14c8 29 36 84 101 84c24 0 52 -7 80 -16c16 -5 43 -14 63 -14s32 8 52 37zM222 636h40c35 -23 85 -57 127 -83v-41l-147 50l-144 -50v40
c45 28 91 58 124 84zM292 230h-11c-71 0 -109 -29 -109 -82c0 -54 32 -80 79 -80c15 0 27 2 43 9c-1 6 -2 12 -2 19v134zM431 334v-259c0 -5 12 -17 34 -17c8 0 11 0 19 1v-48c-21 -12 -53 -19 -88 -19c-27 0 -68 10 -89 47c-66 -41 -114 -51 -140 -51
c-61 0 -135 54 -135 138c0 124 141 149 255 149h6v67c0 40 -16 80 -80 80c-10 0 -18 -1 -25 -3c-8 -27 -24 -73 -29 -83h-90v101c63 18 135 36 191 36c127 0 171 -67 171 -139z" />
    <glyph glyph-name="uni1EAD" unicode="&#x1ead;" horiz-adv-x="509" 
d="M251 603l-80 -75h-63l104 158h79l105 -158h-64zM258 -66c46 0 77 -35 77 -78c0 -53 -44 -75 -79 -75c-34 0 -78 24 -78 74c0 45 32 79 80 79zM292 230h-11c-71 0 -109 -29 -109 -82c0 -54 32 -80 79 -80c15 0 27 2 43 9c-1 6 -2 12 -2 19v134zM431 334v-259
c0 -5 12 -17 34 -17c8 0 11 0 19 1v-48c-21 -12 -53 -19 -88 -19c-27 0 -68 10 -89 47c-66 -41 -114 -51 -140 -51c-61 0 -135 54 -135 138c0 124 141 149 255 149h6v67c0 40 -16 80 -80 80c-10 0 -18 -1 -25 -3c-8 -27 -24 -73 -29 -83h-90v101c63 18 135 36 191 36
c127 0 171 -67 171 -139z" />
    <glyph glyph-name="uni1EAF" unicode="&#x1eaf;" horiz-adv-x="509" 
d="M354 752l-100 -105h-47l38 125h109v-20zM384 650l25 -22c-29 -55 -78 -106 -173 -106c-80 0 -138 50 -160 106l28 23c34 -39 80 -56 134 -56c72 0 107 12 146 55zM292 230h-11c-71 0 -109 -29 -109 -82c0 -54 32 -80 79 -80c15 0 27 2 43 9c-1 6 -2 12 -2 19v134z
M431 334v-259c0 -5 12 -17 34 -17c8 0 11 0 19 1v-48c-21 -12 -53 -19 -88 -19c-27 0 -68 10 -89 47c-66 -41 -114 -51 -140 -51c-61 0 -135 54 -135 138c0 124 141 149 255 149h6v67c0 40 -16 80 -80 80c-10 0 -18 -1 -25 -3c-8 -27 -24 -73 -29 -83h-90v101
c63 18 135 36 191 36c127 0 171 -67 171 -139z" />
    <glyph glyph-name="uni1EB1" unicode="&#x1eb1;" horiz-adv-x="509" 
d="M282 646h-48l-93 105v20h109zM387 649l25 -22c-29 -54 -78 -105 -173 -105c-80 0 -138 49 -160 106l28 22c34 -39 80 -56 134 -56c72 0 107 13 146 55zM292 230h-11c-71 0 -109 -29 -109 -82c0 -54 32 -80 79 -80c15 0 27 2 43 9c-1 6 -2 12 -2 19v134zM431 334v-259
c0 -5 12 -17 34 -17c8 0 11 0 19 1v-48c-21 -12 -53 -19 -88 -19c-27 0 -68 10 -89 47c-66 -41 -114 -51 -140 -51c-61 0 -135 54 -135 138c0 124 141 149 255 149h6v67c0 40 -16 80 -80 80c-10 0 -18 -1 -25 -3c-8 -27 -24 -73 -29 -83h-90v101c63 18 135 36 191 36
c127 0 171 -67 171 -139z" />
    </font>
</defs>
</svg>
